{
.appVersion = "3133";
.formatVersion = 3;
axes = (
{
name = Weight;
tag = wght;
},
{
name = Italic;
tag = ital;
}
);
customParameters = (
{
name = fsType;
value = (
);
},
{
name = "Enforce Compatibility Check";
value = 1;
},
{
name = "Variable Font Origin";
value = "165B80D5-D1D8-4F82-9ABF-C7C56271FA1E";
},
{
name = "gasp Table";
value = {
};
},
{
name = "Axis Mappings";
value = {
ital = {
0 = 0;
1 = 1;
};
wght = {
100 = 30;
200 = 43;
300 = 54;
400 = 70;
500 = 84;
600 = 104;
700 = 122;
800 = 138;
900 = 150;
};
};
},
{
name = panose;
value = (
2,
11,
10,
4,
4,
2,
0,
0,
2,
3
);
},
{
name = "Use Typo Metrics";
value = 1;
},
{
name = "Export morx Table";
value = 1;
}
);
date = "2020-03-28 06:10:06 +0000";
familyName = Urbanist;
featurePrefixes = (
{
automatic = 1;
code = "languagesystem DFLT dflt;
languagesystem DFLT MAH;

languagesystem latn dflt;
languagesystem latn AZE;
languagesystem latn CRT;
languagesystem latn KAZ;
languagesystem latn TAT;
languagesystem latn TRK;
languagesystem latn ROM;
languagesystem latn MOL;
languagesystem latn MAH;
languagesystem latn CAT;
languagesystem latn NLD;
";
name = Languagesystems;
}
);
features = (
{
automatic = 1;
code = "feature locl;
feature subs;
feature sinf;
feature sups;
feature frac;
feature ordn;
feature case;
";
tag = aalt;
},
{
automatic = 1;
code = "lookup ccmp_Other_1 {
	@CombiningTopAccents = [acutecomb brevecomb caroncomb circumflexcomb commaturnedabovecomb dieresiscomb dotaccentcomb gravecomb hungarumlautcomb macroncomb ringcomb tildecomb];
	@CombiningNonTopAccents = [cedillacomb dotbelowcomb ogonekcomb];
	sub [i j]' @CombiningTopAccents by [idotless jdotless];
	sub [i j]' @CombiningNonTopAccents @CombiningTopAccents by [idotless jdotless];
} ccmp_Other_1;

lookup ccmp_latn_1 {
	sub fi by f i;
	sub fl by f l;
} ccmp_latn_1;

script latn;
lookup ccmp_latn_1;
";
tag = ccmp;
},
{
automatic = 1;
code = "lookup locl_noScript_0 {
	language MAH;
	sub commaaccentcomb by commaaccentcomb.loclMAH;
} locl_noScript_0;


glyphs = (
{
glyphname = A;
kernLeft = A;
kernRight = A;
lastChange = "2022-07-15 23:53:54 +0000";
layers = (
{
anchors = (
{
name = bottom;
pos = (757,0);
},
{
name = ogonek;
pos = (1434,0);
},
{
name = top;
pos = (757,1400);
}
);
hints = (
{
horizontal = 1;
origin = (0,0);
target = up;
type = BottomGhost;
},
{
horizontal = 1;
origin = (0,2);
target = (1,2);
type = Stem;
},
{
horizontal = 1;
origin = (0,7);
target = down;
type = TopGhost;
}
);
layerId = "10BC12B3-5274-42E3-B5BC-F74F362F0DF4";
shapes = (
{
closed = 1;
nodes = (
(80,0,l),
(398,0,l),
(478,220,l),
(1036,220,l),
(1116,0,l),
(1434,0,l),
(926,1400,l),
(588,1400,l)
);
},
{
closed = 1;
nodes = (
(756,984,l),
(926,520,l),
(588,520,l)
);
}
);
width = 1514;
},
{
anchors = (
{
name = bottom;
pos = (636,0);
},
{
name = ogonek;
pos = (1192,0);
},
{
name = top;
pos = (636,1400);
}
);
hints = (
{
horizontal = 1;
origin = (0,0);
target = up;
type = BottomGhost;
},
{
horizontal = 1;
origin = (0,2);
target = (1,2);
type = Stem;
},
{
horizontal = 1;
origin = (0,7);
target = (1,0);
type = Stem;
}
);
layerId = "9AF1F7D9-E035-453E-B2A8-46DE370997D0";
shapes = (
{
closed = 1;
nodes = (
(80,0,l),
(144,0,l),
(268,340,l),
(1004,340,l),
(1128,0,l),
(1192,0,l),
(682,1400,l),
(590,1400,l)
);
},
{
closed = 1;
nodes = (
(636,1350,l),
(982,400,l),
(290,400,l)
);
}
);
width = 1272;
},
{
anchors = (
{
name = bottom;
pos = (495,0);
},
{
name = ogonek;
pos = (1051,0);
},
{
name = top;
pos = (692,1400);
}
);
hints = (
{
horizontal = 1;
origin = (0,0);
target = up;
type = BottomGhost;
},
{
horizontal = 1;
origin = (0,2);
target = (1,2);
type = Stem;
},
{
horizontal = 1;
origin = (0,7);
target = (1,0);
type = Stem;
}
);
layerId = m003;
shapes = (
{
closed = 1;
nodes = (
(-61,0,l),
(3,0,l),
(175,340,l),
(911,340,l),
(987,0,l),
(1051,0,l),
(738,1400,l),
(646,1400,l)
);
},
{
closed = 1;
nodes = (
(685,1350,l),
(898,400,l),
(206,400,l)
);
}
);
width = 1272;
},
{
anchors = (
{
name = bottom;
pos = (616,0);
},
{
name = ogonek;
pos = (1293,0);
},
{
name = top;
pos = (813,1400);
}
);
hints = (
{
horizontal = 1;
origin = (0,0);
target = up;
type = BottomGhost;
},
{
horizontal = 1;
origin = (0,2);
target = (1,2);
type = Stem;
},
{
horizontal = 1;
origin = (0,7);
target = down;
type = TopGhost;
}
);
layerId = m004;
shapes = (
{
closed = 1;
nodes = (
(-61,0,l),
(257,0,l),
(368,220,l),
(926,220,l),
(975,0,l),
(1293,0,l),
(982,1400,l),
(644,1400,l)
);
},
{
closed = 1;
nodes = (
(754,984,l),
(859,520,l),
(521,520,l)
);
}
);
width = 1514;
},
{
anchors = (
{
name = bottom;
pos = (676,0);
},
{
name = ogonek;
pos = (1273,0);
},
{
name = top;
pos = (676,1400);
}
);
hints = (
{
horizontal = 1;
origin = (0,0);
target = up;
type = BottomGhost;
},
{
horizontal = 1;
origin = (0,2);
target = (1,2);
type = Stem;
},
{
horizontal = 1;
origin = (0,7);
target = (1,0);
type = Stem;
}
);
layerId = "9C66D268-F658-4B53-B779-04C5E9DBD6C3";
shapes = (
{
closed = 1;
nodes = (
(80,0,l),
(229,0,l),
(338,300,l),
(1015,300,l),
(1124,0,l),
(1273,0,l),
(763,1400,l),
(589,1400,l)
);
},
{
closed = 1;
nodes = (
(676,1228,l),
(963,440,l),
(389,440,l)
);
}
);
width = 1352.66667;
},
{
anchors = (
{
name = bottom;
pos = (535,0);
},
{
name = ogonek;
pos = (1132,0);
},
{
name = top;
pos = (732,1400);
}
);
hints = (
{
horizontal = 1;
origin = (0,0);
target = up;
type = BottomGhost;
},
{
horizontal = 1;
origin = (0,2);
target = (1,2);
type = Stem;
},
{
horizontal = 1;
origin = (0,7);
target = (1,0);
type = Stem;
}
);
layerId = "6AFC1D6D-393E-4CF1-A9CC-89EE1F1F13FA";
shapes = (
{
closed = 1;
nodes = (
(-61,0,l),
(88,0,l),
(239,300,l),
(916,300,l),
(983,0,l),
(1132,0,l),
(819,1400,l),
(645,1400,l)
);
},
{
closed = 1;
nodes = (
(708,1228,l),
(885,440,l),
(311,440,l)
);
}
);
width = 1352.66667;
}
);
unicode = 65;
},
{
glyphname = AE;
kernLeft = A;
kernRight = E;
lastChange = "2022-07-15 23:53:54 +0000";
layers = (
{
anchors = (
{
name = bottom;
pos = (855,0);
},
{
name = top;
pos = (1099,1400);
}
);
hints = (
{
horizontal = 1;
origin = (0,15);
target = (0,6);
type = Stem;
},
{
horizontal = 1;
origin = (0,7);
target = (0,10);
type = Stem;
},
{
horizontal = 1;
origin = (0,14);
target = (1,0);
type = Stem;
},
{
horizontal = 1;
origin = (0,1);
target = (1,3);
type = Stem;
},
{
origin = (0,3);
target = (0,6);
type = Stem;
}
);
layerId = "10BC12B3-5274-42E3-B5BC-F74F362F0DF4";
shapes = (
{
closed = 1;
nodes = (
(398,0,l),
(478,220,l),
(858,220,l),
(858,0,l),
(1610,0,l),
(1610,300,l),
(1158,300,l),
(1158,550,l),
(1514,550,l),
(1514,850,l),
(1158,850,l),
(1158,1100,l),
(1610,1100,l),
(1610,1400,l),
(588,1400,l),
(80,0,l)
);
},
{
closed = 1;
nodes = (
(798,1100,l),
(858,1100,l),
(858,520,l),
(588,520,l)
);
}
);
width = 1710;
},
{
anchors = (
{
name = bottom;
pos = (787,0);
},
{
name = top;
pos = (1032,1400);
}
);
hints = (
{
horizontal = 1;
origin = (0,15);
target = (0,6);
type = Stem;
},
{
horizontal = 1;
origin = (0,1);
target = (1,3);
type = Stem;
},
{
horizontal = 1;
origin = (0,7);
target = (0,10);
type = Stem;
},
{
horizontal = 1;
origin = (0,14);
target = (1,0);
type = Stem;
},
{
origin = (0,3);
target = (0,6);
type = Stem;
}
);
layerId = "9AF1F7D9-E035-453E-B2A8-46DE370997D0";
shapes = (
{
closed = 1;
nodes = (
(144,0,l),
(268,340,l),
(782,340,l),
(782,0,l),
(1474,0,l),
(1474,60,l),
(842,60,l),
(842,670,l),
(1378,670,l),
(1378,730,l),
(842,730,l),
(842,1340,l),
(1474,1340,l),
(1474,1400,l),
(590,1400,l),
(80,0,l)
);
},
{
closed = 1;
nodes = (
(634,1340,l),
(782,1340,l),
(782,400,l),
(290,400,l)
);
}
);
width = 1574;
},
{
anchors = (
{
name = bottom;
pos = (646,0);
},
{
name = top;
pos = (1088,1400);
}
);
hints = (
{
horizontal = 1;
origin = (0,15);
target = (0,6);
type = Stem;
},
{
horizontal = 1;
origin = (0,1);
target = (1,3);
type = Stem;
},
{
horizontal = 1;
origin = (0,7);
target = (0,10);
type = Stem;
},
{
horizontal = 1;
origin = (0,14);
target = (1,0);
type = Stem;
},
{
origin = (0,3);
target = (0,6);
type = Stem;
}
);
layerId = m003;
shapes = (
{
closed = 1;
nodes = (
(3,0,l),
(175,340,l),
(689,340,l),
(641,0,l),
(1333,0,l),
(1342,60,l),
(710,60,l),
(796,670,l),
(1332,670,l),
(1340,730,l),
(804,730,l),
(890,1340,l),
(1522,1340,l),
(1530,1400,l),
(646,1400,l),
(-61,0,l)
);
},
{
closed = 1;
nodes = (
(682,1340,l),
(830,1340,l),
(698,400,l),
(206,400,l)
);
}
);
width = 1574;
},
{
anchors = (
{
name = bottom;
pos = (714,0);
},
{
name = top;
pos = (1155,1400);
}
);
hints = (
{
horizontal = 1;
origin = (0,15);
target = (0,6);
type = Stem;
},
{
horizontal = 1;
origin = (0,7);
target = (0,10);
type = Stem;
},
{
horizontal = 1;
origin = (0,14);
target = (1,0);
type = Stem;
},
{
horizontal = 1;
origin = (0,1);
target = (1,3);
type = Stem;
},
{
origin = (0,3);
target = (0,6);
type = Stem;
}
);
layerId = m004;
shapes = (
{
closed = 1;
nodes = (
(257,0,l),
(368,220,l),
(748,220,l),
(717,0,l),
(1469,0,l),
(1512,300,l),
(1060,300,l),
(1095,550,l),
(1451,550,l),
(1493,850,l),
(1137,850,l),
(1172,1100,l),
(1624,1100,l),
(1666,1400,l),
(644,1400,l),
(-61,0,l)
);
},
{
closed = 1;
nodes = (
(812,1100,l),
(872,1100,l),
(791,520,l),
(521,520,l)
);
}
);
width = 1710;
},
{
anchors = (
{
name = bottom;
pos = (810,0);
},
{
name = top;
pos = (1054,1400);
}
);
hints = (
{
horizontal = 1;
origin = (0,15);
target = (0,6);
type = Stem;
},
{
horizontal = 1;
origin = (0,1);
target = (1,3);
type = Stem;
},
{
horizontal = 1;
origin = (0,7);
target = (0,10);
type = Stem;
},
{
horizontal = 1;
origin = (0,14);
target = (1,0);
type = Stem;
},
{
origin = (0,3);
target = (0,6);
type = Stem;
}
);
layerId = "9C66D268-F658-4B53-B779-04C5E9DBD6C3";
shapes = (
{
closed = 1;
nodes = (
(229,0,l),
(338,300,l),
(807,300,l),
(807,0,l),
(1519,0,l),
(1519,140,l),
(947,140,l),
(947,630,l),
(1423,630,l),
(1423,770,l),
(947,770,l),
(947,1260,l),
(1519,1260,l),
(1519,1400,l),
(589,1400,l),
(80,0,l)
);
},
{
closed = 1;
nodes = (
(689,1260,l),
(807,1260,l),
(807,440,l),
(389,440,l)
);
}
);
width = 1619.33333;
},
{
anchors = (
{
name = bottom;
pos = (669,0);
},
{
name = top;
pos = (1110,1400);
}
);
hints = (
{
horizontal = 1;
origin = (0,15);
target = (0,6);
type = Stem;
},
{
horizontal = 1;
origin = (0,1);
target = (1,3);
type = Stem;
},
{
horizontal = 1;
origin = (0,7);
target = (0,10);
type = Stem;
},
{
horizontal = 1;
origin = (0,14);
target = (1,0);
type = Stem;
},
{
origin = (0,3);
target = (0,6);
type = Stem;
}
);
layerId = "6AFC1D6D-393E-4CF1-A9CC-89EE1F1F13FA";
shapes = (
{
closed = 1;
nodes = (
(88,0,l),
(239,300,l),
(709,300,l),
(666,0,l),
(1378,0,l),
(1399,140,l),
(827,140,l),
(896,630,l),
(1372,630,l),
(1391,770,l),
(915,770,l),
(984,1260,l),
(1556,1260,l),
(1575,1400,l),
(645,1400,l),
(-61,0,l)
);
},
{
closed = 1;
nodes = (
(725,1260,l),
(844,1260,l),
(729,440,l),
(311,440,l)
);
}
);
width = 1619.33333;
}
);
metricLeft = A;
metricRight = E;
unicode = 198;
},
{
glyphname = B;
kernLeft = H;
kernRight = B;
lastChange = "2022-07-15 23:53:54 +0000";
layers = (
{
anchors = (
{
name = bottom;
pos = (603,0);
},
{
name = center;
pos = (603,700);
},
{
name = top;
pos = (603,1400);
}
);
hints = (
{
horizontal = 1;
place = (0, 254);
place = (0, 254);
type = Stem;
},
{
horizontal = 1;
place = (625, 250);
place = (625, 250);
type = Stem;
},
{
horizontal = 1;
place = (1400, 256);
place = (1400, 256);
type = Stem;
},
{
place = (120, 300);
place = (120, 300);
type = Stem;
},
{
place = (760, 300);
place = (760, 300);
type = Stem;
},
{
place = (860, 266);
place = (860, 266);
type = Stem;
}
);
layerId = "10BC12B3-5274-42E3-B5BC-F74F362F0DF4";
shapes = (
{
closed = 1;
nodes = (
(726,0,ls),
(947,0,o),
(1126,179,o),
(1126,400,cs),
(1126,574,o),
(1015,723,o),
(859,777,c),
(964,833,o),
(1036,943,o),
(1036,1070,cs),
(1036,1252,o),
(888,1400,o),
(706,1400,cs),
(120,1400,l),
(120,0,l)
);
},
{
closed = 1;
nodes = (
(419,625,l),
(675,625,ls),
(777,625,o),
(860,542,o),
(860,436,cs),
(860,333,o),
(777,250,o),
(675,250,cs),
(419,250,l)
);
},
{
closed = 1;
nodes = (
(419,1150,l),
(626,1150,ls),
(700,1150,o),
(760,1090,o),
(760,1010,cs),
(760,935,o),
(700,875,o),
(626,875,cs),
(419,875,l)
);
}
);
width = 1206;
},
{
anchors = (
{
name = bottom;
pos = (535,0);
},
{
name = center;
pos = (535,700);
},
{
name = top;
pos = (535,1400);
}
);
hints = (
{
horizontal = 1;
place = (0, 60);
place = (0, 60);
type = Stem;
},
{
horizontal = 1;
place = (740, 60);
place = (740, 60);
type = Stem;
},
{
horizontal = 1;
place = (1340, 60);
place = (1340, 60);
type = Stem;
},
{
place = (120, 60);
place = (120, 60);
type = Stem;
},
{
place = (930, 60);
place = (930, 60);
type = Stem;
},
{
place = (852, 60);
place = (852, 60);
type = Stem;
}
);
layerId = "9AF1F7D9-E035-453E-B2A8-46DE370997D0";
shapes = (
{
closed = 1;
nodes = (
(590,0,ls),
(811,0,o),
(990,179,o),
(990,400,cs),
(990,572,o),
(882,718,o),
(730,775,c),
(838,829,o),
(912,941,o),
(912,1070,cs),
(912,1252,o),
(764,1400,o),
(582,1400,cs),
(120,1400,l),
(120,0,l)
);
},
{
closed = 1;
nodes = (
(180,740,l),
(590,740,ls),
(773,740,o),
(930,594,o),
(930,400,cs),
(930,205,o),
(772,60,o),
(590,60,cs),
(180,60,l)
);
},
{
closed = 1;
nodes = (
(180,1340,l),
(582,1340,ls),
(732,1340,o),
(852,1219,o),
(852,1070,cs),
(852,918,o),
(729,800,o),
(582,800,cs),
(180,800,l)
);
}
);
width = 1070;
},
{
anchors = (
{
name = bottom;
pos = (394,0);
},
{
name = center;
pos = (493,700);
},
{
name = top;
pos = (591,1400);
}
);
hints = (
{
horizontal = 1;
place = (-141, -81);
place = (-141, -81);
type = Stem;
},
{
horizontal = 1;
place = (599, -81);
place = (599, -81);
type = Stem;
},
{
horizontal = 1;
place = (1199, -81);
place = (1199, -81);
type = Stem;
},
{
place = (-21, -81);
place = (-21, -81);
type = Stem;
},
{
place = (789, -81);
place = (789, -81);
type = Stem;
},
{
place = (711, -81);
place = (711, -81);
type = Stem;
}
);
layerId = m003;
shapes = (
{
closed = 1;
nodes = (
(449,0,ls),
(670,0,o),
(875,179,o),
(906,400,cs),
(930,572,o),
(842,718,o),
(698,775,c),
(814,829,o),
(904,941,o),
(922,1070,cs),
(947,1252,o),
(820,1400,o),
(638,1400,cs),
(176,1400,l),
(-21,0,l)
);
},
{
closed = 1;
nodes = (
(143,740,l),
(553,740,ls),
(736,740,o),
(873,594,o),
(846,400,cs),
(818,205,o),
(640,60,o),
(458,60,cs),
(48,60,l)
);
},
{
closed = 1;
nodes = (
(228,1340,l),
(630,1340,ls),
(780,1340,o),
(883,1219,o),
(862,1070,cs),
(840,918,o),
(701,800,o),
(554,800,cs),
(152,800,l)
);
}
);
width = 1070;
},
{
anchors = (
{
name = bottom;
pos = (462,0);
},
{
name = center;
pos = (561,700);
},
{
name = top;
pos = (659,1400);
}
);
hints = (
{
horizontal = 1;
place = (-141, 113);
place = (-141, 113);
type = Stem;
},
{
horizontal = 1;
place = (484, 109);
place = (484, 109);
type = Stem;
},
{
horizontal = 1;
place = (1259, 115);
place = (1259, 115);
type = Stem;
},
{
place = (-21, 159);
place = (-21, 159);
type = Stem;
},
{
place = (619, 159);
place = (619, 159);
type = Stem;
},
{
place = (719, 125);
place = (719, 125);
type = Stem;
}
);
layerId = m004;
shapes = (
{
closed = 1;
nodes = (
(585,0,ls),
(806,0,o),
(1011,179,o),
(1042,400,cs),
(1066,574,o),
(976,723,o),
(828,777,c),
(941,833,o),
(1028,943,o),
(1046,1070,cs),
(1071,1252,o),
(944,1400,o),
(762,1400,cs),
(176,1400,l),
(-21,0,l)
);
},
{
closed = 1;
nodes = (
(366,625,l),
(622,625,ls),
(724,625,o),
(796,542,o),
(781,436,cs),
(766,333,o),
(672,250,o),
(570,250,cs),
(314,250,l)
);
},
{
closed = 1;
nodes = (
(440,1150,l),
(647,1150,ls),
(721,1150,o),
(773,1090,o),
(761,1010,cs),
(751,935,o),
(682,875,o),
(608,875,cs),
(401,875,l)
);
}
);
width = 1206;
},
{
anchors = (
{
name = bottom;
pos = (558,0);
},
{
name = center;
pos = (558,700);
},
{
name = top;
pos = (558,1400);
}
);
hints = (
{
horizontal = 1;
place = (0, 125);
place = (0, 125);
type = Stem;
},
{
horizontal = 1;
place = (702, 123);
place = (702, 123);
type = Stem;
},
{
horizontal = 1;
place = (1360, 125);
place = (1360, 125);
type = Stem;
},
{
place = (120, 140);
place = (120, 140);
type = Stem;
},
{
place = (907, 129);
place = (907, 129);
type = Stem;
},
{
place = (821, 140);
place = (821, 140);
type = Stem;
}
);
layerId = "9C66D268-F658-4B53-B779-04C5E9DBD6C3";
shapes = (
{
closed = 1;
nodes = (
(635,0,ls),
(856,0,o),
(1035,179,o),
(1035,400,cs),
(1035,573,o),
(926,720,o),
(773,776,c),
(880,830,o),
(953,942,o),
(953,1070,cs),
(953,1252,o),
(805,1400,o),
(623,1400,cs),
(120,1400,l),
(120,0,l)
);
},
{
closed = 1;
nodes = (
(260,702,l),
(618,702,ls),
(774,702,o),
(907,577,o),
(907,412,cs),
(907,248,o),
(774,123,o),
(618,123,cs),
(260,123,l)
);
},
{
closed = 1;
nodes = (
(260,1277,l),
(597,1277,ls),
(721,1277,o),
(821,1176,o),
(821,1050,cs),
(821,924,o),
(719,825,o),
(597,825,cs),
(260,825,l)
);
}
);
width = 1115.33333;
},
{
anchors = (
{
name = bottom;
pos = (417,0);
},
{
name = center;
pos = (516,700);
},
{
name = top;
pos = (614,1400);
}
);
hints = (
{
horizontal = 1;
place = (-141, -16);
place = (-141, -16);
type = Stem;
},
{
horizontal = 1;
place = (561, -18);
place = (561, -18);
type = Stem;
},
{
horizontal = 1;
place = (1219, -16);
place = (1219, -16);
type = Stem;
},
{
place = (-21, -1);
place = (-21, -1);
type = Stem;
},
{
place = (766, -12);
place = (766, -12);
type = Stem;
},
{
place = (680, -1);
place = (680, -1);
type = Stem;
}
);
layerId = "6AFC1D6D-393E-4CF1-A9CC-89EE1F1F13FA";
shapes = (
{
closed = 1;
nodes = (
(494,0,ls),
(715,0,o),
(920,179,o),
(951,400,cs),
(975,573,o),
(887,720,o),
(741,776,c),
(856,830,o),
(945,942,o),
(963,1070,cs),
(988,1252,o),
(861,1400,o),
(679,1400,cs),
(176,1400,l),
(-21,0,l)
);
},
{
closed = 1;
nodes = (
(217,702,l),
(576,702,ls),
(732,702,o),
(847,577,o),
(824,412,cs),
(801,248,o),
(651,123,o),
(495,123,cs),
(137,123,l)
);
},
{
closed = 1;
nodes = (
(299,1277,l),
(636,1277,ls),
(760,1277,o),
(846,1176,o),
(828,1050,cs),
(810,924,o),
(695,825,o),
(572,825,cs),
(235,825,l)
);
}
);
width = 1115.33333;
}
);
metricLeft = H;
unicode = 66;
},
{
glyphname = C;
kernLeft = O;
kernRight = C;
lastChange = "2022-07-15 23:53:54 +0000";
layers = (
{
anchors = (
{
name = bottom;
pos = (748,0);
},
{
name = top;
pos = (748,1400);
}
);
hints = (
{
horizontal = 1;
origin = (0,25);
target = (0,6);
type = Stem;
},
{
horizontal = 1;
origin = (0,19);
target = (0,12);
type = Stem;
},
{
origin = (0,22);
target = (0,9);
type = Stem;
}
);
layerId = "10BC12B3-5274-42E3-B5BC-F74F362F0DF4";
shapes = (
{
closed = 1;
nodes = (
(974,-26,o),
(1172,88,o),
(1298,262,c),
(1030,408,l),
(960,326,o),
(860,274,o),
(748,274,cs),
(534,274,o),
(360,466,o),
(360,700,cs),
(360,936,o),
(534,1126,o),
(748,1126,cs),
(860,1126,o),
(960,1074,o),
(1030,994,c),
(1298,1138,l),
(1172,1312,o),
(974,1426,o),
(748,1426,cs),
(368,1426,o),
(60,1102,o),
(60,700,cs),
(60,300,o),
(368,-26,o),
(748,-26,cs)
);
}
);
width = 1398;
},
{
anchors = (
{
name = bottom;
pos = (748,0);
},
{
name = top;
pos = (748,1400);
}
);
hints = (
{
horizontal = 1;
origin = (0,25);
target = (0,6);
type = Stem;
},
{
horizontal = 1;
origin = (0,19);
target = (0,12);
type = Stem;
},
{
origin = (0,22);
target = (0,9);
type = Stem;
}
);
layerId = "9AF1F7D9-E035-453E-B2A8-46DE370997D0";
shapes = (
{
closed = 1;
nodes = (
(974,-26,o),
(1172,86,o),
(1298,262,c),
(1246,290,l),
(1136,138,o),
(952,34,o),
(748,34,cs),
(402,34,o),
(120,332,o),
(120,700,cs),
(120,1058,o),
(396,1366,o),
(748,1366,cs),
(942,1366,o),
(1132,1266,o),
(1246,1108,c),
(1298,1136,l),
(1172,1312,o),
(974,1426,o),
(748,1426,cs),
(368,1426,o),
(60,1100,o),
(60,700,cs),
(60,298,o),
(368,-26,o),
(748,-26,cs)
);
}
);
width = 1398;
},
{
anchors = (
{
name = bottom;
pos = (607,0);
},
{
name = top;
pos = (804,1400);
}
);
hints = (
{
horizontal = 1;
origin = (0,25);
target = (0,6);
type = Stem;
},
{
horizontal = 1;
origin = (0,19);
target = (0,12);
type = Stem;
},
{
origin = (0,22);
target = (0,9);
type = Stem;
}
);
layerId = m003;
shapes = (
{
closed = 1;
nodes = (
(830,-26,o),
(1044,86,o),
(1194,262,c),
(1146,290,l),
(1015,138,o),
(816,34,o),
(612,34,cs),
(266,34,o),
(26,332,o),
(78,700,cs),
(128,1058,o),
(447,1366,o),
(799,1366,cs),
(993,1366,o),
(1169,1266,o),
(1261,1108,c),
(1317,1136,l),
(1216,1312,o),
(1034,1426,o),
(808,1426,cs),
(428,1426,o),
(74,1100,o),
(18,700,cs),
(-39,298,o),
(224,-26,o),
(604,-26,cs)
);
}
);
width = 1398;
},
{
anchors = (
{
name = bottom;
pos = (607,0);
},
{
name = top;
pos = (804,1400);
}
);
hints = (
{
horizontal = 1;
origin = (0,25);
target = (0,6);
type = Stem;
},
{
horizontal = 1;
origin = (0,19);
target = (0,12);
type = Stem;
},
{
origin = (0,22);
target = (0,9);
type = Stem;
}
);
layerId = m004;
shapes = (
{
closed = 1;
nodes = (
(830,-26,o),
(1044,88,o),
(1194,262,c),
(947,408,l),
(865,326,o),
(758,274,o),
(646,274,cs),
(432,274,o),
(285,466,o),
(318,700,cs),
(351,936,o),
(552,1126,o),
(766,1126,cs),
(878,1126,o),
(970,1074,o),
(1029,994,c),
(1317,1138,l),
(1216,1312,o),
(1034,1426,o),
(808,1426,cs),
(428,1426,o),
(74,1102,o),
(18,700,cs),
(-38,300,o),
(224,-26,o),
(604,-26,cs)
);
}
);
width = 1398;
},
{
anchors = (
{
name = bottom;
pos = (748,0);
},
{
name = top;
pos = (748,1400);
}
);
hints = (
{
horizontal = 1;
origin = (0,25);
target = (0,6);
type = Stem;
},
{
horizontal = 1;
origin = (0,19);
target = (0,12);
type = Stem;
},
{
origin = (0,22);
target = (0,9);
type = Stem;
}
);
layerId = "9C66D268-F658-4B53-B779-04C5E9DBD6C3";
shapes = (
{
closed = 1;
nodes = (
(974,-26,o),
(1172,87,o),
(1298,262,c),
(1174,329,l),
(1077,201,o),
(921,114,o),
(748,114,cs),
(446,114,o),
(200,377,o),
(200,700,cs),
(200,1017,o),
(442,1286,o),
(748,1286,cs),
(915,1286,o),
(1075,1202,o),
(1174,1070,c),
(1298,1137,l),
(1172,1312,o),
(974,1426,o),
(748,1426,cs),
(368,1426,o),
(60,1101,o),
(60,700,cs),
(60,299,o),
(368,-26,o),
(748,-26,cs)
);
}
);
width = 1398;
},
{
anchors = (
{
name = bottom;
pos = (607,0);
},
{
name = top;
pos = (804,1400);
}
);
hints = (
{
horizontal = 1;
origin = (0,25);
target = (0,6);
type = Stem;
},
{
horizontal = 1;
origin = (0,19);
target = (0,12);
type = Stem;
},
{
origin = (0,22);
target = (0,9);
type = Stem;
}
);
layerId = "6AFC1D6D-393E-4CF1-A9CC-89EE1F1F13FA";
shapes = (
{
closed = 1;
nodes = (
(830,-26,o),
(1044,87,o),
(1194,262,c),
(1080,329,l),
(965,201,o),
(797,114,o),
(623,114,cs),
(321,114,o),
(112,377,o),
(158,700,cs),
(202,1017,o),
(482,1286,o),
(788,1286,cs),
(955,1286,o),
(1103,1202,o),
(1184,1070,c),
(1317,1137,l),
(1216,1312,o),
(1034,1426,o),
(808,1426,cs),
(428,1426,o),
(74,1101,o),
(18,700,cs),
(-39,299,o),
(224,-26,o),
(604,-26,cs)
);
}
);
width = 1398;
}
);
metricLeft = O;
unicode = 67;
},
{
glyphname = D;
kernLeft = H;
kernRight = O;
lastChange = "2022-07-15 23:53:54 +0000";
layers = (
{
anchors = (
{
name = bottom;
pos = (652,0);
},
{
name = center;
pos = (672,700);
},
{
name = top;
pos = (652,1400);
}
);
hints = (
{
horizontal = 1;
origin = (0,8);
target = (1,8);
type = Stem;
},
{
horizontal = 1;
origin = (0,7);
target = (1,0);
type = Stem;
},
{
origin = (0,8);
target = (1,8);
type = Stem;
},
{
origin = (1,4);
target = (0,3);
type = Stem;
}
);
layerId = "10BC12B3-5274-42E3-B5BC-F74F362F0DF4";
shapes = (
{
closed = 1;
nodes = (
(584,0,ls),
(970,0,o),
(1284,314,o),
(1284,700,cs),
(1284,1086,o),
(970,1400,o),
(584,1400,cs),
(120,1400,l),
(120,0,l)
);
},
{
closed = 1;
nodes = (
(420,1100,l),
(584,1100,ls),
(802,1100,o),
(984,920,o),
(984,700,cs),
(984,478,o),
(800,300,o),
(584,300,cs),
(420,300,l)
);
}
);
width = 1344;
},
{
anchors = (
{
name = bottom;
pos = (672,0);
},
{
name = center;
pos = (671,700);
},
{
name = top;
pos = (652,1400);
}
);
hints = (
{
horizontal = 1;
origin = (0,8);
target = (1,8);
type = Stem;
},
{
horizontal = 1;
origin = (0,7);
target = (1,0);
type = Stem;
},
{
origin = (0,8);
target = (1,8);
type = Stem;
},
{
origin = (1,4);
target = (0,3);
type = Stem;
}
);
layerId = "9AF1F7D9-E035-453E-B2A8-46DE370997D0";
shapes = (
{
closed = 1;
nodes = (
(582,0,ls),
(970,0,o),
(1282,314,o),
(1282,700,cs),
(1282,1086,o),
(970,1400,o),
(582,1400,cs),
(120,1400,l),
(120,0,l)
);
},
{
closed = 1;
nodes = (
(180,1340,l),
(582,1340,ls),
(936,1340,o),
(1222,1054,o),
(1222,700,cs),
(1222,346,o),
(938,60,o),
(582,60,cs),
(180,60,l)
);
}
);
width = 1342;
},
{
anchors = (
{
name = bottom;
pos = (531,0);
},
{
name = center;
pos = (629,700);
},
{
name = top;
pos = (708,1400);
}
);
hints = (
{
horizontal = 1;
origin = (0,8);
target = (1,8);
type = Stem;
},
{
horizontal = 1;
origin = (0,7);
target = (1,0);
type = Stem;
},
{
origin = (0,8);
target = (1,8);
type = Stem;
},
{
origin = (1,4);
target = (0,3);
type = Stem;
}
);
layerId = m003;
shapes = (
{
closed = 1;
nodes = (
(441,0,ls),
(829,0,o),
(1186,314,o),
(1240,700,cs),
(1294,1086,o),
(1026,1400,o),
(638,1400,cs),
(176,1400,l),
(-21,0,l)
);
},
{
closed = 1;
nodes = (
(228,1340,l),
(630,1340,ls),
(984,1340,o),
(1230,1054,o),
(1180,700,cs),
(1130,346,o),
(806,60,o),
(450,60,cs),
(48,60,l)
);
}
);
width = 1342;
},
{
anchors = (
{
name = bottom;
pos = (511,0);
},
{
name = center;
pos = (630,700);
},
{
name = top;
pos = (708,1400);
}
);
hints = (
{
horizontal = 1;
origin = (0,8);
target = (1,8);
type = Stem;
},
{
horizontal = 1;
origin = (0,7);
target = (1,0);
type = Stem;
},
{
origin = (0,8);
target = (1,8);
type = Stem;
},
{
origin = (1,4);
target = (0,3);
type = Stem;
}
);
layerId = m004;
shapes = (
{
closed = 1;
nodes = (
(443,0,ls),
(829,0,o),
(1188,314,o),
(1242,700,cs),
(1296,1086,o),
(1026,1400,o),
(640,1400,cs),
(176,1400,l),
(-21,0,l)
);
},
{
closed = 1;
nodes = (
(434,1100,l),
(598,1100,ls),
(816,1100,o),
(973,920,o),
(942,700,cs),
(911,478,o),
(702,300,o),
(486,300,cs),
(322,300,l)
);
}
);
width = 1344;
},
{
anchors = (
{
name = bottom;
pos = (665,0);
},
{
name = center;
pos = (671,700);
},
{
name = top;
pos = (652,1400);
}
);
hints = (
{
horizontal = 1;
origin = (0,8);
target = (1,8);
type = Stem;
},
{
horizontal = 1;
origin = (0,7);
target = (1,0);
type = Stem;
},
{
origin = (0,8);
target = (1,8);
type = Stem;
},
{
origin = (1,4);
target = (0,3);
type = Stem;
}
);
layerId = "9C66D268-F658-4B53-B779-04C5E9DBD6C3";
shapes = (
{
closed = 1;
nodes = (
(583,0,ls),
(970,0,o),
(1283,314,o),
(1283,700,cs),
(1283,1086,o),
(970,1400,o),
(583,1400,cs),
(120,1400,l),
(120,0,l)
);
},
{
closed = 1;
nodes = (
(260,1260,l),
(583,1260,ls),
(891,1260,o),
(1143,1009,o),
(1143,700,cs),
(1143,390,o),
(892,140,o),
(583,140,cs),
(260,140,l)
);
}
);
width = 1342.66667;
},
{
anchors = (
{
name = bottom;
pos = (524,0);
},
{
name = center;
pos = (629,700);
},
{
name = top;
pos = (708,1400);
}
);
hints = (
{
horizontal = 1;
origin = (0,8);
target = (1,8);
type = Stem;
},
{
horizontal = 1;
origin = (0,7);
target = (1,0);
type = Stem;
},
{
origin = (0,8);
target = (1,8);
type = Stem;
},
{
origin = (1,4);
target = (0,3);
type = Stem;
}
);
layerId = "6AFC1D6D-393E-4CF1-A9CC-89EE1F1F13FA";
shapes = (
{
closed = 1;
nodes = (
(442,0,ls),
(829,0,o),
(1187,314,o),
(1241,700,cs),
(1295,1086,o),
(1026,1400,o),
(639,1400,cs),
(176,1400,l),
(-21,0,l)
);
},
{
closed = 1;
nodes = (
(297,1260,l),
(619,1260,ls),
(928,1260,o),
(1144,1009,o),
(1101,700,cs),
(1057,390,o),
(771,140,o),
(462,140,cs),
(139,140,l)
);
}
);
width = 1342.66667;
}
);
metricLeft = H;
unicode = 68;
},
{
glyphname = Eth;
kernLeft = H;
kernRight = O;
lastChange = "2022-07-15 23:53:54 +0000";
layers = (
{
hints = (
{
horizontal = 1;
origin = (0,12);
target = (1,12);
type = Stem;
},
{
horizontal = 1;
origin = (0,10);
target = (0,9);
type = Stem;
},
{
horizontal = 1;
origin = (0,7);
target = (1,4);
type = Stem;
},
{
origin = (0,12);
target = (1,12);
type = Stem;
},
{
origin = (1,8);
target = (0,3);
type = Stem;
}
);
layerId = "10BC12B3-5274-42E3-B5BC-F74F362F0DF4";
shapes = (
{
closed = 1;
nodes = (
(702,0,ls),
(1088,0,o),
(1402,314,o),
(1402,700,cs),
(1402,1086,o),
(1088,1400,o),
(702,1400,cs),
(240,1400,l),
(240,900,l),
(100,900,l),
(100,600,l),
(240,600,l),
(240,0,l)
);
},
{
closed = 1;
nodes = (
(540,600,l),
(778,600,l),
(778,900,l),
(540,900,l),
(540,1100,l),
(702,1100,ls),
(922,1100,o),
(1102,920,o),
(1102,700,cs),
(1102,480,o),
(922,300,o),
(702,300,cs),
(540,300,l)
);
}
);
width = 1462;
},
{
hints = (
{
horizontal = 1;
origin = (0,12);
target = (1,12);
type = Stem;
},
{
horizontal = 1;
origin = (0,10);
target = (0,9);
type = Stem;
},
{
horizontal = 1;
origin = (0,7);
target = (1,4);
type = Stem;
},
{
origin = (0,12);
target = (1,12);
type = Stem;
},
{
origin = (1,8);
target = (0,3);
type = Stem;
}
);
layerId = "9AF1F7D9-E035-453E-B2A8-46DE370997D0";
shapes = (
{
closed = 1;
nodes = (
(692,0,ls),
(1078,0,o),
(1392,314,o),
(1392,700,cs),
(1392,1086,o),
(1078,1400,o),
(692,1400,cs),
(228,1400,l),
(228,780,l),
(100,780,l),
(100,720,l),
(228,720,l),
(228,0,l)
);
},
{
closed = 1;
nodes = (
(288,720,l),
(686,720,l),
(686,780,l),
(288,780,l),
(288,1340,l),
(692,1340,ls),
(1036,1340,o),
(1332,1060,o),
(1332,700,cs),
(1332,354,o),
(1052,60,o),
(692,60,cs),
(288,60,l)
);
}
);
width = 1452;
},
{
hints = (
{
horizontal = 1;
origin = (0,12);
target = (1,12);
type = Stem;
},
{
horizontal = 1;
origin = (0,10);
target = (0,9);
type = Stem;
},
{
horizontal = 1;
origin = (0,7);
target = (1,4);
type = Stem;
},
{
origin = (0,12);
target = (1,12);
type = Stem;
},
{
origin = (1,8);
target = (0,3);
type = Stem;
}
);
layerId = m003;
shapes = (
{
closed = 1;
nodes = (
(550,0,ls),
(936,0,o),
(1295,314,o),
(1349,700,cs),
(1403,1086,o),
(1133,1400,o),
(747,1400,cs),
(283,1400,l),
(196,780,l),
(68,780,l),
(60,720,l),
(188,720,l),
(86,0,l)
);
},
{
closed = 1;
nodes = (
(248,720,l),
(646,720,l),
(654,780,l),
(256,780,l),
(335,1340,l),
(739,1340,ls),
(1083,1340,o),
(1339,1060,o),
(1289,700,cs),
(1240,354,o),
(919,60,o),
(559,60,cs),
(155,60,l)
);
}
);
width = 1451;
},
{
hints = (
{
horizontal = 1;
origin = (0,12);
target = (1,12);
type = Stem;
},
{
horizontal = 1;
origin = (0,10);
target = (0,9);
type = Stem;
},
{
horizontal = 1;
origin = (0,7);
target = (1,4);
type = Stem;
},
{
origin = (0,12);
target = (1,12);
type = Stem;
},
{
origin = (1,8);
target = (0,3);
type = Stem;
}
);
layerId = m004;
shapes = (
{
closed = 1;
nodes = (
(560,0,ls),
(946,0,o),
(1305,314,o),
(1359,700,cs),
(1413,1086,o),
(1143,1400,o),
(757,1400,cs),
(295,1400,l),
(225,900,l),
(85,900,l),
(43,600,l),
(183,600,l),
(98,0,l)
);
},
{
closed = 1;
nodes = (
(483,600,l),
(721,600,l),
(763,900,l),
(525,900,l),
(553,1100,l),
(715,1100,ls),
(935,1100,o),
(1090,920,o),
(1059,700,cs),
(1028,480,o),
(823,300,o),
(603,300,cs),
(441,300,l)
);
}
);
width = 1461;
},
{
hints = (
{
horizontal = 1;
origin = (0,12);
target = (1,12);
type = Stem;
},
{
horizontal = 1;
origin = (0,10);
target = (0,9);
type = Stem;
},
{
horizontal = 1;
origin = (0,7);
target = (1,4);
type = Stem;
},
{
origin = (0,12);
target = (1,12);
type = Stem;
},
{
origin = (1,8);
target = (0,3);
type = Stem;
}
);
layerId = "9C66D268-F658-4B53-B779-04C5E9DBD6C3";
shapes = (
{
closed = 1;
nodes = (
(695,0,ls),
(1081,0,o),
(1395,314,o),
(1395,700,cs),
(1395,1086,o),
(1081,1400,o),
(695,1400,cs),
(232,1400,l),
(232,820,l),
(100,820,l),
(100,680,l),
(232,680,l),
(232,0,l)
);
},
{
closed = 1;
nodes = (
(372,680,l),
(717,680,l),
(717,820,l),
(372,820,l),
(372,1260,l),
(695,1260,ls),
(998,1260,o),
(1255,1013,o),
(1255,700,cs),
(1255,396,o),
(1009,140,o),
(695,140,cs),
(372,140,l)
);
}
);
width = 1455.33333;
},
{
hints = (
{
horizontal = 1;
origin = (0,12);
target = (1,12);
type = Stem;
},
{
horizontal = 1;
origin = (0,10);
target = (0,9);
type = Stem;
},
{
horizontal = 1;
origin = (0,7);
target = (1,4);
type = Stem;
},
{
origin = (0,12);
target = (1,12);
type = Stem;
},
{
origin = (1,8);
target = (0,3);
type = Stem;
}
);
layerId = "6AFC1D6D-393E-4CF1-A9CC-89EE1F1F13FA";
shapes = (
{
closed = 1;
nodes = (
(553,0,ls),
(939,0,o),
(1298,314,o),
(1352,700,cs),
(1406,1086,o),
(1136,1400,o),
(750,1400,cs),
(287,1400,l),
(206,820,l),
(74,820,l),
(54,680,l),
(186,680,l),
(90,0,l)
);
},
{
closed = 1;
nodes = (
(326,680,l),
(671,680,l),
(690,820,l),
(346,820,l),
(408,1260,l),
(731,1260,ls),
(1034,1260,o),
(1256,1013,o),
(1212,700,cs),
(1169,396,o),
(887,140,o),
(574,140,cs),
(250,140,l)
);
}
);
width = 1454.33333;
}
);
metricLeft = "=D-20";
metricRight = D;
unicode = 208;
},
{
glyphname = E;
kernLeft = H;
kernRight = E;
lastChange = "2022-07-15 23:53:54 +0000";
layers = (
{
anchors = (
{
name = bottom;
pos = (556,0);
},
{
name = ogonek;
pos = (910,0);
},
{
name = top;
pos = (556,1400);
},
{
name = topleft;
pos = (20,1400);
}
);
hints = (
{
horizontal = 1;
origin = (0,11);
target = (0,2);
type = Stem;
},
{
horizontal = 1;
origin = (0,3);
target = (0,6);
type = Stem;
},
{
horizontal = 1;
origin = (0,10);
target = (0,7);
type = Stem;
},
{
origin = (0,11);
target = (0,2);
type = Stem;
}
);
layerId = "10BC12B3-5274-42E3-B5BC-F74F362F0DF4";
shapes = (
{
closed = 1;
nodes = (
(1012,0,l),
(1012,300,l),
(420,300,l),
(420,600,l),
(876,600,l),
(876,900,l),
(420,900,l),
(420,1100,l),
(1012,1100,l),
(1012,1400,l),
(120,1400,l),
(120,0,l)
);
}
);
width = 1112;
},
{
anchors = (
{
name = bottom;
pos = (526,0);
},
{
name = ogonek;
pos = (823,0);
},
{
name = top;
pos = (526,1400);
},
{
name = topleft;
pos = (20,1400);
}
);
hints = (
{
horizontal = 1;
origin = (0,11);
target = (0,2);
type = Stem;
},
{
horizontal = 1;
origin = (0,3);
target = (0,6);
type = Stem;
},
{
horizontal = 1;
origin = (0,10);
target = (0,7);
type = Stem;
},
{
origin = (0,11);
target = (0,2);
type = Stem;
}
);
layerId = "9AF1F7D9-E035-453E-B2A8-46DE370997D0";
shapes = (
{
closed = 1;
nodes = (
(952,0,l),
(952,60,l),
(180,60,l),
(180,720,l),
(836,720,l),
(836,780,l),
(180,780,l),
(180,1340,l),
(952,1340,l),
(952,1400,l),
(120,1400,l),
(120,0,l)
);
}
);
width = 1052;
},
{
anchors = (
{
name = bottom;
pos = (385,0);
},
{
name = ogonek;
pos = (682,0);
},
{
name = top;
pos = (582,1400);
},
{
name = topleft;
pos = (76,1400);
}
);
hints = (
{
horizontal = 1;
origin = (0,11);
target = (0,2);
type = Stem;
},
{
horizontal = 1;
origin = (0,3);
target = (0,6);
type = Stem;
},
{
horizontal = 1;
origin = (0,10);
target = (0,7);
type = Stem;
},
{
origin = (0,11);
target = (0,2);
type = Stem;
}
);
layerId = m003;
shapes = (
{
closed = 1;
nodes = (
(811,0,l),
(820,60,l),
(48,60,l),
(141,720,l),
(797,720,l),
(805,780,l),
(149,780,l),
(228,1340,l),
(1000,1340,l),
(1008,1400,l),
(176,1400,l),
(-21,0,l)
);
}
);
width = 1052;
},
{
anchors = (
{
name = bottom;
pos = (415,0);
},
{
name = ogonek;
pos = (769,0);
},
{
name = top;
pos = (612,1400);
},
{
name = topleft;
pos = (76,1400);
}
);
hints = (
{
horizontal = 1;
origin = (0,11);
target = (0,2);
type = Stem;
},
{
horizontal = 1;
origin = (0,3);
target = (0,6);
type = Stem;
},
{
horizontal = 1;
origin = (0,10);
target = (0,7);
type = Stem;
},
{
origin = (0,11);
target = (0,2);
type = Stem;
}
);
layerId = m004;
shapes = (
{
closed = 1;
nodes = (
(871,0,l),
(914,300,l),
(322,300,l),
(364,600,l),
(820,600,l),
(862,900,l),
(406,900,l),
(434,1100,l),
(1026,1100,l),
(1068,1400,l),
(176,1400,l),
(-21,0,l)
);
}
);
width = 1112;
},
{
anchors = (
{
name = bottom;
pos = (536,0);
},
{
name = ogonek;
pos = (852,0);
},
{
name = top;
pos = (536,1400);
},
{
name = topleft;
pos = (20,1400);
}
);
hints = (
{
horizontal = 1;
origin = (0,11);
target = (0,2);
type = Stem;
},
{
horizontal = 1;
origin = (0,3);
target = (0,6);
type = Stem;
},
{
horizontal = 1;
origin = (0,10);
target = (0,7);
type = Stem;
},
{
origin = (0,11);
target = (0,2);
type = Stem;
}
);
layerId = "9C66D268-F658-4B53-B779-04C5E9DBD6C3";
shapes = (
{
closed = 1;
nodes = (
(972,0,l),
(972,140,l),
(260,140,l),
(260,680,l),
(849,680,l),
(849,820,l),
(260,820,l),
(260,1260,l),
(972,1260,l),
(972,1400,l),
(120,1400,l),
(120,0,l)
);
}
);
width = 1072;
},
{
anchors = (
{
name = bottom;
pos = (395,0);
},
{
name = ogonek;
pos = (711,0);
},
{
name = top;
pos = (592,1400);
},
{
name = topleft;
pos = (76,1400);
}
);
hints = (
{
horizontal = 1;
origin = (0,11);
target = (0,2);
type = Stem;
},
{
horizontal = 1;
origin = (0,3);
target = (0,6);
type = Stem;
},
{
horizontal = 1;
origin = (0,10);
target = (0,7);
type = Stem;
},
{
origin = (0,11);
target = (0,2);
type = Stem;
}
);
layerId = "6AFC1D6D-393E-4CF1-A9CC-89EE1F1F13FA";
shapes = (
{
closed = 1;
nodes = (
(831,0,l),
(851,140,l),
(139,140,l),
(215,680,l),
(805,680,l),
(824,820,l),
(235,820,l),
(297,1260,l),
(1009,1260,l),
(1028,1400,l),
(176,1400,l),
(-21,0,l)
);
}
);
width = 1072;
}
);
metricLeft = H;
unicode = 69;
},
{
glyphname = Schwa;
kernLeft = O;
kernRight = O;
lastChange = "2022-07-15 23:53:54 +0000";
layers = (
{
anchors = (
{
name = bottom;
pos = (748,0);
},
{
name = top;
pos = (748,1400);
}
);
layerId = "9AF1F7D9-E035-453E-B2A8-46DE370997D0";
shapes = (
{
closed = 1;
nodes = (
(1128,-26,o),
(1436,300,o),
(1436,700,cs),
(1436,1100,o),
(1128,1426,o),
(746,1426,cs),
(522,1426,o),
(322,1312,o),
(196,1138,c),
(250,1108,l),
(370,1272,o),
(556,1366,o),
(746,1366,cs),
(1112,1366,o),
(1395,1044,o),
(1374,642,c),
(60,642,l),
(84,272,o),
(386,-26,o),
(746,-26,cs)
);
},
{
closed = 1;
nodes = (
(432,34,o),
(174,282,o),
(128,582,c),
(1366,582,l),
(1313,273,o),
(1056,34,o),
(746,34,cs)
);
}
);
width = 1496;
},
{
anchors = (
{
name = bottom;
pos = (749,0);
},
{
name = top;
pos = (749,1400);
}
);
layerId = "10BC12B3-5274-42E3-B5BC-F74F362F0DF4";
shapes = (
{
closed = 1;
nodes = (
(1141,-26,o),
(1437,304,o),
(1437,702,cs),
(1437,1130,o),
(1099,1424,o),
(743,1424,cs),
(549,1424,o),
(351,1338,o),
(199,1136,c),
(467,992,l),
(549,1084,o),
(649,1126,o),
(747,1126,cs),
(936,1126,o),
(1115,971,o),
(1136,740,c),
(61,740,l),
(41,322,o),
(353,-26,o),
(749,-26,cs)
);
},
{
closed = 1;
nodes = (
(623,274,o),
(497,338,o),
(415,480,c),
(1083,480,l),
(1015,356,o),
(889,274,o),
(745,274,cs)
);
}
);
width = 1497;
},
{
anchors = (
{
name = bottom;
pos = (607,0);
},
{
name = top;
pos = (804,1400);
}
);
layerId = m003;
shapes = (
{
closed = 1;
nodes = (
(984,-26,o),
(1338,300,o),
(1394,700,cs),
(1450,1100,o),
(1188,1426,o),
(806,1426,cs),
(582,1426,o),
(366,1312,o),
(215,1138,c),
(265,1108,l),
(408,1272,o),
(607,1366,o),
(797,1366,cs),
(1163,1366,o),
(1401,1044,o),
(1324,642,c),
(10,642,l),
(-18,272,o),
(242,-26,o),
(602,-26,cs)
);
},
{
closed = 1;
nodes = (
(296,34,o),
(73,282,o),
(69,582,c),
(1307,582,l),
(1211,273,o),
(920,34,o),
(610,34,cs)
);
}
);
width = 1496;
},
{
anchors = (
{
name = bottom;
pos = (609,0);
},
{
name = top;
pos = (806,1400);
}
);
layerId = m004;
shapes = (
{
closed = 1;
nodes = (
(998,-26,o),
(1340,304,o),
(1396,702,cs),
(1456,1130,o),
(1160,1424,o),
(804,1424,cs),
(610,1424,o),
(400,1338,o),
(219,1136,c),
(467,992,l),
(562,1084,o),
(668,1126,o),
(766,1126,cs),
(955,1126,o),
(1112,971,o),
(1100,740,c),
(25,740,l),
(-53,322,o),
(210,-26,o),
(606,-26,cs)
);
},
{
closed = 1;
nodes = (
(522,274,o),
(405,338,o),
(343,480,c),
(1011,480,l),
(925,356,o),
(788,274,o),
(644,274,cs)
);
}
);
width = 1498;
},
{
anchors = (
{
name = bottom;
pos = (748,0);
},
{
name = top;
pos = (748,1400);
}
);
layerId = "9C66D268-F658-4B53-B779-04C5E9DBD6C3";
shapes = (
{
closed = 1;
nodes = (
(1132,-26,o),
(1436,301,o),
(1436,701,cs),
(1436,1110,o),
(1118,1425,o),
(745,1425,cs),
(531,1425,o),
(332,1321,o),
(197,1137,c),
(322,1069,l),
(430,1209,o),
(587,1286,o),
(746,1286,cs),
(1053,1286,o),
(1302,1020,o),
(1295,675,c),
(60,675,l),
(70,289,o),
(375,-26,o),
(747,-26,cs)
);
},
{
closed = 1;
nodes = (
(496,114,o),
(282,301,o),
(224,548,c),
(1272,548,l),
(1214,301,o),
(1000,114,o),
(746,114,cs)
);
}
);
width = 1496.33333;
},
{
anchors = (
{
name = bottom;
pos = (608,0);
},
{
name = top;
pos = (805,1400);
}
);
layerId = "6AFC1D6D-393E-4CF1-A9CC-89EE1F1F13FA";
shapes = (
{
closed = 1;
nodes = (
(989,-26,o),
(1339,301,o),
(1395,701,cs),
(1452,1110,o),
(1179,1425,o),
(805,1425,cs),
(591,1425,o),
(377,1321,o),
(216,1137,c),
(332,1069,l),
(459,1209,o),
(627,1286,o),
(787,1286,cs),
(1094,1286,o),
(1305,1020,o),
(1249,675,c),
(15,675,l),
(-30,289,o),
(231,-26,o),
(603,-26,cs)
);
},
{
closed = 1;
nodes = (
(371,114,o),
(184,301,o),
(160,548,c),
(1208,548,l),
(1116,301,o),
(876,114,o),
(621,114,cs)
);
}
);
width = 1496.66667;
}
);
metricLeft = O;
metricRight = O;
unicode = 399;
},
{
glyphname = F;
kernLeft = H;
kernRight = F;
lastChange = "2022-07-15 23:53:54 +0000";
layers = (
{
anchors = (
{
name = bottom;
pos = (486,0);
},
{
name = top;
pos = (486,1400);
}
);
hints = (
{
horizontal = 1;
origin = (0,9);
target = up;
type = BottomGhost;
},
{
horizontal = 1;
origin = (0,1);
target = (0,4);
type = Stem;
},
{
horizontal = 1;
origin = (0,8);
target = (0,5);
type = Stem;
},
{
origin = (0,9);
target = (0,0);
type = Stem;
}
);
layerId = "10BC12B3-5274-42E3-B5BC-F74F362F0DF4";
shapes = (
{
closed = 1;
nodes = (
(420,0,l),
(420,600,l),
(856,600,l),
(856,900,l),
(420,900,l),
(420,1100,l),
(952,1100,l),
(952,1400,l),
(120,1400,l),
(120,0,l)
);
}
);
width = 972;
},
{
anchors = (
{
name = bottom;
pos = (476,0);
},
{
name = top;
pos = (476,1400);
}
);
hints = (
{
horizontal = 1;
origin = (0,9);
target = up;
type = BottomGhost;
},
{
horizontal = 1;
origin = (0,1);
target = (0,4);
type = Stem;
},
{
horizontal = 1;
origin = (0,8);
target = (0,5);
type = Stem;
},
{
origin = (0,9);
target = (0,0);
type = Stem;
}
);
layerId = "9AF1F7D9-E035-453E-B2A8-46DE370997D0";
shapes = (
{
closed = 1;
nodes = (
(180,0,l),
(180,720,l),
(836,720,l),
(836,780,l),
(180,780,l),
(180,1340,l),
(932,1340,l),
(932,1400,l),
(120,1400,l),
(120,0,l)
);
}
);
width = 952;
},
{
anchors = (
{
name = bottom;
pos = (335,0);
},
{
name = top;
pos = (532,1400);
}
);
hints = (
{
horizontal = 1;
origin = (0,9);
target = up;
type = BottomGhost;
},
{
horizontal = 1;
origin = (0,1);
target = (0,4);
type = Stem;
},
{
horizontal = 1;
origin = (0,8);
target = (0,5);
type = Stem;
},
{
origin = (0,9);
target = (0,0);
type = Stem;
}
);
layerId = m003;
shapes = (
{
closed = 1;
nodes = (
(39,0,l),
(141,720,l),
(797,720,l),
(805,780,l),
(149,780,l),
(228,1340,l),
(980,1340,l),
(988,1400,l),
(176,1400,l),
(-21,0,l)
);
}
);
width = 952;
},
{
anchors = (
{
name = bottom;
pos = (345,0);
},
{
name = top;
pos = (542,1400);
}
);
hints = (
{
horizontal = 1;
origin = (0,9);
target = up;
type = BottomGhost;
},
{
horizontal = 1;
origin = (0,1);
target = (0,4);
type = Stem;
},
{
horizontal = 1;
origin = (0,8);
target = (0,5);
type = Stem;
},
{
origin = (0,9);
target = (0,0);
type = Stem;
}
);
layerId = m004;
shapes = (
{
closed = 1;
nodes = (
(279,0,l),
(364,600,l),
(800,600,l),
(842,900,l),
(406,900,l),
(434,1100,l),
(966,1100,l),
(1008,1400,l),
(176,1400,l),
(-21,0,l)
);
}
);
width = 972;
},
{
anchors = (
{
name = bottom;
pos = (479,0);
},
{
name = top;
pos = (479,1400);
}
);
hints = (
{
horizontal = 1;
origin = (0,9);
target = up;
type = BottomGhost;
},
{
horizontal = 1;
origin = (0,1);
target = (0,4);
type = Stem;
},
{
horizontal = 1;
origin = (0,8);
target = (0,5);
type = Stem;
},
{
origin = (0,9);
target = (0,0);
type = Stem;
}
);
layerId = "9C66D268-F658-4B53-B779-04C5E9DBD6C3";
shapes = (
{
closed = 1;
nodes = (
(260,0,l),
(260,680,l),
(843,680,l),
(843,820,l),
(260,820,l),
(260,1260,l),
(939,1260,l),
(939,1400,l),
(120,1400,l),
(120,0,l)
);
}
);
width = 958.66667;
},
{
anchors = (
{
name = bottom;
pos = (338,0);
},
{
name = top;
pos = (535,1400);
}
);
hints = (
{
horizontal = 1;
origin = (0,9);
target = up;
type = BottomGhost;
},
{
horizontal = 1;
origin = (0,1);
target = (0,4);
type = Stem;
},
{
horizontal = 1;
origin = (0,8);
target = (0,5);
type = Stem;
},
{
origin = (0,9);
target = (0,0);
type = Stem;
}
);
layerId = "6AFC1D6D-393E-4CF1-A9CC-89EE1F1F13FA";
shapes = (
{
closed = 1;
nodes = (
(119,0,l),
(215,680,l),
(798,680,l),
(817,820,l),
(235,820,l),
(297,1260,l),
(975,1260,l),
(995,1400,l),
(176,1400,l),
(-21,0,l)
);
}
);
width = 958.66667;
}
);
metricLeft = H;
unicode = 70;
},
{
glyphname = G;
kernLeft = O;
kernRight = O;
lastChange = "2022-07-15 23:54:02 +0000";
layers = (
{
anchors = (
{
name = bottom;
pos = (749,0);
},
{
name = top;
pos = (749,1400);
}
);
hints = (
{
horizontal = 1;
origin = (0,27);
target = (0,8);
type = Stem;
},
{
horizontal = 1;
origin = (0,4);
target = (0,3);
type = Stem;
},
{
horizontal = 1;
origin = (0,21);
target = (0,14);
type = Stem;
},
{
origin = (0,24);
target = (0,11);
type = Stem;
}
);
layerId = "10BC12B3-5274-42E3-B5BC-F74F362F0DF4";
shapes = (
{
closed = 1;
nodes = (
(1144,-26,o),
(1456,322,o),
(1436,740,c),
(894,740,l),
(894,480,l),
(1082,480,l),
(1000,338,o),
(874,274,o),
(752,274,cs),
(536,274,o),
(360,460,o),
(360,696,cs),
(360,952,o),
(550,1126,o),
(750,1126,cs),
(848,1126,o),
(948,1084,o),
(1030,992,c),
(1298,1136,l),
(1146,1338,o),
(948,1424,o),
(754,1424,cs),
(398,1424,o),
(60,1130,o),
(60,702,cs),
(60,304,o),
(356,-26,o),
(748,-26,cs)
);
}
);
width = 1497;
},
{
anchors = (
{
name = bottom;
pos = (748,0);
},
{
name = top;
pos = (750,1400);
}
);
hints = (
{
horizontal = 1;
origin = (0,27);
target = (0,8);
type = Stem;
},
{
horizontal = 1;
origin = (0,4);
target = (0,3);
type = Stem;
},
{
horizontal = 1;
origin = (0,21);
target = (0,14);
type = Stem;
},
{
origin = (0,24);
target = (0,11);
type = Stem;
}
);
layerId = "9AF1F7D9-E035-453E-B2A8-46DE370997D0";
shapes = (
{
closed = 1;
nodes = (
(1110,-26,o),
(1412,272,o),
(1436,642,c),
(896,642,l),
(896,582,l),
(1368,582,l),
(1322,282,o),
(1064,34,o),
(750,34,cs),
(402,34,o),
(120,336,o),
(120,700,cs),
(120,1058,o),
(398,1366,o),
(750,1366,cs),
(940,1366,o),
(1126,1272,o),
(1246,1108,c),
(1300,1138,l),
(1174,1312,o),
(974,1426,o),
(750,1426,cs),
(368,1426,o),
(60,1100,o),
(60,700,cs),
(60,300,o),
(368,-26,o),
(750,-26,cs)
);
}
);
width = 1496;
},
{
anchors = (
{
name = bottom;
pos = (607,0);
},
{
name = top;
pos = (806,1400);
}
);
hints = (
{
horizontal = 1;
origin = (0,27);
target = (0,8);
type = Stem;
},
{
horizontal = 1;
origin = (0,4);
target = (0,3);
type = Stem;
},
{
horizontal = 1;
origin = (0,21);
target = (0,14);
type = Stem;
},
{
origin = (0,24);
target = (0,11);
type = Stem;
}
);
layerId = m003;
shapes = (
{
closed = 1;
nodes = (
(966,-26,o),
(1310,272,o),
(1386,642,c),
(846,642,l),
(837,582,l),
(1309,582,l),
(1221,282,o),
(928,34,o),
(614,34,cs),
(266,34,o),
(27,336,o),
(78,700,cs),
(128,1058,o),
(449,1366,o),
(801,1366,cs),
(991,1366,o),
(1164,1272,o),
(1261,1108,c),
(1319,1138,l),
(1218,1312,o),
(1034,1426,o),
(810,1426,cs),
(428,1426,o),
(74,1100,o),
(18,700,cs),
(-38,300,o),
(224,-26,o),
(606,-26,cs)
);
}
);
width = 1496;
},
{
anchors = (
{
name = bottom;
pos = (608,0);
},
{
name = top;
pos = (805,1400);
}
);
hints = (
{
horizontal = 1;
origin = (0,27);
target = (0,8);
type = Stem;
},
{
horizontal = 1;
origin = (0,4);
target = (0,3);
type = Stem;
},
{
horizontal = 1;
origin = (0,21);
target = (0,14);
type = Stem;
},
{
origin = (0,24);
target = (0,11);
type = Stem;
}
);
layerId = m004;
shapes = (
{
closed = 1;
nodes = (
(1000,-26,o),
(1361,322,o),
(1399,740,c),
(857,740,l),
(821,480,l),
(1009,480,l),
(907,338,o),
(772,274,o),
(650,274,cs),
(434,274,o),
(284,460,o),
(317,696,cs),
(353,952,o),
(568,1126,o),
(768,1126,cs),
(866,1126,o),
(960,1084,o),
(1029,992,c),
(1317,1136,l),
(1194,1338,o),
(1008,1424,o),
(814,1424,cs),
(458,1424,o),
(78,1130,o),
(18,702,cs),
(-38,304,o),
(212,-26,o),
(604,-26,cs)
);
}
);
width = 1496;
},
{
anchors = (
{
name = bottom;
pos = (748,0);
},
{
name = top;
pos = (750,1400);
}
);
hints = (
{
horizontal = 1;
origin = (0,27);
target = (0,8);
type = Stem;
},
{
horizontal = 1;
origin = (0,4);
target = (0,3);
type = Stem;
},
{
horizontal = 1;
origin = (0,21);
target = (0,14);
type = Stem;
},
{
origin = (0,24);
target = (0,11);
type = Stem;
}
);
layerId = "9C66D268-F658-4B53-B779-04C5E9DBD6C3";
shapes = (
{
closed = 1;
nodes = (
(1121,-26,o),
(1427,289,o),
(1436,675,c),
(895,675,l),
(895,548,l),
(1273,548,l),
(1215,301,o),
(1001,114,o),
(751,114,cs),
(447,114,o),
(200,377,o),
(200,699,cs),
(200,1023,o),
(449,1286,o),
(750,1286,cs),
(909,1286,o),
(1067,1209,o),
(1174,1069,c),
(1299,1137,l),
(1165,1321,o),
(965,1425,o),
(751,1425,cs),
(378,1425,o),
(60,1110,o),
(60,701,cs),
(60,301,o),
(364,-26,o),
(749,-26,cs)
);
}
);
width = 1496.33333;
},
{
anchors = (
{
name = bottom;
pos = (607,0);
},
{
name = top;
pos = (806,1400);
}
);
hints = (
{
horizontal = 1;
origin = (0,27);
target = (0,8);
type = Stem;
},
{
horizontal = 1;
origin = (0,4);
target = (0,3);
type = Stem;
},
{
horizontal = 1;
origin = (0,21);
target = (0,14);
type = Stem;
},
{
origin = (0,24);
target = (0,11);
type = Stem;
}
);
layerId = "6AFC1D6D-393E-4CF1-A9CC-89EE1F1F13FA";
shapes = (
{
closed = 1;
nodes = (
(977,-26,o),
(1327,289,o),
(1390,675,c),
(850,675,l),
(832,548,l),
(1209,548,l),
(1116,301,o),
(876,114,o),
(626,114,cs),
(322,114,o),
(113,377,o),
(158,699,cs),
(203,1023,o),
(489,1286,o),
(790,1286,cs),
(949,1286,o),
(1096,1209,o),
(1184,1069,c),
(1318,1137,l),
(1210,1321,o),
(1025,1425,o),
(811,1425,cs),
(438,1425,o),
(75,1110,o),
(18,701,cs),
(-38,301,o),
(220,-26,o),
(605,-26,cs)
);
}
);
width = 1495;
}
);
metricLeft = O;
metricRight = O;
unicode = 71;
},
{
glyphname = H;
kernLeft = H;
kernRight = H;
lastChange = "2022-07-15 23:53:54 +0000";
layers = (
{
anchors = (
{
name = bottom;
pos = (668,0);
},
{
name = center;
pos = (668,700);
},
{
name = top;
pos = (668,1400);
},
{
name = topleft;
pos = (20,1400);
}
);
hints = (
{
horizontal = 1;
origin = (0,4);
target = up;
type = BottomGhost;
},
{
horizontal = 1;
origin = (0,6);
target = (0,1);
type = Stem;
},
{
horizontal = 1;
origin = (0,3);
target = down;
type = TopGhost;
},
{
origin = (0,4);
target = (0,5);
type = Stem;
},
{
origin = (0,8);
target = (0,9);
type = Stem;
}
);
layerId = "10BC12B3-5274-42E3-B5BC-F74F362F0DF4";
shapes = (
{
closed = 1;
nodes = (
(916,900,l),
(420,900,l),
(420,1400,l),
(120,1400,l),
(120,0,l),
(420,0,l),
(420,600,l),
(916,600,l),
(916,0,l),
(1216,0,l),
(1216,1400,l),
(916,1400,l)
);
}
);
width = 1336;
},
{
anchors = (
{
name = bottom;
pos = (607,0);
},
{
name = center;
pos = (607,700);
},
{
name = top;
pos = (607,1400);
},
{
name = topleft;
pos = (20,1400);
}
);
hints = (
{
horizontal = 1;
origin = (0,4);
target = up;
type = BottomGhost;
},
{
horizontal = 1;
origin = (0,6);
target = (0,1);
type = Stem;
},
{
horizontal = 1;
origin = (0,3);
target = down;
type = TopGhost;
},
{
origin = (0,4);
target = (0,5);
type = Stem;
},
{
origin = (0,8);
target = (0,9);
type = Stem;
}
);
layerId = "9AF1F7D9-E035-453E-B2A8-46DE370997D0";
shapes = (
{
closed = 1;
nodes = (
(1034,780,l),
(180,780,l),
(180,1400,l),
(120,1400,l),
(120,0,l),
(180,0,l),
(180,720,l),
(1034,720,l),
(1034,0,l),
(1094,0,l),
(1094,1400,l),
(1034,1400,l)
);
}
);
width = 1214;
},
{
anchors = (
{
name = bottom;
pos = (466,0);
},
{
name = center;
pos = (565,700);
},
{
name = top;
pos = (663,1400);
},
{
name = topleft;
pos = (76,1400);
}
);
hints = (
{
horizontal = 1;
origin = (0,4);
target = up;
type = BottomGhost;
},
{
horizontal = 1;
origin = (0,6);
target = (0,1);
type = Stem;
},
{
horizontal = 1;
origin = (0,3);
target = down;
type = TopGhost;
},
{
origin = (0,4);
target = (0,5);
type = Stem;
},
{
origin = (0,8);
target = (0,9);
type = Stem;
}
);
layerId = m003;
shapes = (
{
closed = 1;
nodes = (
(1003,780,l),
(149,780,l),
(236,1400,l),
(176,1400,l),
(-21,0,l),
(39,0,l),
(141,720,l),
(995,720,l),
(893,0,l),
(953,0,l),
(1150,1400,l),
(1090,1400,l)
);
}
);
width = 1214;
},
{
anchors = (
{
name = bottom;
pos = (527,0);
},
{
name = center;
pos = (626,700);
},
{
name = top;
pos = (724,1400);
},
{
name = topleft;
pos = (76,1400);
}
);
hints = (
{
horizontal = 1;
origin = (0,4);
target = up;
type = BottomGhost;
},
{
horizontal = 1;
origin = (0,6);
target = (0,1);
type = Stem;
},
{
horizontal = 1;
origin = (0,3);
target = down;
type = TopGhost;
},
{
origin = (0,4);
target = (0,5);
type = Stem;
},
{
origin = (0,8);
target = (0,9);
type = Stem;
}
);
layerId = m004;
shapes = (
{
closed = 1;
nodes = (
(902,900,l),
(406,900,l),
(476,1400,l),
(176,1400,l),
(-21,0,l),
(279,0,l),
(364,600,l),
(860,600,l),
(775,0,l),
(1075,0,l),
(1272,1400,l),
(972,1400,l)
);
}
);
width = 1336;
},
{
anchors = (
{
name = bottom;
pos = (627,0);
},
{
name = center;
pos = (627,700);
},
{
name = top;
pos = (627,1400);
},
{
name = topleft;
pos = (20,1400);
}
);
hints = (
{
horizontal = 1;
origin = (0,4);
target = up;
type = BottomGhost;
},
{
horizontal = 1;
origin = (0,6);
target = (0,1);
type = Stem;
},
{
horizontal = 1;
origin = (0,3);
target = down;
type = TopGhost;
},
{
origin = (0,4);
target = (0,5);
type = Stem;
},
{
origin = (0,8);
target = (0,9);
type = Stem;
}
);
layerId = "9C66D268-F658-4B53-B779-04C5E9DBD6C3";
shapes = (
{
closed = 1;
nodes = (
(995,820,l),
(260,820,l),
(260,1400,l),
(120,1400,l),
(120,0,l),
(260,0,l),
(260,680,l),
(995,680,l),
(995,0,l),
(1135,0,l),
(1135,1400,l),
(995,1400,l)
);
}
);
width = 1254.66667;
},
{
anchors = (
{
name = bottom;
pos = (486,0);
},
{
name = center;
pos = (585,700);
},
{
name = top;
pos = (683,1400);
},
{
name = topleft;
pos = (76,1400);
}
);
hints = (
{
horizontal = 1;
origin = (0,4);
target = up;
type = BottomGhost;
},
{
horizontal = 1;
origin = (0,6);
target = (0,1);
type = Stem;
},
{
horizontal = 1;
origin = (0,3);
target = down;
type = TopGhost;
},
{
origin = (0,4);
target = (0,5);
type = Stem;
},
{
origin = (0,8);
target = (0,9);
type = Stem;
}
);
layerId = "6AFC1D6D-393E-4CF1-A9CC-89EE1F1F13FA";
shapes = (
{
closed = 1;
nodes = (
(969,820,l),
(235,820,l),
(316,1400,l),
(176,1400,l),
(-21,0,l),
(119,0,l),
(215,680,l),
(950,680,l),
(854,0,l),
(994,0,l),
(1191,1400,l),
(1051,1400,l)
);
}
);
width = 1254.66667;
}
);
unicode = 72;
},
{
glyphname = Hbar;
kernLeft = H;
kernRight = H;
lastChange = "2022-07-15 23:53:54 +0000";
layers = (
{
layerId = "9AF1F7D9-E035-453E-B2A8-46DE370997D0";
shapes = (
{
ref = H;
},
{
closed = 1;
nodes = (
(20,1202,l),
(1197,1202,l),
(1197,1262,l),
(20,1262,l)
);
}
);
width = 1217;
},
{
layerId = "10BC12B3-5274-42E3-B5BC-F74F362F0DF4";
shapes = (
{
ref = H;
},
{
closed = 1;
nodes = (
(20,1042,l),
(1315,1042,l),
(1315,1342,l),
(20,1342,l)
);
}
);
width = 1335;
},
{
layerId = m003;
shapes = (
{
ref = H;
},
{
closed = 1;
nodes = (
(48,1202,l),
(1225,1202,l),
(1234,1262,l),
(57,1262,l)
);
}
);
width = 1217;
},
{
layerId = m004;
shapes = (
{
pos = (-1,0);
ref = H;
},
{
closed = 1;
nodes = (
(25,1042,l),
(1320,1042,l),
(1362,1342,l),
(67,1342,l)
);
}
);
width = 1334;
},
{
layerId = "9C66D268-F658-4B53-B779-04C5E9DBD6C3";
shapes = (
{
alignment = -1;
ref = H;
},
{
closed = 1;
nodes = (
(20,1149,l),
(1236,1149,l),
(1236,1289,l),
(20,1289,l)
);
}
);
width = 1256.33333;
},
{
layerId = "6AFC1D6D-393E-4CF1-A9CC-89EE1F1F13FA";
shapes = (
{
alignment = -1;
ref = H;
},
{
closed = 1;
nodes = (
(40,1149,l),
(1257,1149,l),
(1277,1289,l),
(60,1289,l)
);
}
);
width = 1256;
}
);
metricLeft = "=H-100";
metricRight = "=H-100";
unicode = 294;
},
{
glyphname = I;
kernLeft = H;
kernRight = H;
lastChange = "2022-07-15 23:53:54 +0000";
layers = (
{
anchors = (
{
name = bottom;
pos = (300,0);
},
{
name = ogonek;
pos = (450,0);
},
{
name = top;
pos = (300,1400);
},
{
name = topleft;
pos = (20,1400);
}
);
hints = (
{
horizontal = 1;
origin = (0,3);
target = up;
type = BottomGhost;
},
{
horizontal = 1;
origin = (0,2);
target = down;
type = TopGhost;
},
{
origin = (0,3);
target = (0,0);
type = Stem;
}
);
layerId = "10BC12B3-5274-42E3-B5BC-F74F362F0DF4";
shapes = (
{
closed = 1;
nodes = (
(450,0,l),
(450,1400,l),
(150,1400,l),
(150,0,l)
);
}
);
width = 600;
},
{
anchors = (
{
name = bottom;
pos = (180,0);
},
{
name = ogonek;
pos = (210,0);
},
{
name = top;
pos = (180,1400);
},
{
name = topleft;
pos = (20,1400);
}
);
hints = (
{
horizontal = 1;
origin = (0,3);
target = up;
type = BottomGhost;
},
{
horizontal = 1;
origin = (0,2);
target = down;
type = TopGhost;
},
{
origin = (0,3);
target = (0,0);
type = Stem;
}
);
layerId = "9AF1F7D9-E035-453E-B2A8-46DE370997D0";
shapes = (
{
closed = 1;
nodes = (
(210,0,l),
(210,1400,l),
(150,1400,l),
(150,0,l)
);
}
);
width = 360;
},
{
anchors = (
{
name = bottom;
pos = (39,0);
},
{
name = ogonek;
pos = (69,0);
},
{
name = top;
pos = (236,1400);
},
{
name = topleft;
pos = (76,1400);
}
);
hints = (
{
horizontal = 1;
origin = (0,3);
target = up;
type = BottomGhost;
},
{
horizontal = 1;
origin = (0,2);
target = down;
type = TopGhost;
},
{
origin = (0,3);
target = (0,0);
type = Stem;
}
);
layerId = m003;
shapes = (
{
closed = 1;
nodes = (
(69,0,l),
(266,1400,l),
(206,1400,l),
(9,0,l)
);
}
);
width = 360;
},
{
anchors = (
{
name = bottom;
pos = (159,0);
},
{
name = ogonek;
pos = (309,0);
},
{
name = top;
pos = (356,1400);
},
{
name = topleft;
pos = (76,1400);
}
);
hints = (
{
horizontal = 1;
origin = (0,3);
target = up;
type = BottomGhost;
},
{
horizontal = 1;
origin = (0,2);
target = down;
type = TopGhost;
},
{
origin = (0,3);
target = (0,0);
type = Stem;
}
);
layerId = m004;
shapes = (
{
closed = 1;
nodes = (
(309,0,l),
(506,1400,l),
(206,1400,l),
(9,0,l)
);
}
);
width = 600;
},
{
anchors = (
{
name = bottom;
pos = (220,0);
},
{
name = ogonek;
pos = (290,0);
},
{
name = top;
pos = (220,1400);
},
{
name = topleft;
pos = (20,1400);
}
);
hints = (
{
horizontal = 1;
origin = (0,3);
target = up;
type = BottomGhost;
},
{
horizontal = 1;
origin = (0,2);
target = down;
type = TopGhost;
},
{
origin = (0,3);
target = (0,0);
type = Stem;
}
);
layerId = "9C66D268-F658-4B53-B779-04C5E9DBD6C3";
shapes = (
{
closed = 1;
nodes = (
(290,0,l),
(290,1400,l),
(150,1400,l),
(150,0,l)
);
}
);
width = 440;
},
{
anchors = (
{
name = bottom;
pos = (79,0);
},
{
name = ogonek;
pos = (149,0);
},
{
name = top;
pos = (276,1400);
},
{
name = topleft;
pos = (76,1400);
}
);
hints = (
{
horizontal = 1;
origin = (0,3);
target = up;
type = BottomGhost;
},
{
horizontal = 1;
origin = (0,2);
target = down;
type = TopGhost;
},
{
origin = (0,3);
target = (0,0);
type = Stem;
}
);
layerId = "6AFC1D6D-393E-4CF1-A9CC-89EE1F1F13FA";
shapes = (
{
closed = 1;
nodes = (
(149,0,l),
(346,1400,l),
(206,1400,l),
(9,0,l)
);
}
);
width = 440;
}
);
unicode = 73;
},
{
glyphname = J;
kernLeft = J;
kernRight = J;
lastChange = "2022-07-15 23:53:54 +0000";
layers = (
{
anchors = (
{
name = bottom;
pos = (467,0);
},
{
name = top;
pos = (664,1400);
}
);
hints = (
{
horizontal = 1;
origin = (0,15);
target = (0,8);
type = Stem;
},
{
horizontal = 1;
origin = (0,4);
target = down;
type = TopGhost;
},
{
origin = (0,5);
target = (0,2);
type = Stem;
}
);
layerId = "10BC12B3-5274-42E3-B5BC-F74F362F0DF4";
shapes = (
{
closed = 1;
nodes = (
(602,-26,o),
(814,186,o),
(814,446,cs),
(814,1400,l),
(514,1400,l),
(514,446,ls),
(514,352,o),
(436,274,o),
(342,274,cs),
(290,274,o),
(254,296,o),
(232,314,c),
(40,84,l),
(124,12,o),
(232,-26,o),
(342,-26,cs)
);
}
);
width = 934;
},
{
anchors = (
{
name = bottom;
pos = (369,0);
},
{
name = top;
pos = (588,1400);
}
);
hints = (
{
horizontal = 1;
origin = (0,15);
target = (0,8);
type = Stem;
},
{
horizontal = 1;
origin = (0,4);
target = down;
type = TopGhost;
},
{
origin = (0,5);
target = (0,2);
type = Stem;
}
);
layerId = "9AF1F7D9-E035-453E-B2A8-46DE370997D0";
shapes = (
{
closed = 1;
nodes = (
(460,-26,o),
(618,152,o),
(618,346,cs),
(618,1400,l),
(558,1400,l),
(558,346,ls),
(558,184,o),
(426,34,o),
(264,34,cs),
(196,34,o),
(130,58,o),
(78,102,c),
(40,56,l),
(104,0,o),
(182,-26,o),
(264,-26,cs)
);
}
);
width = 738;
},
{
anchors = (
{
name = bottom;
pos = (228,0);
},
{
name = top;
pos = (644,1400);
}
);
hints = (
{
horizontal = 1;
origin = (0,15);
target = (0,8);
type = Stem;
},
{
horizontal = 1;
origin = (0,4);
target = down;
type = TopGhost;
},
{
origin = (0,5);
target = (0,2);
type = Stem;
}
);
layerId = m003;
shapes = (
{
closed = 1;
nodes = (
(316,-26,o),
(499,152,o),
(526,346,cs),
(674,1400,l),
(614,1400,l),
(466,346,ls),
(443,184,o),
(290,34,o),
(128,34,cs),
(60,34,o),
(-2,58,o),
(-48,102,c),
(-93,56,l),
(-37,0,o),
(38,-26,o),
(120,-26,cs)
);
}
);
width = 738;
},
{
anchors = (
{
name = bottom;
pos = (326,0);
},
{
name = top;
pos = (720,1400);
}
);
hints = (
{
horizontal = 1;
origin = (0,15);
target = (0,8);
type = Stem;
},
{
horizontal = 1;
origin = (0,4);
target = down;
type = TopGhost;
},
{
origin = (0,5);
target = (0,2);
type = Stem;
}
);
layerId = m004;
shapes = (
{
closed = 1;
nodes = (
(458,-26,o),
(700,186,o),
(736,446,cs),
(870,1400,l),
(570,1400,l),
(436,446,ls),
(423,352,o),
(334,274,o),
(240,274,cs),
(188,274,o),
(155,296,o),
(136,314,c),
(-89,84,l),
(-15,12,o),
(88,-26,o),
(198,-26,cs)
);
}
);
width = 934;
},
{
anchors = (
{
name = bottom;
pos = (402,0);
},
{
name = top;
pos = (613,1400);
}
);
hints = (
{
horizontal = 1;
origin = (0,15);
target = (0,8);
type = Stem;
},
{
horizontal = 1;
origin = (0,4);
target = down;
type = TopGhost;
},
{
origin = (0,5);
target = (0,2);
type = Stem;
}
);
layerId = "9C66D268-F658-4B53-B779-04C5E9DBD6C3";
shapes = (
{
closed = 1;
nodes = (
(507,-26,o),
(683,163,o),
(683,379,cs),
(683,1400,l),
(543,1400,l),
(543,379,ls),
(543,240,o),
(429,114,o),
(290,114,cs),
(227,114,o),
(171,137,o),
(129,173,c),
(40,65,l),
(111,4,o),
(199,-26,o),
(290,-26,cs)
);
}
);
width = 803.33333;
},
{
anchors = (
{
name = bottom;
pos = (261,0);
},
{
name = top;
pos = (669,1400);
}
);
hints = (
{
horizontal = 1;
origin = (0,15);
target = (0,8);
type = Stem;
},
{
horizontal = 1;
origin = (0,4);
target = down;
type = TopGhost;
},
{
origin = (0,5);
target = (0,2);
type = Stem;
}
);
layerId = "6AFC1D6D-393E-4CF1-A9CC-89EE1F1F13FA";
shapes = (
{
closed = 1;
nodes = (
(363,-26,o),
(566,163,o),
(596,379,cs),
(739,1400,l),
(599,1400,l),
(456,379,ls),
(436,240,o),
(305,114,o),
(165,114,cs),
(103,114,o),
(50,137,o),
(13,173,c),
(-92,65,l),
(-30,4,o),
(55,-26,o),
(146,-26,cs)
);
}
);
width = 803.33333;
}
);
unicode = 74;
},
{
glyphname = K;
kernLeft = H;
kernRight = K;
lastChange = "2022-07-15 23:53:54 +0000";
layers = (
{
anchors = (
{
name = bottom;
pos = (615,0);
},
{
name = top;
pos = (615,1400);
}
);
hints = (
{
horizontal = 1;
origin = (0,6);
target = up;
type = BottomGhost;
},
{
horizontal = 1;
origin = (0,5);
target = down;
type = TopGhost;
},
{
origin = (0,6);
target = (0,7);
type = Stem;
}
);
layerId = "10BC12B3-5274-42E3-B5BC-F74F362F0DF4";
shapes = (
{
closed = 1;
nodes = (
(656,740,l),
(1210,1400,l),
(818,1400,l),
(420,924,l),
(420,1400,l),
(120,1400,l),
(120,0,l),
(420,0,l),
(420,458,l),
(460,506,l),
(818,0,l),
(1210,0,l)
);
}
);
width = 1230;
},
{
anchors = (
{
name = bottom;
pos = (492,0);
},
{
name = top;
pos = (492,1400);
}
);
hints = (
{
horizontal = 1;
origin = (0,6);
target = up;
type = BottomGhost;
},
{
horizontal = 1;
origin = (0,5);
target = down;
type = TopGhost;
},
{
origin = (0,6);
target = (0,7);
type = Stem;
}
);
layerId = "9AF1F7D9-E035-453E-B2A8-46DE370997D0";
shapes = (
{
closed = 1;
nodes = (
(378,738,l),
(934,1400,l),
(856,1400,l),
(180,594,l),
(180,1400,l),
(120,1400,l),
(120,0,l),
(180,0,l),
(180,500,l),
(338,690,l),
(848,0,l),
(924,0,l)
);
}
);
width = 984;
},
{
anchors = (
{
name = bottom;
pos = (351,0);
},
{
name = top;
pos = (548,1400);
}
);
hints = (
{
horizontal = 1;
origin = (0,6);
target = up;
type = BottomGhost;
},
{
horizontal = 1;
origin = (0,5);
target = down;
type = TopGhost;
},
{
origin = (0,6);
target = (0,7);
type = Stem;
}
);
layerId = m003;
shapes = (
{
closed = 1;
nodes = (
(341,738,l),
(990,1400,l),
(912,1400,l),
(123,594,l),
(236,1400,l),
(176,1400,l),
(-21,0,l),
(39,0,l),
(110,500,l),
(294,690,l),
(707,0,l),
(783,0,l)
);
}
);
width = 984;
},
{
anchors = (
{
name = bottom;
pos = (474,0);
},
{
name = top;
pos = (671,1400);
}
);
hints = (
{
horizontal = 1;
origin = (0,6);
target = up;
type = BottomGhost;
},
{
horizontal = 1;
origin = (0,5);
target = down;
type = TopGhost;
},
{
origin = (0,6);
target = (0,7);
type = Stem;
}
);
layerId = m004;
shapes = (
{
closed = 1;
nodes = (
(619,740,l),
(1266,1400,l),
(874,1400,l),
(409,924,l),
(476,1400,l),
(176,1400,l),
(-21,0,l),
(279,0,l),
(344,458,l),
(391,506,l),
(677,0,l),
(1069,0,l)
);
}
);
width = 1230;
},
{
anchors = (
{
name = bottom;
pos = (533,0);
},
{
name = top;
pos = (533,1400);
}
);
hints = (
{
horizontal = 1;
origin = (0,6);
target = up;
type = BottomGhost;
},
{
horizontal = 1;
origin = (0,5);
target = down;
type = TopGhost;
},
{
origin = (0,6);
target = (0,7);
type = Stem;
}
);
layerId = "9C66D268-F658-4B53-B779-04C5E9DBD6C3";
shapes = (
{
closed = 1;
nodes = (
(471,739,l),
(1026,1400,l),
(843,1400,l),
(260,704,l),
(260,1400,l),
(120,1400,l),
(120,0,l),
(260,0,l),
(260,486,l),
(379,629,l),
(838,0,l),
(1019,0,l)
);
}
);
width = 1066;
},
{
anchors = (
{
name = bottom;
pos = (392,0);
},
{
name = top;
pos = (589,1400);
}
);
hints = (
{
horizontal = 1;
origin = (0,6);
target = up;
type = BottomGhost;
},
{
horizontal = 1;
origin = (0,5);
target = down;
type = TopGhost;
},
{
origin = (0,6);
target = (0,7);
type = Stem;
}
);
layerId = "6AFC1D6D-393E-4CF1-A9CC-89EE1F1F13FA";
shapes = (
{
closed = 1;
nodes = (
(434,739,l),
(1082,1400,l),
(899,1400,l),
(218,704,l),
(316,1400,l),
(176,1400,l),
(-21,0,l),
(119,0,l),
(188,486,l),
(326,629,l),
(697,0,l),
(878,0,l)
);
}
);
width = 1066;
}
);
unicode = 75;
},
{
glyphname = L;
kernLeft = H;
kernRight = L;
lastChange = "2022-07-15 23:53:54 +0000";
layers = (
{
anchors = (
{
name = bottom;
pos = (545,0);
},
{
name = center;
pos = (535,700);
},
{
name = top;
pos = (270,1400);
},
{
name = topright;
pos = (674,1102);
}
);
hints = (
{
horizontal = 1;
origin = (0,5);
target = (0,2);
type = Stem;
},
{
horizontal = 1;
origin = (0,4);
target = down;
type = TopGhost;
},
{
origin = (0,5);
target = (0,2);
type = Stem;
}
);
layerId = "10BC12B3-5274-42E3-B5BC-F74F362F0DF4";
shapes = (
{
closed = 1;
nodes = (
(970,0,l),
(970,300,l),
(420,300,l),
(420,1400,l),
(120,1400,l),
(120,0,l)
);
}
);
width = 1070;
},
{
anchors = (
{
name = bottom;
pos = (495,0);
},
{
name = center;
pos = (485,700);
},
{
name = top;
pos = (150,1400);
},
{
name = topright;
pos = (554,1102);
}
);
hints = (
{
horizontal = 1;
origin = (0,5);
target = (0,2);
type = Stem;
},
{
horizontal = 1;
origin = (0,4);
target = down;
type = TopGhost;
},
{
origin = (0,5);
target = (0,2);
type = Stem;
}
);
layerId = "9AF1F7D9-E035-453E-B2A8-46DE370997D0";
shapes = (
{
closed = 1;
nodes = (
(870,0,l),
(870,60,l),
(180,60,l),
(180,1400,l),
(120,1400,l),
(120,0,l)
);
}
);
width = 970;
},
{
anchors = (
{
name = bottom;
pos = (354,0);
},
{
name = center;
pos = (443,700);
},
{
name = top;
pos = (206,1400);
},
{
name = topright;
pos = (568,1102);
}
);
hints = (
{
horizontal = 1;
origin = (0,5);
target = (0,2);
type = Stem;
},
{
horizontal = 1;
origin = (0,4);
target = down;
type = TopGhost;
},
{
origin = (0,5);
target = (0,2);
type = Stem;
}
);
layerId = m003;
shapes = (
{
closed = 1;
nodes = (
(729,0,l),
(738,60,l),
(48,60,l),
(236,1400,l),
(176,1400,l),
(-21,0,l)
);
}
);
width = 970;
},
{
anchors = (
{
name = bottom;
pos = (404,0);
},
{
name = center;
pos = (493,700);
},
{
name = top;
pos = (326,1400);
},
{
name = topright;
pos = (688,1102);
}
);
hints = (
{
horizontal = 1;
origin = (0,5);
target = (0,2);
type = Stem;
},
{
horizontal = 1;
origin = (0,4);
target = down;
type = TopGhost;
},
{
origin = (0,5);
target = (0,2);
type = Stem;
}
);
layerId = m004;
shapes = (
{
closed = 1;
nodes = (
(829,0,l),
(872,300,l),
(322,300,l),
(476,1400,l),
(176,1400,l),
(-21,0,l)
);
}
);
width = 1070;
},
{
anchors = (
{
name = bottom;
pos = (512,0);
},
{
name = center;
pos = (502,700);
},
{
name = top;
pos = (190,1400);
},
{
name = topright;
pos = (594,1102);
}
);
hints = (
{
horizontal = 1;
origin = (0,5);
target = (0,2);
type = Stem;
},
{
horizontal = 1;
origin = (0,4);
target = down;
type = TopGhost;
},
{
origin = (0,5);
target = (0,2);
type = Stem;
}
);
layerId = "9C66D268-F658-4B53-B779-04C5E9DBD6C3";
shapes = (
{
closed = 1;
nodes = (
(903,0,l),
(903,140,l),
(260,140,l),
(260,1400,l),
(120,1400,l),
(120,0,l)
);
}
);
width = 1003.33333;
},
{
anchors = (
{
name = bottom;
pos = (371,0);
},
{
name = center;
pos = (460,700);
},
{
name = top;
pos = (246,1400);
},
{
name = topright;
pos = (608,1102);
}
);
hints = (
{
horizontal = 1;
origin = (0,5);
target = (0,2);
type = Stem;
},
{
horizontal = 1;
origin = (0,4);
target = down;
type = TopGhost;
},
{
origin = (0,5);
target = (0,2);
type = Stem;
}
);
layerId = "6AFC1D6D-393E-4CF1-A9CC-89EE1F1F13FA";
shapes = (
{
closed = 1;
nodes = (
(762,0,l),
(783,140,l),
(139,140,l),
(316,1400,l),
(176,1400,l),
(-21,0,l)
);
}
);
width = 1003.33333;
}
);
metricLeft = H;
unicode = 76;
},
{
glyphname = Lslash;
kernLeft = H;
kernRight = L;
lastChange = "2022-07-15 23:53:54 +0000";
layers = (
{
layerId = "9AF1F7D9-E035-453E-B2A8-46DE370997D0";
shapes = (
{
closed = 1;
nodes = (
(218,1400,l),
(218,687,l),
(40,584,l),
(70,532,l),
(218,618,l),
(218,0,l),
(968,0,l),
(968,60,l),
(278,60,l),
(278,652,l),
(706,900,l),
(676,952,l),
(278,722,l),
(278,1400,l)
);
}
);
width = 1068;
},
{
layerId = "10BC12B3-5274-42E3-B5BC-F74F362F0DF4";
shapes = (
{
closed = 1;
nodes = (
(279,1400,l),
(279,826,l),
(40,688,l),
(190,428,l),
(279,479,l),
(279,0,l),
(1129,0,l),
(1129,300,l),
(579,300,l),
(579,652,l),
(1011,902,l),
(861,1161,l),
(579,999,l),
(579,1400,l)
);
}
);
width = 1229;
},
{
layerId = m003;
shapes = (
{
closed = 1;
nodes = (
(273,1400,l),
(173,687,l),
(-19,584,l),
(3,532,l),
(163,618,l),
(76,0,l),
(826,0,l),
(835,60,l),
(145,60,l),
(228,652,l),
(691,900,l),
(668,952,l),
(238,722,l),
(333,1400,l)
);
}
);
width = 1067;
},
{
layerId = m004;
shapes = (
{
closed = 1;
nodes = (
(334,1400,l),
(254,826,l),
(-5,688,l),
(109,428,l),
(205,479,l),
(137,0,l),
(987,0,l),
(1030,300,l),
(480,300,l),
(529,652,l),
(996,902,l),
(883,1161,l),
(578,999,l),
(634,1400,l)
);
}
);
width = 1228;
},
{
layerId = "9C66D268-F658-4B53-B779-04C5E9DBD6C3";
shapes = (
{
closed = 1;
nodes = (
(238,1400,l),
(238,733,l),
(40,619,l),
(110,497,l),
(238,572,l),
(238,0,l),
(1022,0,l),
(1022,140,l),
(378,140,l),
(378,652,l),
(808,901,l),
(738,1022,l),
(378,814,l),
(378,1400,l)
);
}
);
width = 1121.66667;
},
{
layerId = "6AFC1D6D-393E-4CF1-A9CC-89EE1F1F13FA";
shapes = (
{
closed = 1;
nodes = (
(293,1400,l),
(200,733,l),
(-14,619,l),
(38,497,l),
(177,572,l),
(96,0,l),
(880,0,l),
(900,140,l),
(257,140,l),
(328,652,l),
(793,901,l),
(740,1022,l),
(351,814,l),
(433,1400,l)
);
}
);
width = 1120.66667;
}
);
metricLeft = "=H-80";
metricRight = L;
unicode = 321;
},
{
glyphname = M;
kernLeft = M;
kernRight = M;
lastChange = "2022-07-15 23:53:54 +0000";
layers = (
{
anchors = (
{
name = bottom;
pos = (962,0);
},
{
name = top;
pos = (962,1400);
}
);
hints = (
{
horizontal = 1;
origin = (0,12);
target = up;
type = BottomGhost;
},
{
horizontal = 1;
origin = (0,11);
target = down;
type = TopGhost;
}
);
layerId = "10BC12B3-5274-42E3-B5BC-F74F362F0DF4";
shapes = (
{
closed = 1;
nodes = (
(426,0,l),
(572,756,l),
(858,0,l),
(1066,0,l),
(1352,756,l),
(1498,0,l),
(1804,0,l),
(1532,1400,l),
(1276,1400,l),
(962,574,l),
(648,1400,l),
(392,1400,l),
(120,0,l)
);
}
);
width = 1924;
},
{
anchors = (
{
name = bottom;
pos = (846,0);
},
{
name = top;
pos = (846,1400);
}
);
hints = (
{
horizontal = 1;
origin = (0,12);
target = up;
type = BottomGhost;
},
{
horizontal = 1;
origin = (0,11);
target = down;
type = TopGhost;
}
);
layerId = "9AF1F7D9-E035-453E-B2A8-46DE370997D0";
shapes = (
{
closed = 1;
nodes = (
(180,0,l),
(418,1228,l),
(830,138,l),
(860,138,l),
(1272,1228,l),
(1510,0,l),
(1572,0,l),
(1300,1400,l),
(1274,1400,l),
(846,268,l),
(416,1400,l),
(390,1400,l),
(120,0,l)
);
}
);
width = 1692;
},
{
anchors = (
{
name = bottom;
pos = (705,0);
},
{
name = top;
pos = (902,1400);
}
);
hints = (
{
horizontal = 1;
origin = (0,12);
target = up;
type = BottomGhost;
},
{
horizontal = 1;
origin = (0,11);
target = down;
type = TopGhost;
}
);
layerId = m003;
shapes = (
{
closed = 1;
nodes = (
(39,0,l),
(450,1228,l),
(709,138,l),
(739,138,l),
(1304,1228,l),
(1369,0,l),
(1431,0,l),
(1356,1400,l),
(1330,1400,l),
(743,268,l),
(472,1400,l),
(446,1400,l),
(-21,0,l)
);
}
);
width = 1692;
},
{
anchors = (
{
name = bottom;
pos = (821,0);
},
{
name = top;
pos = (1018,1400);
}
);
hints = (
{
horizontal = 1;
origin = (0,12);
target = up;
type = BottomGhost;
},
{
horizontal = 1;
origin = (0,11);
target = down;
type = TopGhost;
}
);
layerId = m004;
shapes = (
{
closed = 1;
nodes = (
(285,0,l),
(538,756,l),
(717,0,l),
(925,0,l),
(1318,756,l),
(1357,0,l),
(1663,0,l),
(1588,1400,l),
(1332,1400,l),
(902,574,l),
(704,1400,l),
(448,1400,l),
(-21,0,l)
);
}
);
width = 1924;
},
{
anchors = (
{
name = bottom;
pos = (885,0);
},
{
name = top;
pos = (885,1400);
}
);
hints = (
{
horizontal = 1;
origin = (0,12);
target = up;
type = BottomGhost;
},
{
horizontal = 1;
origin = (0,11);
target = down;
type = TopGhost;
}
);
layerId = "9C66D268-F658-4B53-B779-04C5E9DBD6C3";
shapes = (
{
closed = 1;
nodes = (
(262,0,l),
(469,1071,l),
(839,92,l),
(929,92,l),
(1299,1071,l),
(1506,0,l),
(1649,0,l),
(1377,1400,l),
(1275,1400,l),
(885,370,l),
(493,1400,l),
(391,1400,l),
(120,0,l)
);
}
);
width = 1769.33333;
},
{
anchors = (
{
name = bottom;
pos = (744,0);
},
{
name = top;
pos = (941,1400);
}
);
hints = (
{
horizontal = 1;
origin = (0,12);
target = up;
type = BottomGhost;
},
{
horizontal = 1;
origin = (0,11);
target = down;
type = TopGhost;
}
);
layerId = "6AFC1D6D-393E-4CF1-A9CC-89EE1F1F13FA";
shapes = (
{
closed = 1;
nodes = (
(121,0,l),
(479,1071,l),
(712,92,l),
(801,92,l),
(1309,1071,l),
(1365,0,l),
(1508,0,l),
(1433,1400,l),
(1331,1400,l),
(796,370,l),
(549,1400,l),
(447,1400,l),
(-21,0,l)
);
}
);
width = 1769.33333;
}
);
unicode = 77;
},
{
glyphname = N;
kernLeft = H;
kernRight = H;
lastChange = "2022-07-15 23:53:54 +0000";
layers = (
{
anchors = (
{
name = bottom;
pos = (688,0);
},
{
name = top;
pos = (688,1400);
}
);
hints = (
{
horizontal = 1;
origin = (0,9);
target = up;
type = BottomGhost;
},
{
horizontal = 1;
origin = (0,8);
target = down;
type = TopGhost;
},
{
origin = (0,9);
target = (0,0);
type = Stem;
},
{
origin = (0,6);
target = (0,3);
type = Stem;
}
);
layerId = "10BC12B3-5274-42E3-B5BC-F74F362F0DF4";
shapes = (
{
closed = 1;
nodes = (
(420,0,l),
(420,858,l),
(932,0,l),
(1256,0,l),
(1256,1400,l),
(956,1400,l),
(956,542,l),
(444,1400,l),
(120,1400,l),
(120,0,l)
);
}
);
width = 1376;
},
{
anchors = (
{
name = bottom;
pos = (609,0);
},
{
name = top;
pos = (609,1400);
}
);
hints = (
{
horizontal = 1;
origin = (0,9);
target = up;
type = BottomGhost;
},
{
horizontal = 1;
origin = (0,8);
target = down;
type = TopGhost;
},
{
origin = (0,9);
target = (0,0);
type = Stem;
},
{
origin = (0,6);
target = (0,3);
type = Stem;
}
);
layerId = "9AF1F7D9-E035-453E-B2A8-46DE370997D0";
shapes = (
{
closed = 1;
nodes = (
(180,0,l),
(180,1292,l),
(1034,0,l),
(1098,0,l),
(1098,1400,l),
(1038,1400,l),
(1038,108,l),
(186,1400,l),
(120,1400,l),
(120,0,l)
);
}
);
width = 1218;
},
{
anchors = (
{
name = bottom;
pos = (468,0);
},
{
name = top;
pos = (665,1400);
}
);
hints = (
{
horizontal = 1;
origin = (0,9);
target = up;
type = BottomGhost;
},
{
horizontal = 1;
origin = (0,8);
target = down;
type = TopGhost;
},
{
origin = (0,9);
target = (0,0);
type = Stem;
},
{
origin = (0,6);
target = (0,3);
type = Stem;
}
);
layerId = m003;
shapes = (
{
closed = 1;
nodes = (
(39,0,l),
(221,1292,l),
(893,0,l),
(957,0,l),
(1154,1400,l),
(1094,1400,l),
(913,108,l),
(242,1400,l),
(176,1400,l),
(-21,0,l)
);
}
);
width = 1218;
},
{
anchors = (
{
name = bottom;
pos = (547,0);
},
{
name = top;
pos = (744,1400);
}
);
hints = (
{
horizontal = 1;
origin = (0,9);
target = up;
type = BottomGhost;
},
{
horizontal = 1;
origin = (0,8);
target = down;
type = TopGhost;
},
{
origin = (0,9);
target = (0,0);
type = Stem;
},
{
origin = (0,6);
target = (0,3);
type = Stem;
}
);
layerId = m004;
shapes = (
{
closed = 1;
nodes = (
(279,0,l),
(400,858,l),
(791,0,l),
(1115,0,l),
(1312,1400,l),
(1012,1400,l),
(892,542,l),
(500,1400,l),
(176,1400,l),
(-21,0,l)
);
}
);
width = 1376;
},
{
anchors = (
{
name = bottom;
pos = (635,0);
},
{
name = top;
pos = (635,1400);
}
);
hints = (
{
horizontal = 1;
origin = (0,9);
target = up;
type = BottomGhost;
},
{
horizontal = 1;
origin = (0,8);
target = down;
type = TopGhost;
},
{
origin = (0,9);
target = (0,0);
type = Stem;
},
{
origin = (0,6);
target = (0,3);
type = Stem;
}
);
layerId = "9C66D268-F658-4B53-B779-04C5E9DBD6C3";
shapes = (
{
closed = 1;
nodes = (
(260,0,l),
(260,1147,l),
(1000,0,l),
(1151,0,l),
(1151,1400,l),
(1011,1400,l),
(1011,253,l),
(272,1400,l),
(120,1400,l),
(120,0,l)
);
}
);
width = 1270.66667;
},
{
anchors = (
{
name = bottom;
pos = (494,0);
},
{
name = top;
pos = (691,1400);
}
);
hints = (
{
horizontal = 1;
origin = (0,9);
target = up;
type = BottomGhost;
},
{
horizontal = 1;
origin = (0,8);
target = down;
type = TopGhost;
},
{
origin = (0,9);
target = (0,0);
type = Stem;
},
{
origin = (0,6);
target = (0,3);
type = Stem;
}
);
layerId = "6AFC1D6D-393E-4CF1-A9CC-89EE1F1F13FA";
shapes = (
{
closed = 1;
nodes = (
(119,0,l),
(281,1147,l),
(859,0,l),
(1010,0,l),
(1207,1400,l),
(1067,1400,l),
(906,253,l),
(328,1400,l),
(176,1400,l),
(-21,0,l)
);
}
);
width = 1270.66667;
}
);
metricLeft = H;
metricRight = H;
unicode = 78;
},
{
glyphname = Eng;
kernLeft = H;
kernRight = H;
lastChange = "2022-07-15 23:53:54 +0000";
layers = (
{
anchors = (
{
name = bottom;
pos = (609,0);
},
{
name = top;
pos = (609,1400);
}
);
layerId = "9AF1F7D9-E035-453E-B2A8-46DE370997D0";
shapes = (
{
ref = N;
},
{
closed = 1;
nodes = (
(732,-500,l),
(944,-500,o),
(1098,-344,o),
(1098,-148,c),
(1098,508,l),
(1038,508,l),
(1038,-148,l),
(1038,-314,o),
(908,-440,o),
(732,-440,c)
);
}
);
width = 1218;
},
{
anchors = (
{
name = bottom;
pos = (688,0);
},
{
name = top;
pos = (688,1400);
}
);
layerId = "10BC12B3-5274-42E3-B5BC-F74F362F0DF4";
shapes = (
{
ref = N;
},
{
closed = 1;
nodes = (
(760,-500,l),
(1046,-500,o),
(1256,-288,o),
(1256,-28,c),
(1256,508,l),
(932,508,l),
(932,-28,l),
(932,-124,o),
(854,-200,o),
(760,-200,c)
);
}
);
width = 1376;
},
{
anchors = (
{
name = bottom;
pos = (468,0);
},
{
name = top;
pos = (665,1400);
}
);
layerId = m003;
shapes = (
{
ref = N;
},
{
closed = 1;
nodes = (
(521,-500,l),
(733,-500,o),
(909,-344,o),
(937,-148,c),
(1029,508,l),
(969,508,l),
(877,-148,l),
(853,-314,o),
(706,-440,o),
(530,-440,c)
);
}
);
width = 1218;
},
{
anchors = (
{
name = bottom;
pos = (547,0);
},
{
name = top;
pos = (744,1400);
}
);
layerId = m004;
shapes = (
{
ref = N;
},
{
closed = 1;
nodes = (
(549,-500,l),
(835,-500,o),
(1075,-288,o),
(1112,-28,c),
(1187,508,l),
(863,508,l),
(788,-28,l),
(774,-124,o),
(685,-200,o),
(591,-200,c)
);
}
);
width = 1376;
},
{
anchors = (
{
name = bottom;
pos = (635,0);
},
{
name = top;
pos = (635,1400);
}
);
layerId = "9C66D268-F658-4B53-B779-04C5E9DBD6C3";
shapes = (
{
alignment = -1;
ref = N;
},
{
closed = 1;
nodes = (
(741,-500,l),
(978,-500,o),
(1151,-325,o),
(1151,-108,c),
(1151,508,l),
(1003,508,l),
(1003,-108,l),
(1003,-251,o),
(890,-360,o),
(741,-360,c)
);
}
);
width = 1270.66667;
},
{
anchors = (
{
name = bottom;
pos = (494,0);
},
{
name = top;
pos = (691,1400);
}
);
layerId = "6AFC1D6D-393E-4CF1-A9CC-89EE1F1F13FA";
shapes = (
{
alignment = -1;
ref = N;
},
{
closed = 1;
nodes = (
(530,-500,l),
(767,-500,o),
(964,-325,o),
(995,-108,c),
(1082,508,l),
(934,508,l),
(847,-108,l),
(827,-251,o),
(699,-360,o),
(550,-360,c)
);
}
);
width = 1270.66667;
}
);
metricLeft = H;
metricRight = H;
unicode = 330;
},
{
glyphname = O;
kernLeft = O;
kernRight = O;
lastChange = "2022-07-15 23:53:54 +0000";
layers = (
{
anchors = (
{
name = bottom;
pos = (750,0);
},
{
name = center;
pos = (750,700);
},
{
name = ogonek;
pos = (1366,10);
},
{
name = top;
pos = (750,1400);
},
{
name = topleft;
pos = (0,1400);
},
{
name = topright;
pos = (1500,1400);
}
);
hints = (
{
horizontal = 1;
origin = (0,11);
target = (1,11);
type = Stem;
},
{
horizontal = 1;
origin = (0,5);
target = (1,5);
type = Stem;
},
{
origin = (0,8);
target = (1,2);
type = Stem;
},
{
origin = (1,8);
target = (0,2);
type = Stem;
}
);
layerId = "10BC12B3-5274-42E3-B5BC-F74F362F0DF4";
shapes = (
{
closed = 1;
nodes = (
(1130,-26,o),
(1440,300,o),
(1440,700,cs),
(1440,1100,o),
(1130,1426,o),
(750,1426,cs),
(370,1426,o),
(60,1100,o),
(60,700,cs),
(60,300,o),
(370,-26,o),
(750,-26,cs)
);
},
{
closed = 1;
nodes = (
(536,274,o),
(360,466,o),
(360,700,cs),
(360,934,o),
(536,1126,o),
(750,1126,cs),
(964,1126,o),
(1140,934,o),
(1140,700,cs),
(1140,466,o),
(964,274,o),
(750,274,cs)
);
}
);
width = 1500;
},
{
anchors = (
{
name = bottom;
pos = (750,0);
},
{
name = center;
pos = (750,700);
},
{
name = ogonek;
pos = (1366,10);
},
{
name = top;
pos = (750,1400);
},
{
name = topleft;
pos = (0,1400);
},
{
name = topright;
pos = (1500,1400);
}
);
hints = (
{
horizontal = 1;
origin = (0,11);
target = (1,11);
type = Stem;
},
{
horizontal = 1;
origin = (0,5);
target = (1,5);
type = Stem;
},
{
origin = (0,8);
target = (1,2);
type = Stem;
},
{
origin = (1,8);
target = (0,2);
type = Stem;
}
);
layerId = "9AF1F7D9-E035-453E-B2A8-46DE370997D0";
shapes = (
{
closed = 1;
nodes = (
(1130,-26,o),
(1440,300,o),
(1440,700,cs),
(1440,1100,o),
(1130,1426,o),
(750,1426,cs),
(370,1426,o),
(60,1100,o),
(60,700,cs),
(60,300,o),
(370,-26,o),
(750,-26,cs)
);
},
{
closed = 1;
nodes = (
(402,34,o),
(120,334,o),
(120,700,cs),
(120,1060,o),
(398,1366,o),
(750,1366,cs),
(1098,1366,o),
(1380,1064,o),
(1380,700,cs),
(1380,340,o),
(1102,34,o),
(750,34,cs)
);
}
);
width = 1500;
},
{
anchors = (
{
name = bottom;
pos = (609,0);
},
{
name = center;
pos = (708,700);
},
{
name = ogonek;
pos = (1227,10);
},
{
name = top;
pos = (806,1400);
},
{
name = topleft;
pos = (56,1400);
},
{
name = topright;
pos = (1556,1400);
}
);
hints = (
{
horizontal = 1;
origin = (0,11);
target = (1,11);
type = Stem;
},
{
horizontal = 1;
origin = (0,5);
target = (1,5);
type = Stem;
},
{
origin = (0,8);
target = (1,2);
type = Stem;
},
{
origin = (1,8);
target = (0,2);
type = Stem;
}
);
layerId = m003;
shapes = (
{
closed = 1;
nodes = (
(986,-26,o),
(1342,300,o),
(1398,700,cs),
(1454,1100,o),
(1190,1426,o),
(810,1426,cs),
(430,1426,o),
(74,1100,o),
(18,700,cs),
(-38,300,o),
(226,-26,o),
(606,-26,cs)
);
},
{
closed = 1;
nodes = (
(266,34,o),
(26,334,o),
(78,700,cs),
(128,1060,o),
(449,1366,o),
(801,1366,cs),
(1149,1366,o),
(1389,1064,o),
(1338,700,cs),
(1287,340,o),
(966,34,o),
(614,34,cs)
);
}
);
width = 1500;
},
{
anchors = (
{
name = bottom;
pos = (609,0);
},
{
name = center;
pos = (708,700);
},
{
name = ogonek;
pos = (1227,10);
},
{
name = top;
pos = (806,1400);
},
{
name = topleft;
pos = (56,1400);
},
{
name = topright;
pos = (1556,1400);
}
);
hints = (
{
horizontal = 1;
origin = (0,11);
target = (1,11);
type = Stem;
},
{
horizontal = 1;
origin = (0,5);
target = (1,5);
type = Stem;
},
{
origin = (0,8);
target = (1,2);
type = Stem;
},
{
origin = (1,8);
target = (0,2);
type = Stem;
}
);
layerId = m004;
shapes = (
{
closed = 1;
nodes = (
(986,-26,o),
(1342,300,o),
(1398,700,cs),
(1454,1100,o),
(1190,1426,o),
(810,1426,cs),
(430,1426,o),
(74,1100,o),
(18,700,cs),
(-38,300,o),
(226,-26,o),
(606,-26,cs)
);
},
{
closed = 1;
nodes = (
(434,274,o),
(285,466,o),
(318,700,cs),
(351,934,o),
(554,1126,o),
(768,1126,cs),
(982,1126,o),
(1131,934,o),
(1098,700,cs),
(1065,466,o),
(862,274,o),
(648,274,cs)
);
}
);
width = 1500;
},
{
anchors = (
{
name = bottom;
pos = (750,0);
},
{
name = center;
pos = (750,700);
},
{
name = ogonek;
pos = (1366,10);
},
{
name = top;
pos = (750,1400);
},
{
name = topleft;
pos = (0,1400);
},
{
name = topright;
pos = (1500,1400);
}
);
hints = (
{
horizontal = 1;
origin = (0,11);
target = (1,11);
type = Stem;
},
{
horizontal = 1;
origin = (0,5);
target = (1,5);
type = Stem;
},
{
origin = (0,8);
target = (1,2);
type = Stem;
},
{
origin = (1,8);
target = (0,2);
type = Stem;
}
);
layerId = "9C66D268-F658-4B53-B779-04C5E9DBD6C3";
shapes = (
{
closed = 1;
nodes = (
(1130,-26,o),
(1440,300,o),
(1440,700,cs),
(1440,1100,o),
(1130,1426,o),
(750,1426,cs),
(370,1426,o),
(60,1100,o),
(60,700,cs),
(60,300,o),
(370,-26,o),
(750,-26,cs)
);
},
{
closed = 1;
nodes = (
(447,114,o),
(200,378,o),
(200,700,cs),
(200,1018,o),
(444,1286,o),
(750,1286,cs),
(1053,1286,o),
(1300,1021,o),
(1300,700,cs),
(1300,382,o),
(1056,114,o),
(750,114,cs)
);
}
);
width = 1500;
},
{
anchors = (
{
name = bottom;
pos = (609,0);
},
{
name = center;
pos = (708,700);
},
{
name = ogonek;
pos = (1227,10);
},
{
name = top;
pos = (806,1400);
},
{
name = topleft;
pos = (56,1400);
},
{
name = topright;
pos = (1556,1400);
}
);
hints = (
{
horizontal = 1;
origin = (0,11);
target = (1,11);
type = Stem;
},
{
horizontal = 1;
origin = (0,5);
target = (1,5);
type = Stem;
},
{
origin = (0,8);
target = (1,2);
type = Stem;
},
{
origin = (1,8);
target = (0,2);
type = Stem;
}
);
layerId = "6AFC1D6D-393E-4CF1-A9CC-89EE1F1F13FA";
shapes = (
{
closed = 1;
nodes = (
(986,-26,o),
(1342,300,o),
(1398,700,cs),
(1454,1100,o),
(1190,1426,o),
(810,1426,cs),
(430,1426,o),
(74,1100,o),
(18,700,cs),
(-38,300,o),
(226,-26,o),
(606,-26,cs)
);
},
{
closed = 1;
nodes = (
(322,114,o),
(112,378,o),
(158,700,cs),
(202,1018,o),
(484,1286,o),
(790,1286,cs),
(1093,1286,o),
(1303,1021,o),
(1258,700,cs),
(1213,382,o),
(931,114,o),
(625,114,cs)
);
}
);
width = 1500;
}
);
unicode = 79;
},
{
glyphname = Oslash;
kernLeft = O;
kernRight = O;
lastChange = "2022-07-15 23:53:54 +0000";
layers = (
{
anchors = (
{
name = bottom;
pos = (750,0);
},
{
name = top;
pos = (750,1400);
}
);
hints = (
{
horizontal = 1;
origin = (0,3);
target = (2,9);
type = Stem;
},
{
horizontal = 1;
origin = (0,15);
target = (1,5);
type = Stem;
},
{
origin = (0,18);
target = (1,2);
type = Stem;
},
{
origin = (2,6);
target = (0,6);
type = Stem;
}
);
layerId = "10BC12B3-5274-42E3-B5BC-F74F362F0DF4";
shapes = (
{
closed = 1;
nodes = (
(528,14,l),
(598,-12,o),
(672,-26,o),
(750,-26,cs),
(1130,-26,o),
(1440,300,o),
(1440,700,cs),
(1440,906,o),
(1358,1092,o),
(1226,1226,c),
(1312,1372,l),
(1052,1522,l),
(974,1388,l),
(904,1412,o),
(830,1426,o),
(750,1426,cs),
(370,1426,o),
(60,1100,o),
(60,700,cs),
(60,494,o),
(144,308,o),
(274,176,c),
(190,28,l),
(450,-122,l)
);
},
{
closed = 1;
nodes = (
(388,522,o),
(360,608,o),
(360,700,cs),
(360,934,o),
(536,1126,o),
(750,1126,cs),
(774,1126,o),
(798,1124,o),
(820,1120,c),
(434,452,l)
);
},
{
closed = 1;
nodes = (
(728,274,o),
(704,276,o),
(682,282,c),
(1068,948,l),
(1114,878,o),
(1140,792,o),
(1140,700,cs),
(1140,466,o),
(964,274,o),
(750,274,cs)
);
}
);
width = 1500;
},
{
anchors = (
{
name = bottom;
pos = (750,0);
},
{
name = top;
pos = (750,1400);
}
);
hints = (
{
horizontal = 1;
origin = (0,3);
target = (2,9);
type = Stem;
},
{
horizontal = 1;
origin = (0,15);
target = (1,5);
type = Stem;
},
{
origin = (0,18);
target = (1,2);
type = Stem;
},
{
origin = (2,6);
target = (0,6);
type = Stem;
}
);
layerId = "9AF1F7D9-E035-453E-B2A8-46DE370997D0";
shapes = (
{
closed = 1;
nodes = (
(418,64,l),
(518,8,o),
(630,-26,o),
(750,-26,cs),
(1130,-26,o),
(1440,300,o),
(1440,700,cs),
(1440,952,o),
(1318,1174,o),
(1134,1304,c),
(1208,1432,l),
(1156,1462,l),
(1084,1336,l),
(984,1394,o),
(872,1426,o),
(750,1426,cs),
(370,1426,o),
(60,1100,o),
(60,700,cs),
(60,450,o),
(184,228,o),
(368,96,c),
(294,-32,l),
(346,-62,l)
);
},
{
closed = 1;
nodes = (
(230,270,o),
(120,472,o),
(120,700,cs),
(120,1060,o),
(398,1366,o),
(750,1366,cs),
(860,1366,o),
(964,1336,o),
(1054,1284,c),
(398,150,l)
);
},
{
closed = 1;
nodes = (
(642,34,o),
(538,64,o),
(448,116,c),
(1104,1252,l),
(1270,1130,o),
(1380,928,o),
(1380,700,cs),
(1380,340,o),
(1102,34,o),
(750,34,cs)
);
}
);
width = 1500;
},
{
anchors = (
{
name = bottom;
pos = (609,0);
},
{
name = top;
pos = (806,1400);
}
);
hints = (
{
horizontal = 1;
origin = (0,3);
target = (2,9);
type = Stem;
},
{
horizontal = 1;
origin = (0,15);
target = (1,5);
type = Stem;
},
{
origin = (0,18);
target = (1,2);
type = Stem;
},
{
origin = (2,6);
target = (0,6);
type = Stem;
}
);
layerId = m003;
shapes = (
{
closed = 1;
nodes = (
(286,64,l),
(379,8,o),
(486,-26,o),
(606,-26,cs),
(986,-26,o),
(1342,300,o),
(1398,700,cs),
(1433,952,o),
(1342,1174,o),
(1177,1304,c),
(1269,1432,l),
(1221,1462,l),
(1131,1336,l),
(1039,1394,o),
(932,1426,o),
(810,1426,cs),
(430,1426,o),
(74,1100,o),
(18,700,cs),
(-17,450,o),
(76,228,o),
(241,96,c),
(149,-32,l),
(197,-62,l)
);
},
{
closed = 1;
nodes = (
(127,270,o),
(46,472,o),
(78,700,cs),
(128,1060,o),
(449,1366,o),
(801,1366,cs),
(911,1366,o),
(1011,1336,o),
(1094,1284,c),
(279,150,l)
);
},
{
closed = 1;
nodes = (
(506,34,o),
(406,64,o),
(324,116,c),
(1139,1252,l),
(1288,1130,o),
(1370,928,o),
(1338,700,cs),
(1287,340,o),
(966,34,o),
(614,34,cs)
);
}
);
width = 1500;
},
{
anchors = (
{
name = bottom;
pos = (609,0);
},
{
name = top;
pos = (806,1400);
}
);
hints = (
{
horizontal = 1;
origin = (0,3);
target = (2,9);
type = Stem;
},
{
horizontal = 1;
origin = (0,15);
target = (1,5);
type = Stem;
},
{
origin = (0,18);
target = (1,2);
type = Stem;
},
{
origin = (2,6);
target = (0,6);
type = Stem;
}
);
layerId = m004;
shapes = (
{
closed = 1;
nodes = (
(389,14,l),
(456,-12,o),
(528,-26,o),
(606,-26,cs),
(986,-26,o),
(1342,300,o),
(1398,700,cs),
(1427,906,o),
(1371,1092,o),
(1258,1226,c),
(1364,1372,l),
(1125,1522,l),
(1029,1388,l),
(962,1412,o),
(890,1426,o),
(810,1426,cs),
(430,1426,o),
(74,1100,o),
(18,700,cs),
(-11,494,o),
(47,308,o),
(158,176,c),
(53,28,l),
(292,-122,l)
);
},
{
closed = 1;
nodes = (
(321,522,o),
(305,608,o),
(318,700,cs),
(351,934,o),
(554,1126,o),
(768,1126,cs),
(792,1126,o),
(815,1124,o),
(837,1120,c),
(357,452,l)
);
},
{
closed = 1;
nodes = (
(626,274,o),
(602,276,o),
(581,282,c),
(1061,948,l),
(1097,878,o),
(1111,792,o),
(1098,700,cs),
(1065,466,o),
(862,274,o),
(648,274,cs)
);
}
);
width = 1500;
},
{
anchors = (
{
name = bottom;
pos = (750,0);
},
{
name = top;
pos = (750,1400);
}
);
hints = (
{
horizontal = 1;
origin = (0,3);
target = (2,9);
type = Stem;
},
{
horizontal = 1;
origin = (0,15);
target = (1,5);
type = Stem;
},
{
origin = (0,18);
target = (1,2);
type = Stem;
},
{
origin = (2,6);
target = (0,6);
type = Stem;
}
);
layerId = "9C66D268-F658-4B53-B779-04C5E9DBD6C3";
shapes = (
{
closed = 1;
nodes = (
(455,47,l),
(545,1,o),
(644,-26,o),
(750,-26,cs),
(1130,-26,o),
(1440,300,o),
(1440,700,cs),
(1440,937,o),
(1331,1147,o),
(1165,1278,c),
(1243,1412,l),
(1121,1482,l),
(1047,1353,l),
(957,1400,o),
(858,1426,o),
(750,1426,cs),
(370,1426,o),
(60,1100,o),
(60,700,cs),
(60,465,o),
(171,255,o),
(337,123,c),
(259,-12,l),
(381,-82,l)
);
},
{
closed = 1;
nodes = (
(283,354,o),
(200,517,o),
(200,700,cs),
(200,1018,o),
(444,1286,o),
(750,1286,cs),
(831,1286,o),
(909,1265,o),
(976,1229,c),
(410,251,l)
);
},
{
closed = 1;
nodes = (
(671,114,o),
(593,135,o),
(526,171,c),
(1092,1151,l),
(1218,1046,o),
(1300,883,o),
(1300,700,cs),
(1300,382,o),
(1056,114,o),
(750,114,cs)
);
}
);
width = 1500;
},
{
anchors = (
{
name = bottom;
pos = (609,0);
},
{
name = top;
pos = (806,1400);
}
);
hints = (
{
horizontal = 1;
origin = (0,3);
target = (2,9);
type = Stem;
},
{
horizontal = 1;
origin = (0,15);
target = (1,5);
type = Stem;
},
{
origin = (0,18);
target = (1,2);
type = Stem;
},
{
origin = (2,6);
target = (0,6);
type = Stem;
}
);
layerId = "6AFC1D6D-393E-4CF1-A9CC-89EE1F1F13FA";
shapes = (
{
closed = 1;
nodes = (
(320,47,l),
(405,1,o),
(500,-26,o),
(606,-26,cs),
(986,-26,o),
(1342,300,o),
(1398,700,cs),
(1431,937,o),
(1352,1147,o),
(1204,1278,c),
(1301,1412,l),
(1189,1482,l),
(1097,1353,l),
(1013,1400,o),
(918,1426,o),
(810,1426,cs),
(430,1426,o),
(74,1100,o),
(18,700,cs),
(-15,465,o),
(66,255,o),
(213,123,c),
(117,-12,l),
(229,-82,l)
);
},
{
closed = 1;
nodes = (
(192,354,o),
(132,517,o),
(158,700,cs),
(202,1018,o),
(484,1286,o),
(790,1286,cs),
(871,1286,o),
(946,1265,o),
(1008,1229,c),
(305,251,l)
);
},
{
closed = 1;
nodes = (
(546,114,o),
(471,135,o),
(410,171,c),
(1113,1151,l),
(1224,1046,o),
(1284,883,o),
(1258,700,cs),
(1213,382,o),
(931,114,o),
(625,114,cs)
);
}
);
width = 1500;
}
);
metricLeft = O;
metricRight = O;
unicode = 216;
},
{
glyphname = OE;
kernLeft = O;
kernRight = E;
lastChange = "2022-07-15 23:53:54 +0000";
layers = (
{
anchors = (
{
name = bottom;
pos = (1028,0);
},
{
name = top;
pos = (1028,1400);
}
);
hints = (
{
horizontal = 1;
origin = (0,24);
target = (1,11);
type = Stem;
},
{
horizontal = 1;
origin = (0,7);
target = (0,10);
type = Stem;
},
{
horizontal = 1;
origin = (0,14);
target = (0,11);
type = Stem;
},
{
horizontal = 1;
origin = (0,3);
target = (0,6);
type = Stem;
},
{
horizontal = 1;
origin = (0,18);
target = (1,5);
type = Stem;
},
{
origin = (0,21);
target = (1,2);
type = Stem;
},
{
origin = (1,8);
target = (0,6);
type = Stem;
}
);
layerId = "10BC12B3-5274-42E3-B5BC-F74F362F0DF4";
shapes = (
{
closed = 1;
nodes = (
(896,-26,o),
(1032,22,o),
(1144,104,c),
(1144,0,l),
(1976,0,l),
(1976,300,l),
(1444,300,l),
(1444,550,l),
(1880,550,l),
(1880,850,l),
(1444,850,l),
(1444,1100,l),
(1976,1100,l),
(1976,1400,l),
(1144,1400,l),
(1144,1296,l),
(1032,1378,o),
(896,1426,o),
(750,1426,cs),
(370,1426,o),
(60,1100,o),
(60,700,cs),
(60,300,o),
(370,-26,o),
(750,-26,cs)
);
},
{
closed = 1;
nodes = (
(536,274,o),
(360,466,o),
(360,700,cs),
(360,934,o),
(536,1126,o),
(750,1126,cs),
(964,1126,o),
(1140,934,o),
(1140,700,cs),
(1140,466,o),
(964,274,o),
(750,274,cs)
);
}
);
width = 2076;
},
{
anchors = (
{
name = bottom;
pos = (1083,0);
},
{
name = top;
pos = (1083,1400);
}
);
hints = (
{
horizontal = 1;
origin = (0,24);
target = (1,11);
type = Stem;
},
{
horizontal = 1;
origin = (0,7);
target = (0,10);
type = Stem;
},
{
horizontal = 1;
origin = (0,14);
target = (0,11);
type = Stem;
},
{
horizontal = 1;
origin = (0,3);
target = (0,6);
type = Stem;
},
{
horizontal = 1;
origin = (0,18);
target = (1,5);
type = Stem;
},
{
origin = (0,21);
target = (1,2);
type = Stem;
},
{
origin = (0,3);
target = (0,6);
type = Stem;
}
);
layerId = "9AF1F7D9-E035-453E-B2A8-46DE370997D0";
shapes = (
{
closed = 1;
nodes = (
(1030,-26,o),
(1272,152,o),
(1380,404,c),
(1380,0,l),
(2086,0,l),
(2086,60,l),
(1440,60,l),
(1440,670,l),
(1990,670,l),
(1990,730,l),
(1440,730,l),
(1440,1340,l),
(2086,1340,l),
(2086,1400,l),
(1380,1400,l),
(1380,996,l),
(1272,1248,o),
(1030,1426,o),
(750,1426,cs),
(370,1426,o),
(60,1100,o),
(60,700,cs),
(60,300,o),
(370,-26,o),
(750,-26,cs)
);
},
{
closed = 1;
nodes = (
(402,34,o),
(120,334,o),
(120,700,cs),
(120,1060,o),
(398,1366,o),
(750,1366,cs),
(1098,1366,o),
(1380,1064,o),
(1380,700,cs),
(1380,340,o),
(1102,34,o),
(750,34,cs)
);
}
);
width = 2186;
},
{
anchors = (
{
name = bottom;
pos = (942,0);
},
{
name = top;
pos = (1139,1400);
}
);
hints = (
{
horizontal = 1;
origin = (0,24);
target = (1,11);
type = Stem;
},
{
horizontal = 1;
origin = (0,7);
target = (0,10);
type = Stem;
},
{
horizontal = 1;
origin = (0,14);
target = (0,11);
type = Stem;
},
{
horizontal = 1;
origin = (0,3);
target = (0,6);
type = Stem;
},
{
horizontal = 1;
origin = (0,18);
target = (1,5);
type = Stem;
},
{
origin = (0,21);
target = (1,2);
type = Stem;
},
{
origin = (0,3);
target = (0,6);
type = Stem;
}
);
layerId = m003;
shapes = (
{
closed = 1;
nodes = (
(886,-26,o),
(1153,152,o),
(1296,404,c),
(1239,0,l),
(1945,0,l),
(1954,60,l),
(1308,60,l),
(1394,670,l),
(1944,670,l),
(1952,730,l),
(1402,730,l),
(1488,1340,l),
(2134,1340,l),
(2142,1400,l),
(1436,1400,l),
(1379,996,l),
(1307,1248,o),
(1090,1426,o),
(810,1426,cs),
(430,1426,o),
(74,1100,o),
(18,700,cs),
(-38,300,o),
(226,-26,o),
(606,-26,cs)
);
},
{
closed = 1;
nodes = (
(266,34,o),
(26,334,o),
(78,700,cs),
(128,1060,o),
(449,1366,o),
(801,1366,cs),
(1149,1366,o),
(1389,1064,o),
(1338,700,cs),
(1287,340,o),
(966,34,o),
(614,34,cs)
);
}
);
width = 2186;
},
{
anchors = (
{
name = bottom;
pos = (887,0);
},
{
name = top;
pos = (1084,1400);
}
);
hints = (
{
horizontal = 1;
origin = (0,24);
target = (1,11);
type = Stem;
},
{
horizontal = 1;
origin = (0,7);
target = (0,10);
type = Stem;
},
{
horizontal = 1;
origin = (0,14);
target = (0,11);
type = Stem;
},
{
horizontal = 1;
origin = (0,3);
target = (0,6);
type = Stem;
},
{
horizontal = 1;
origin = (0,18);
target = (1,5);
type = Stem;
},
{
origin = (0,21);
target = (1,2);
type = Stem;
},
{
origin = (1,8);
target = (0,6);
type = Stem;
}
);
layerId = m004;
shapes = (
{
closed = 1;
nodes = (
(752,-26,o),
(895,22,o),
(1018,104,c),
(1003,0,l),
(1835,0,l),
(1878,300,l),
(1346,300,l),
(1381,550,l),
(1817,550,l),
(1859,850,l),
(1423,850,l),
(1458,1100,l),
(1990,1100,l),
(2032,1400,l),
(1200,1400,l),
(1186,1296,l),
(1085,1378,o),
(956,1426,o),
(810,1426,cs),
(430,1426,o),
(74,1100,o),
(18,700,cs),
(-38,300,o),
(226,-26,o),
(606,-26,cs)
);
},
{
closed = 1;
nodes = (
(434,274,o),
(285,466,o),
(318,700,cs),
(351,934,o),
(554,1126,o),
(768,1126,cs),
(982,1126,o),
(1131,934,o),
(1098,700,cs),
(1065,466,o),
(862,274,o),
(648,274,cs)
);
}
);
width = 2076;
},
{
anchors = (
{
name = bottom;
pos = (1065,0);
},
{
name = top;
pos = (1065,1400);
}
);
hints = (
{
horizontal = 1;
origin = (0,24);
target = (1,11);
type = Stem;
},
{
horizontal = 1;
origin = (0,7);
target = (0,10);
type = Stem;
},
{
horizontal = 1;
origin = (0,14);
target = (0,11);
type = Stem;
},
{
horizontal = 1;
origin = (0,3);
target = (0,6);
type = Stem;
},
{
horizontal = 1;
origin = (0,18);
target = (1,5);
type = Stem;
},
{
origin = (0,21);
target = (1,2);
type = Stem;
},
{
origin = (0,3);
target = (0,6);
type = Stem;
}
);
layerId = "9C66D268-F658-4B53-B779-04C5E9DBD6C3";
shapes = (
{
closed = 1;
nodes = (
(985,-26,o),
(1192,109,o),
(1301,304,c),
(1301,0,l),
(2049,0,l),
(2049,140,l),
(1441,140,l),
(1441,630,l),
(1953,630,l),
(1953,770,l),
(1441,770,l),
(1441,1260,l),
(2049,1260,l),
(2049,1400,l),
(1301,1400,l),
(1301,1096,l),
(1192,1291,o),
(985,1426,o),
(750,1426,cs),
(370,1426,o),
(60,1100,o),
(60,700,cs),
(60,300,o),
(370,-26,o),
(750,-26,cs)
);
},
{
closed = 1;
nodes = (
(447,114,o),
(200,378,o),
(200,700,cs),
(200,1018,o),
(444,1286,o),
(750,1286,cs),
(1053,1286,o),
(1300,1021,o),
(1300,700,cs),
(1300,382,o),
(1056,114,o),
(750,114,cs)
);
}
);
width = 2149.33333;
},
{
anchors = (
{
name = bottom;
pos = (924,0);
},
{
name = top;
pos = (1121,1400);
}
);
hints = (
{
horizontal = 1;
origin = (0,24);
target = (1,11);
type = Stem;
},
{
horizontal = 1;
origin = (0,7);
target = (0,10);
type = Stem;
},
{
horizontal = 1;
origin = (0,14);
target = (0,11);
type = Stem;
},
{
horizontal = 1;
origin = (0,3);
target = (0,6);
type = Stem;
},
{
horizontal = 1;
origin = (0,18);
target = (1,5);
type = Stem;
},
{
origin = (0,21);
target = (1,2);
type = Stem;
},
{
origin = (0,3);
target = (0,6);
type = Stem;
}
);
layerId = "6AFC1D6D-393E-4CF1-A9CC-89EE1F1F13FA";
shapes = (
{
closed = 1;
nodes = (
(841,-26,o),
(1067,109,o),
(1203,304,c),
(1160,0,l),
(1908,0,l),
(1929,140,l),
(1321,140,l),
(1390,630,l),
(1902,630,l),
(1921,770,l),
(1409,770,l),
(1478,1260,l),
(2086,1260,l),
(2105,1400,l),
(1357,1400,l),
(1315,1096,l),
(1233,1291,o),
(1045,1426,o),
(810,1426,cs),
(430,1426,o),
(74,1100,o),
(18,700,cs),
(-38,300,o),
(226,-26,o),
(606,-26,cs)
);
},
{
closed = 1;
nodes = (
(322,114,o),
(112,378,o),
(158,700,cs),
(202,1018,o),
(484,1286,o),
(790,1286,cs),
(1093,1286,o),
(1303,1021,o),
(1258,700,cs),
(1213,382,o),
(931,114,o),
(625,114,cs)
);
}
);
width = 2149.33333;
}
);
metricLeft = O;
metricRight = E;
unicode = 338;
},
{
glyphname = P;
kernLeft = H;
kernRight = P;
lastChange = "2022-07-15 23:53:54 +0000";
layers = (
{
anchors = (
{
name = bottom;
pos = (570,0);
},
{
name = top;
pos = (570,1400);
}
);
hints = (
{
horizontal = 1;
origin = (0,10);
target = up;
type = BottomGhost;
},
{
horizontal = 1;
origin = (0,1);
target = (1,8);
type = Stem;
},
{
horizontal = 1;
origin = (0,9);
target = (1,0);
type = Stem;
},
{
origin = (0,10);
target = (0,0);
type = Stem;
},
{
origin = (1,4);
target = (0,5);
type = Stem;
}
);
layerId = "10BC12B3-5274-42E3-B5BC-F74F362F0DF4";
shapes = (
{
closed = 1;
nodes = (
(420,0,l),
(420,544,l),
(648,544,ls),
(870,544,o),
(1060,736,o),
(1060,972,cs),
(1060,1204,o),
(878,1400,o),
(648,1400,cs),
(120,1400,l),
(120,0,l)
);
},
{
closed = 1;
nodes = (
(420,1144,l),
(614,1144,ls),
(694,1144,o),
(760,1076,o),
(760,994,cs),
(760,912,o),
(694,844,o),
(614,844,cs),
(420,844,l)
);
}
);
width = 1140;
},
{
anchors = (
{
name = bottom;
pos = (500,0);
},
{
name = top;
pos = (500,1400);
}
);
hints = (
{
horizontal = 1;
origin = (0,10);
target = up;
type = BottomGhost;
},
{
horizontal = 1;
origin = (0,1);
target = (1,8);
type = Stem;
},
{
horizontal = 1;
origin = (0,9);
target = (1,0);
type = Stem;
},
{
origin = (0,10);
target = (0,0);
type = Stem;
},
{
origin = (1,4);
target = (0,5);
type = Stem;
}
);
layerId = "9AF1F7D9-E035-453E-B2A8-46DE370997D0";
shapes = (
{
closed = 1;
nodes = (
(180,0,l),
(180,600,l),
(528,600,ls),
(742,600,o),
(920,770,o),
(920,1000,cs),
(920,1228,o),
(748,1400,o),
(528,1400,cs),
(120,1400,l),
(120,0,l)
);
},
{
closed = 1;
nodes = (
(180,1340,l),
(528,1340,ls),
(710,1340,o),
(860,1196,o),
(860,1000,cs),
(860,804,o),
(710,660,o),
(528,660,cs),
(180,660,l)
);
}
);
width = 1000;
},
{
anchors = (
{
name = bottom;
pos = (359,0);
},
{
name = top;
pos = (556,1400);
}
);
hints = (
{
horizontal = 1;
origin = (0,10);
target = up;
type = BottomGhost;
},
{
horizontal = 1;
origin = (0,1);
target = (1,8);
type = Stem;
},
{
horizontal = 1;
origin = (0,9);
target = (1,0);
type = Stem;
},
{
origin = (0,10);
target = (0,0);
type = Stem;
},
{
origin = (1,4);
target = (0,5);
type = Stem;
}
);
layerId = m003;
shapes = (
{
closed = 1;
nodes = (
(39,0,l),
(124,600,l),
(472,600,ls),
(686,600,o),
(888,770,o),
(920,1000,cs),
(952,1228,o),
(804,1400,o),
(584,1400,cs),
(176,1400,l),
(-21,0,l)
);
},
{
closed = 1;
nodes = (
(228,1340,l),
(576,1340,ls),
(758,1340,o),
(888,1196,o),
(860,1000,cs),
(832,804,o),
(662,660,o),
(480,660,cs),
(132,660,l)
);
}
);
width = 1000;
},
{
anchors = (
{
name = bottom;
pos = (429,0);
},
{
name = top;
pos = (626,1400);
}
);
hints = (
{
horizontal = 1;
origin = (0,10);
target = up;
type = BottomGhost;
},
{
horizontal = 1;
origin = (0,1);
target = (1,8);
type = Stem;
},
{
horizontal = 1;
origin = (0,9);
target = (1,0);
type = Stem;
},
{
origin = (0,10);
target = (0,0);
type = Stem;
},
{
origin = (1,4);
target = (0,5);
type = Stem;
}
);
layerId = m004;
shapes = (
{
closed = 1;
nodes = (
(279,0,l),
(356,544,l),
(584,544,ls),
(806,544,o),
(1023,736,o),
(1056,972,cs),
(1089,1204,o),
(934,1400,o),
(704,1400,cs),
(176,1400,l),
(-21,0,l)
);
},
{
closed = 1;
nodes = (
(440,1144,l),
(634,1144,ls),
(714,1144,o),
(771,1076,o),
(759,994,cs),
(748,912,o),
(672,844,o),
(592,844,cs),
(398,844,l)
);
}
);
width = 1140;
},
{
anchors = (
{
name = bottom;
pos = (523,0);
},
{
name = top;
pos = (523,1400);
}
);
hints = (
{
horizontal = 1;
origin = (0,10);
target = up;
type = BottomGhost;
},
{
horizontal = 1;
origin = (0,1);
target = (1,8);
type = Stem;
},
{
horizontal = 1;
origin = (0,9);
target = (1,0);
type = Stem;
},
{
origin = (0,10);
target = (0,0);
type = Stem;
},
{
origin = (1,4);
target = (0,5);
type = Stem;
}
);
layerId = "9C66D268-F658-4B53-B779-04C5E9DBD6C3";
shapes = (
{
closed = 1;
nodes = (
(260,0,l),
(260,581,l),
(568,581,ls),
(785,581,o),
(967,759,o),
(967,991,cs),
(967,1220,o),
(791,1400,o),
(568,1400,cs),
(120,1400,l),
(120,0,l)
);
},
{
closed = 1;
nodes = (
(260,1275,l),
(557,1275,ls),
(705,1275,o),
(827,1156,o),
(827,998,cs),
(827,840,o),
(705,721,o),
(557,721,cs),
(260,721,l)
);
}
);
width = 1046.66667;
},
{
anchors = (
{
name = bottom;
pos = (382,0);
},
{
name = top;
pos = (579,1400);
}
);
hints = (
{
horizontal = 1;
origin = (0,10);
target = up;
type = BottomGhost;
},
{
horizontal = 1;
origin = (0,1);
target = (1,8);
type = Stem;
},
{
horizontal = 1;
origin = (0,9);
target = (1,0);
type = Stem;
},
{
origin = (0,10);
target = (0,0);
type = Stem;
},
{
origin = (1,4);
target = (0,5);
type = Stem;
}
);
layerId = "6AFC1D6D-393E-4CF1-A9CC-89EE1F1F13FA";
shapes = (
{
closed = 1;
nodes = (
(119,0,l),
(201,581,l),
(509,581,ls),
(726,581,o),
(933,759,o),
(965,991,cs),
(998,1220,o),
(847,1400,o),
(624,1400,cs),
(176,1400,l),
(-21,0,l)
);
},
{
closed = 1;
nodes = (
(299,1275,l),
(595,1275,ls),
(743,1275,o),
(849,1156,o),
(826,998,cs),
(804,840,o),
(665,721,o),
(517,721,cs),
(221,721,l)
);
}
);
width = 1046.66667;
}
);
metricLeft = H;
unicode = 80;
},
{
glyphname = Thorn;
kernLeft = l;
kernRight = o;
lastChange = "2022-07-15 23:53:54 +0000";
layers = (
{
anchors = (
{
name = bottom;
pos = (570,0);
},
{
name = top;
pos = (570,1400);
}
);
hints = (
{
horizontal = 1;
origin = (0,12);
target = up;
type = BottomGhost;
},
{
horizontal = 1;
origin = (0,1);
target = (1,8);
type = Stem;
},
{
horizontal = 1;
origin = (1,0);
target = (0,9);
type = Stem;
},
{
horizontal = 1;
origin = (0,11);
target = down;
type = TopGhost;
},
{
origin = (0,12);
target = (0,0);
type = Stem;
},
{
origin = (1,4);
target = (0,5);
type = Stem;
}
);
layerId = "10BC12B3-5274-42E3-B5BC-F74F362F0DF4";
shapes = (
{
closed = 1;
nodes = (
(420,0,l),
(420,272,l),
(648,272,ls),
(870,272,o),
(1060,464,o),
(1060,700,cs),
(1060,932,o),
(878,1128,o),
(648,1128,cs),
(420,1128,l),
(420,1400,l),
(120,1400,l),
(120,0,l)
);
},
{
closed = 1;
nodes = (
(420,872,l),
(614,872,ls),
(694,872,o),
(760,804,o),
(760,722,cs),
(760,640,o),
(694,572,o),
(614,572,cs),
(420,572,l)
);
}
);
width = 1120;
},
{
anchors = (
{
name = bottom;
pos = (500,0);
},
{
name = top;
pos = (500,1400);
}
);
hints = (
{
horizontal = 1;
origin = (0,12);
target = up;
type = BottomGhost;
},
{
horizontal = 1;
origin = (0,1);
target = (1,8);
type = Stem;
},
{
horizontal = 1;
origin = (1,0);
target = (0,9);
type = Stem;
},
{
horizontal = 1;
origin = (0,11);
target = down;
type = TopGhost;
},
{
origin = (0,12);
target = (0,0);
type = Stem;
},
{
origin = (1,4);
target = (0,5);
type = Stem;
}
);
layerId = "9AF1F7D9-E035-453E-B2A8-46DE370997D0";
shapes = (
{
closed = 1;
nodes = (
(180,0,l),
(180,300,l),
(528,300,ls),
(742,300,o),
(920,470,o),
(920,700,cs),
(920,928,o),
(748,1100,o),
(528,1100,cs),
(180,1100,l),
(180,1400,l),
(120,1400,l),
(120,0,l)
);
},
{
closed = 1;
nodes = (
(180,1040,l),
(528,1040,ls),
(710,1040,o),
(860,896,o),
(860,700,cs),
(860,504,o),
(710,360,o),
(528,360,cs),
(180,360,l)
);
}
);
width = 980;
},
{
anchors = (
{
name = bottom;
pos = (359,0);
},
{
name = top;
pos = (556,1400);
}
);
hints = (
{
horizontal = 1;
origin = (0,12);
target = up;
type = BottomGhost;
},
{
horizontal = 1;
origin = (0,1);
target = (1,8);
type = Stem;
},
{
horizontal = 1;
origin = (1,0);
target = (0,9);
type = Stem;
},
{
horizontal = 1;
origin = (0,11);
target = down;
type = TopGhost;
},
{
origin = (0,12);
target = (0,0);
type = Stem;
},
{
origin = (1,4);
target = (0,5);
type = Stem;
}
);
layerId = m003;
shapes = (
{
closed = 1;
nodes = (
(39,0,l),
(82,300,l),
(430,300,ls),
(644,300,o),
(846,470,o),
(878,700,cs),
(910,928,o),
(762,1100,o),
(542,1100,cs),
(194,1100,l),
(236,1400,l),
(176,1400,l),
(-21,0,l)
);
},
{
closed = 1;
nodes = (
(186,1040,l),
(534,1040,ls),
(716,1040,o),
(845,896,o),
(818,700,cs),
(790,504,o),
(620,360,o),
(438,360,cs),
(90,360,l)
);
}
);
width = 980;
},
{
anchors = (
{
name = bottom;
pos = (429,0);
},
{
name = top;
pos = (626,1400);
}
);
hints = (
{
horizontal = 1;
origin = (0,12);
target = up;
type = BottomGhost;
},
{
horizontal = 1;
origin = (0,1);
target = (1,8);
type = Stem;
},
{
horizontal = 1;
origin = (1,0);
target = (0,9);
type = Stem;
},
{
horizontal = 1;
origin = (0,11);
target = down;
type = TopGhost;
},
{
origin = (0,12);
target = (0,0);
type = Stem;
},
{
origin = (1,4);
target = (0,5);
type = Stem;
}
);
layerId = m004;
shapes = (
{
closed = 1;
nodes = (
(279,0,l),
(318,272,l),
(546,272,ls),
(768,272,o),
(985,464,o),
(1018,700,cs),
(1050,932,o),
(896,1128,o),
(666,1128,cs),
(438,1128,l),
(476,1400,l),
(176,1400,l),
(-21,0,l)
);
},
{
closed = 1;
nodes = (
(402,872,l),
(596,872,ls),
(676,872,o),
(732,804,o),
(721,722,cs),
(709,640,o),
(634,572,o),
(554,572,cs),
(360,572,l)
);
}
);
width = 1120;
},
{
anchors = (
{
name = bottom;
pos = (523,0);
},
{
name = top;
pos = (523,1400);
}
);
hints = (
{
horizontal = 1;
origin = (0,12);
target = up;
type = BottomGhost;
},
{
horizontal = 1;
origin = (0,1);
target = (1,8);
type = Stem;
},
{
horizontal = 1;
origin = (1,0);
target = (0,9);
type = Stem;
},
{
horizontal = 1;
origin = (0,11);
target = down;
type = TopGhost;
},
{
origin = (0,12);
target = (0,0);
type = Stem;
},
{
origin = (1,4);
target = (0,5);
type = Stem;
}
);
layerId = "9C66D268-F658-4B53-B779-04C5E9DBD6C3";
shapes = (
{
closed = 1;
nodes = (
(260,0,l),
(260,291,l),
(568,291,ls),
(785,291,o),
(967,468,o),
(967,700,cs),
(967,929,o),
(791,1109,o),
(568,1109,cs),
(260,1109,l),
(260,1400,l),
(120,1400,l),
(120,0,l)
);
},
{
closed = 1;
nodes = (
(260,984,l),
(557,984,ls),
(705,984,o),
(827,865,o),
(827,707,cs),
(827,549,o),
(705,431,o),
(557,431,cs),
(260,431,l)
);
}
);
width = 1026.66667;
},
{
anchors = (
{
name = bottom;
pos = (382,0);
},
{
name = top;
pos = (579,1400);
}
);
hints = (
{
horizontal = 1;
origin = (0,12);
target = up;
type = BottomGhost;
},
{
horizontal = 1;
origin = (0,1);
target = (1,8);
type = Stem;
},
{
horizontal = 1;
origin = (1,0);
target = (0,9);
type = Stem;
},
{
horizontal = 1;
origin = (0,11);
target = down;
type = TopGhost;
},
{
origin = (0,12);
target = (0,0);
type = Stem;
},
{
origin = (1,4);
target = (0,5);
type = Stem;
}
);
layerId = "6AFC1D6D-393E-4CF1-A9CC-89EE1F1F13FA";
shapes = (
{
closed = 1;
nodes = (
(119,0,l),
(161,291,l),
(469,291,ls),
(685,291,o),
(892,468,o),
(925,700,cs),
(957,929,o),
(807,1109,o),
(583,1109,cs),
(275,1109,l),
(316,1400,l),
(176,1400,l),
(-21,0,l)
);
},
{
closed = 1;
nodes = (
(258,984,l),
(555,984,ls),
(703,984,o),
(807,865,o),
(786,707,cs),
(763,549,o),
(625,431,o),
(477,431,cs),
(180,431,l)
);
}
);
width = 1026.66667;
}
);
metricLeft = H;
metricRight = o;
unicode = 222;
},
{
glyphname = Q;
kernLeft = O;
kernRight = O;
lastChange = "2022-07-15 23:53:54 +0000";
layers = (
{
anchors = (
{
name = bottom;
pos = (792,0);
},
{
name = top;
pos = (792,1400);
}
);
hints = (
{
horizontal = 1;
origin = (0,13);
target = (1,17);
type = Stem;
},
{
horizontal = 1;
origin = (1,5);
target = (0,7);
type = Stem;
},
{
origin = (0,10);
target = (1,2);
type = Stem;
},
{
origin = (1,8);
target = (0,4);
type = Stem;
}
);
layerId = "10BC12B3-5274-42E3-B5BC-F74F362F0DF4";
shapes = (
{
closed = 1;
nodes = (
(1504,160,l),
(1350,314,l),
(1418,428,o),
(1460,562,o),
(1460,708,cs),
(1460,1108,o),
(1150,1434,o),
(770,1434,cs),
(390,1434,o),
(80,1108,o),
(80,708,cs),
(80,306,o),
(390,-18,o),
(770,-18,cs),
(908,-18,o),
(1036,24,o),
(1142,96,c),
(1292,-52,l)
);
},
{
closed = 1;
nodes = (
(556,282,o),
(380,472,o),
(380,708,cs),
(380,942,o),
(556,1134,o),
(770,1134,cs),
(984,1134,o),
(1160,942,o),
(1160,708,cs),
(1160,648,o),
(1148,590,o),
(1126,538,c),
(1052,612,l),
(840,400,l),
(924,316,l),
(876,294,o),
(824,282,o),
(770,282,cs)
);
}
);
width = 1584;
},
{
anchors = (
{
name = bottom;
pos = (769,0);
},
{
name = top;
pos = (769,1400);
}
);
hints = (
{
horizontal = 1;
origin = (0,17);
target = up;
type = BottomGhost;
},
{
horizontal = 1;
origin = (0,7);
target = (1,5);
type = Stem;
},
{
horizontal = 1;
origin = (0,13);
target = (1,17);
type = Stem;
},
{
origin = (0,10);
target = (1,2);
type = Stem;
},
{
origin = (1,8);
target = (0,4);
type = Stem;
}
);
layerId = "9AF1F7D9-E035-453E-B2A8-46DE370997D0";
shapes = (
{
closed = 1;
nodes = (
(1454,32,l),
(1276,208,l),
(1390,338,o),
(1458,510,o),
(1458,700,cs),
(1458,1100,o),
(1150,1426,o),
(770,1426,cs),
(388,1426,o),
(80,1100,o),
(80,700,cs),
(80,300,o),
(388,-26,o),
(770,-26,cs),
(948,-26,o),
(1112,46,o),
(1236,166,c),
(1412,-10,l)
);
},
{
closed = 1;
nodes = (
(424,34,o),
(140,334,o),
(140,700,cs),
(140,1058,o),
(418,1366,o),
(770,1366,cs),
(1114,1366,o),
(1398,1066,o),
(1398,700,cs),
(1398,536,o),
(1340,376,o),
(1234,252,c),
(966,520,l),
(924,476,l),
(1192,208,l),
(1082,98,o),
(924,34,o),
(770,34,cs)
);
}
);
width = 1538;
},
{
anchors = (
{
name = bottom;
pos = (628,0);
},
{
name = top;
pos = (825,1400);
}
);
hints = (
{
horizontal = 1;
origin = (0,17);
target = up;
type = BottomGhost;
},
{
horizontal = 1;
origin = (0,7);
target = (1,5);
type = Stem;
},
{
horizontal = 1;
origin = (0,13);
target = (1,17);
type = Stem;
},
{
origin = (0,10);
target = (1,2);
type = Stem;
},
{
origin = (1,8);
target = (0,4);
type = Stem;
}
);
layerId = m003;
shapes = (
{
closed = 1;
nodes = (
(1318,32,l),
(1165,208,l),
(1297,338,o),
(1389,510,o),
(1416,700,cs),
(1472,1100,o),
(1210,1426,o),
(830,1426,cs),
(448,1426,o),
(94,1100,o),
(38,700,cs),
(-18,300,o),
(244,-26,o),
(626,-26,cs),
(804,-26,o),
(978,46,o),
(1119,166,c),
(1270,-10,l)
);
},
{
closed = 1;
nodes = (
(288,34,o),
(46,334,o),
(98,700,cs),
(148,1058,o),
(469,1366,o),
(821,1366,cs),
(1165,1366,o),
(1407,1066,o),
(1356,700,cs),
(1333,536,o),
(1252,376,o),
(1129,252,c),
(899,520,l),
(850,476,l),
(1081,208,l),
(955,98,o),
(788,34,o),
(634,34,cs)
);
}
);
width = 1538;
},
{
anchors = (
{
name = bottom;
pos = (651,0);
},
{
name = top;
pos = (848,1400);
}
);
hints = (
{
horizontal = 1;
origin = (0,13);
target = (1,17);
type = Stem;
},
{
horizontal = 1;
origin = (1,5);
target = (0,7);
type = Stem;
},
{
origin = (0,10);
target = (1,2);
type = Stem;
},
{
origin = (1,8);
target = (0,4);
type = Stem;
}
);
layerId = m004;
shapes = (
{
closed = 1;
nodes = (
(1386,160,l),
(1254,314,l),
(1338,428,o),
(1398,562,o),
(1419,708,cs),
(1475,1108,o),
(1211,1434,o),
(831,1434,cs),
(451,1434,o),
(95,1108,o),
(39,708,cs),
(-18,306,o),
(247,-18,o),
(627,-18,cs),
(765,-18,o),
(899,24,o),
(1015,96,c),
(1144,-52,l)
);
},
{
closed = 1;
nodes = (
(455,282,o),
(306,472,o),
(339,708,cs),
(372,942,o),
(575,1134,o),
(789,1134,cs),
(1003,1134,o),
(1152,942,o),
(1119,708,cs),
(1111,648,o),
(1090,590,o),
(1061,538,c),
(997,612,l),
(756,400,l),
(828,316,l),
(777,294,o),
(723,282,o),
(669,282,cs)
);
}
);
width = 1584;
},
{
anchors = (
{
name = bottom;
pos = (777,0);
},
{
name = top;
pos = (777,1400);
}
);
hints = (
{
horizontal = 1;
origin = (0,17);
target = up;
type = BottomGhost;
},
{
horizontal = 1;
origin = (0,7);
target = (1,5);
type = Stem;
},
{
horizontal = 1;
origin = (0,13);
target = (1,17);
type = Stem;
},
{
origin = (0,10);
target = (1,2);
type = Stem;
},
{
origin = (1,8);
target = (0,4);
type = Stem;
}
);
layerId = "9C66D268-F658-4B53-B779-04C5E9DBD6C3";
shapes = (
{
closed = 1;
nodes = (
(1471,75,l),
(1301,243,l),
(1399,368,o),
(1459,527,o),
(1459,703,cs),
(1459,1103,o),
(1150,1429,o),
(770,1429,cs),
(389,1429,o),
(80,1103,o),
(80,703,cs),
(80,302,o),
(389,-23,o),
(770,-23,cs),
(935,-23,o),
(1087,39,o),
(1205,143,c),
(1372,-24,l)
);
},
{
closed = 1;
nodes = (
(468,117,o),
(220,380,o),
(220,703,cs),
(220,1019,o),
(464,1289,o),
(770,1289,cs),
(1071,1289,o),
(1319,1025,o),
(1319,703,cs),
(1319,573,o),
(1276,447,o),
(1198,347,c),
(995,551,l),
(896,451,l),
(1103,244,l),
(1013,163,o),
(891,117,o),
(770,117,cs)
);
}
);
width = 1553.33333;
},
{
anchors = (
{
name = bottom;
pos = (636,0);
},
{
name = top;
pos = (833,1400);
}
);
hints = (
{
horizontal = 1;
origin = (0,17);
target = up;
type = BottomGhost;
},
{
horizontal = 1;
origin = (0,7);
target = (1,5);
type = Stem;
},
{
horizontal = 1;
origin = (0,13);
target = (1,17);
type = Stem;
},
{
origin = (0,10);
target = (1,2);
type = Stem;
},
{
origin = (1,8);
target = (0,4);
type = Stem;
}
);
layerId = "6AFC1D6D-393E-4CF1-A9CC-89EE1F1F13FA";
shapes = (
{
closed = 1;
nodes = (
(1341,75,l),
(1195,243,l),
(1311,368,o),
(1392,527,o),
(1417,703,cs),
(1473,1103,o),
(1210,1429,o),
(830,1429,cs),
(449,1429,o),
(94,1103,o),
(38,703,cs),
(-18,302,o),
(245,-23,o),
(626,-23,cs),
(791,-23,o),
(952,39,o),
(1084,143,c),
(1228,-24,l)
);
},
{
closed = 1;
nodes = (
(344,117,o),
(133,380,o),
(178,703,cs),
(223,1019,o),
(504,1289,o),
(810,1289,cs),
(1111,1289,o),
(1322,1025,o),
(1277,703,cs),
(1259,573,o),
(1198,447,o),
(1106,347,c),
(932,551,l),
(819,451,l),
(997,244,l),
(896,163,o),
(766,117,o),
(646,117,cs)
);
}
);
width = 1553.33333;
}
);
unicode = 81;
},
{
glyphname = R;
kernLeft = H;
kernRight = R;
lastChange = "2022-07-15 23:53:54 +0000";
layers = (
{
anchors = (
{
name = bottom;
pos = (633,0);
},
{
name = top;
pos = (524,1400);
}
);
hints = (
{
horizontal = 1;
origin = (0,13);
target = up;
type = BottomGhost;
},
{
horizontal = 1;
origin = (0,1);
target = (1,8);
type = Stem;
},
{
horizontal = 1;
origin = (0,12);
target = (1,0);
type = Stem;
},
{
origin = (0,13);
target = (0,0);
type = Stem;
},
{
origin = (1,4);
target = (0,8);
type = Stem;
}
);
layerId = "10BC12B3-5274-42E3-B5BC-F74F362F0DF4";
shapes = (
{
closed = 1;
nodes = (
(420,0,l),
(420,544,l),
(524,544,l),
(840,0,l),
(1186,0,l),
(854,572,l),
(1004,644,o),
(1100,792,o),
(1100,972,cs),
(1100,1206,o),
(920,1400,o),
(690,1400,cs),
(120,1400,l),
(120,0,l)
);
},
{
closed = 1;
nodes = (
(420,1144,l),
(654,1144,ls),
(734,1144,o),
(800,1076,o),
(800,994,cs),
(800,912,o),
(734,844,o),
(654,844,cs),
(420,844,l)
);
}
);
width = 1266;
},
{
anchors = (
{
name = bottom;
pos = (505,0);
},
{
name = top;
pos = (394,1400);
}
);
hints = (
{
horizontal = 1;
origin = (0,13);
target = up;
type = BottomGhost;
},
{
horizontal = 1;
origin = (0,1);
target = (1,8);
type = Stem;
},
{
horizontal = 1;
origin = (0,12);
target = (1,0);
type = Stem;
},
{
horizontal = 1;
origin = (0,5);
target = (1,8);
type = Stem;
},
{
origin = (0,13);
target = (0,0);
type = Stem;
},
{
origin = (1,4);
target = (0,8);
type = Stem;
}
);
layerId = "9AF1F7D9-E035-453E-B2A8-46DE370997D0";
shapes = (
{
closed = 1;
nodes = (
(180,0,l),
(180,600,l),
(512,600,l),
(860,0,l),
(930,0,l),
(582,602,l),
(780,618,o),
(940,782,o),
(940,1000,cs),
(940,1228,o),
(768,1400,o),
(548,1400,cs),
(120,1400,l),
(120,0,l)
);
},
{
closed = 1;
nodes = (
(180,1340,l),
(548,1340,ls),
(730,1340,o),
(880,1196,o),
(880,1000,cs),
(880,804,o),
(730,660,o),
(548,660,cs),
(180,660,l)
);
}
);
width = 1040;
},
{
anchors = (
{
name = bottom;
pos = (364,0);
},
{
name = top;
pos = (450,1400);
}
);
hints = (
{
horizontal = 1;
origin = (0,13);
target = up;
type = BottomGhost;
},
{
horizontal = 1;
origin = (0,1);
target = (1,8);
type = Stem;
},
{
horizontal = 1;
origin = (0,12);
target = (1,0);
type = Stem;
},
{
horizontal = 1;
origin = (0,5);
target = (1,8);
type = Stem;
},
{
origin = (0,13);
target = (0,0);
type = Stem;
},
{
origin = (1,4);
target = (0,8);
type = Stem;
}
);
layerId = m003;
shapes = (
{
closed = 1;
nodes = (
(39,0,l),
(124,600,l),
(456,600,l),
(719,0,l),
(789,0,l),
(526,602,l),
(726,618,o),
(909,782,o),
(940,1000,cs),
(972,1228,o),
(824,1400,o),
(604,1400,cs),
(176,1400,l),
(-21,0,l)
);
},
{
closed = 1;
nodes = (
(228,1340,l),
(596,1340,ls),
(778,1340,o),
(908,1196,o),
(880,1000,cs),
(852,804,o),
(682,660,o),
(500,660,cs),
(132,660,l)
);
}
);
width = 1040;
},
{
anchors = (
{
name = bottom;
pos = (492,0);
},
{
name = top;
pos = (580,1400);
}
);
hints = (
{
horizontal = 1;
origin = (0,13);
target = up;
type = BottomGhost;
},
{
horizontal = 1;
origin = (0,1);
target = (1,8);
type = Stem;
},
{
horizontal = 1;
origin = (0,12);
target = (1,0);
type = Stem;
},
{
origin = (0,13);
target = (0,0);
type = Stem;
},
{
origin = (1,4);
target = (0,8);
type = Stem;
}
);
layerId = m004;
shapes = (
{
closed = 1;
nodes = (
(279,0,l),
(356,544,l),
(460,544,l),
(699,0,l),
(1045,0,l),
(794,572,l),
(954,644,o),
(1071,792,o),
(1096,972,cs),
(1129,1206,o),
(976,1400,o),
(746,1400,cs),
(176,1400,l),
(-21,0,l)
);
},
{
closed = 1;
nodes = (
(440,1144,l),
(674,1144,ls),
(754,1144,o),
(811,1076,o),
(799,994,cs),
(788,912,o),
(712,844,o),
(632,844,cs),
(398,844,l)
);
}
);
width = 1266;
},
{
anchors = (
{
name = bottom;
pos = (548,0);
},
{
name = top;
pos = (437,1400);
}
);
hints = (
{
horizontal = 1;
origin = (0,13);
target = up;
type = BottomGhost;
},
{
horizontal = 1;
origin = (0,1);
target = (1,8);
type = Stem;
},
{
horizontal = 1;
origin = (0,12);
target = (1,0);
type = Stem;
},
{
horizontal = 1;
origin = (0,5);
target = (1,8);
type = Stem;
},
{
origin = (0,13);
target = (0,0);
type = Stem;
},
{
origin = (1,4);
target = (0,8);
type = Stem;
}
);
layerId = "9C66D268-F658-4B53-B779-04C5E9DBD6C3";
shapes = (
{
closed = 1;
nodes = (
(260,0,l),
(260,581,l),
(516,581,l),
(853,0,l),
(1015,0,l),
(673,592,l),
(855,627,o),
(993,785,o),
(993,991,cs),
(993,1221,o),
(819,1400,o),
(595,1400,cs),
(120,1400,l),
(120,0,l)
);
},
{
closed = 1;
nodes = (
(260,1275,l),
(583,1275,ls),
(731,1275,o),
(853,1156,o),
(853,998,cs),
(853,840,o),
(731,721,o),
(583,721,cs),
(260,721,l)
);
}
);
width = 1115.33333;
},
{
anchors = (
{
name = bottom;
pos = (407,0);
},
{
name = top;
pos = (493,1400);
}
);
hints = (
{
horizontal = 1;
origin = (0,13);
target = up;
type = BottomGhost;
},
{
horizontal = 1;
origin = (0,1);
target = (1,8);
type = Stem;
},
{
horizontal = 1;
origin = (0,12);
target = (1,0);
type = Stem;
},
{
horizontal = 1;
origin = (0,5);
target = (1,8);
type = Stem;
},
{
origin = (0,13);
target = (0,0);
type = Stem;
},
{
origin = (1,4);
target = (0,8);
type = Stem;
}
);
layerId = "6AFC1D6D-393E-4CF1-A9CC-89EE1F1F13FA";
shapes = (
{
closed = 1;
nodes = (
(119,0,l),
(201,581,l),
(457,581,l),
(712,0,l),
(874,0,l),
(615,592,l),
(802,627,o),
(963,785,o),
(992,991,cs),
(1024,1221,o),
(875,1400,o),
(651,1400,cs),
(176,1400,l),
(-21,0,l)
);
},
{
closed = 1;
nodes = (
(299,1275,l),
(622,1275,ls),
(770,1275,o),
(876,1156,o),
(853,998,cs),
(831,840,o),
(692,721,o),
(544,721,cs),
(221,721,l)
);
}
);
width = 1115.33333;
}
);
metricLeft = H;
unicode = 82;
},
{
glyphname = S;
kernLeft = S;
kernRight = S;
lastChange = "2022-07-15 23:53:54 +0000";
layers = (
{
anchors = (
{
name = bottom;
pos = (685,0);
},
{
name = top;
pos = (544,1400);
}
);
hints = (
{
horizontal = 1;
place = (-26, 300);
place = (-26, 300);
type = Stem;
},
{
horizontal = 1;
place = (1401, -277);
place = (1401, -277);
type = Stem;
},
{
place = (100, 300);
place = (100, 300);
type = Stem;
},
{
place = (864, 300);
place = (864, 300);
type = Stem;
}
);
layerId = "10BC12B3-5274-42E3-B5BC-F74F362F0DF4";
shapes = (
{
closed = 1;
nodes = (
(853,-26,o),
(1075,156,o),
(1075,412,cs),
(1075,693,o),
(836,814,o),
(542,889,cs),
(478,905,o),
(405,951,o),
(405,1014,cs),
(405,1074,o),
(480,1111,o),
(543,1111,cs),
(599,1111,o),
(682,1085,o),
(713,1016,c),
(986,1144,l),
(920,1289,o),
(750,1413,o),
(544,1413,cs),
(311,1413,o),
(105,1247,o),
(105,1014,cs),
(105,807,o),
(274,633,o),
(599,576,cs),
(685,561,o),
(776,493,o),
(776,410,cs),
(776,326,o),
(678,276,o),
(591,276,cs),
(477,276,o),
(344,372,o),
(308,424,c),
(60,254,l),
(167,96,o),
(403,-26,o),
(593,-26,cs)
);
}
);
width = 1135;
},
{
anchors = (
{
name = bottom;
pos = (663,0);
},
{
name = top;
pos = (520,1400);
}
);
hints = (
{
horizontal = 1;
place = (-26, 60);
place = (-26, 60);
type = Stem;
},
{
horizontal = 1;
place = (1418, 60);
place = (1418, 60);
type = Stem;
},
{
place = (110, 60);
place = (110, 60);
type = Stem;
},
{
place = (1028, 60);
place = (1028, 60);
type = Stem;
}
);
layerId = "9AF1F7D9-E035-453E-B2A8-46DE370997D0";
shapes = (
{
closed = 1;
nodes = (
(805,-26,o),
(1013,124,o),
(1013,349,cs),
(1013,559,o),
(831,711,o),
(493,780,cs),
(324,815,o),
(200,943,o),
(200,1083,cs),
(200,1241,o),
(351,1353,o),
(520,1353,cs),
(664,1353,o),
(807,1275,o),
(864,1149,c),
(918,1175,l),
(851,1323,o),
(683,1413,o),
(520,1413,cs),
(322,1413,o),
(141,1282,o),
(141,1082,cs),
(141,897,o),
(301,758,o),
(484,721,cs),
(798,656,o),
(953,525,o),
(953,349,cs),
(953,155,o),
(766,34,o),
(581,34,cs),
(394,34,o),
(187,168,o),
(109,280,c),
(60,247,l),
(138,127,o),
(368,-26,o),
(580,-26,cs)
);
}
);
width = 1073;
},
{
anchors = (
{
name = bottom;
pos = (522,0);
},
{
name = top;
pos = (576,1400);
}
);
hints = (
{
horizontal = 1;
place = (-167, -81);
place = (-167, -81);
type = Stem;
},
{
horizontal = 1;
place = (1277, -81);
place = (1277, -81);
type = Stem;
},
{
place = (-31, -81);
place = (-31, -81);
type = Stem;
},
{
place = (887, -81);
place = (887, -81);
type = Stem;
}
);
layerId = m003;
shapes = (
{
closed = 1;
nodes = (
(661,-26,o),
(890,124,o),
(922,349,cs),
(951,559,o),
(790,711,o),
(462,780,cs),
(298,815,o),
(192,943,o),
(212,1083,cs),
(234,1241,o),
(401,1353,o),
(570,1353,cs),
(714,1353,o),
(846,1275,o),
(885,1149,c),
(943,1175,l),
(896,1323,o),
(741,1413,o),
(578,1413,cs),
(380,1413,o),
(181,1282,o),
(153,1082,cs),
(127,897,o),
(267,758,o),
(445,721,cs),
(750,656,o),
(886,525,o),
(862,349,cs),
(834,155,o),
(630,34,o),
(445,34,cs),
(258,34,o),
(70,168,o),
(8,280,c),
(-46,247,l),
(15,127,o),
(224,-26,o),
(436,-26,cs)
);
}
);
width = 1073;
},
{
anchors = (
{
name = bottom;
pos = (544,0);
},
{
name = top;
pos = (600,1400);
}
);
hints = (
{
horizontal = 1;
place = (-167, 159);
place = (-167, 159);
type = Stem;
},
{
horizontal = 1;
place = (1260, -418);
place = (1260, -418);
type = Stem;
},
{
place = (-41, 159);
place = (-41, 159);
type = Stem;
},
{
place = (723, 159);
place = (723, 159);
type = Stem;
}
);
layerId = m004;
shapes = (
{
closed = 1;
nodes = (
(709,-26,o),
(956,156,o),
(992,412,cs),
(1032,693,o),
(810,814,o),
(526,889,cs),
(465,905,o),
(398,951,o),
(407,1014,cs),
(415,1074,o),
(496,1111,o),
(559,1111,cs),
(615,1111,o),
(694,1085,o),
(715,1016,c),
(1006,1144,l),
(961,1289,o),
(808,1413,o),
(602,1413,cs),
(369,1413,o),
(140,1247,o),
(107,1014,cs),
(78,807,o),
(222,633,o),
(539,576,cs),
(623,561,o),
(705,493,o),
(693,410,cs),
(681,326,o),
(576,276,o),
(489,276,cs),
(375,276,o),
(256,372,o),
(227,424,c),
(-45,254,l),
(40,96,o),
(259,-26,o),
(449,-26,cs)
);
}
);
width = 1135;
},
{
anchors = (
{
name = bottom;
pos = (670,0);
},
{
name = top;
pos = (528,1400);
}
);
hints = (
{
horizontal = 1;
place = (-26, 140);
place = (-26, 140);
type = Stem;
},
{
horizontal = 1;
place = (1412, -52);
place = (1412, -52);
type = Stem;
},
{
place = (107, 140);
place = (107, 140);
type = Stem;
},
{
place = (973, 140);
place = (973, 140);
type = Stem;
}
);
layerId = "9C66D268-F658-4B53-B779-04C5E9DBD6C3";
shapes = (
{
closed = 1;
nodes = (
(821,-26,o),
(1034,135,o),
(1034,370,cs),
(1034,604,o),
(833,745,o),
(509,816,cs),
(375,845,o),
(268,946,o),
(268,1060,cs),
(268,1185,o),
(394,1272,o),
(528,1272,cs),
(642,1272,o),
(765,1212,o),
(814,1105,c),
(941,1165,l),
(874,1312,o),
(705,1413,o),
(528,1413,cs),
(318,1413,o),
(129,1270,o),
(129,1059,cs),
(129,867,o),
(292,716,o),
(522,673,cs),
(760,624,o),
(894,514,o),
(894,369,cs),
(894,212,o),
(737,115,o),
(584,115,cs),
(422,115,o),
(239,236,o),
(175,328,c),
(60,249,l),
(148,117,o),
(380,-26,o),
(584,-26,cs)
);
}
);
width = 1093.66667;
},
{
anchors = (
{
name = bottom;
pos = (529,0);
},
{
name = top;
pos = (584,1400);
}
);
hints = (
{
horizontal = 1;
place = (-167, -1);
place = (-167, -1);
type = Stem;
},
{
horizontal = 1;
place = (1271, -193);
place = (1271, -193);
type = Stem;
},
{
place = (-34, -1);
place = (-34, -1);
type = Stem;
},
{
place = (832, -1);
place = (832, -1);
type = Stem;
}
);
layerId = "6AFC1D6D-393E-4CF1-A9CC-89EE1F1F13FA";
shapes = (
{
closed = 1;
nodes = (
(677,-26,o),
(912,135,o),
(945,370,cs),
(978,604,o),
(797,745,o),
(483,816,cs),
(354,845,o),
(261,946,o),
(277,1060,cs),
(294,1185,o),
(433,1272,o),
(566,1272,cs),
(681,1272,o),
(795,1212,o),
(828,1105,c),
(964,1165,l),
(918,1312,o),
(763,1413,o),
(586,1413,cs),
(376,1413,o),
(167,1270,o),
(138,1059,cs),
(111,867,o),
(252,716,o),
(476,673,cs),
(708,624,o),
(826,514,o),
(806,369,cs),
(783,212,o),
(612,115,o),
(460,115,cs),
(297,115,o),
(132,236,o),
(81,328,c),
(-46,249,l),
(23,117,o),
(236,-26,o),
(440,-26,cs)
);
}
);
width = 1093.66667;
}
);
unicode = 83;
},
{
glyphname = Saltillo;
kernLeft = H;
kernRight = H;
lastChange = "2022-07-15 23:53:54 +0000";
layers = (
{
layerId = "9AF1F7D9-E035-453E-B2A8-46DE370997D0";
shapes = (
{
closed = 1;
nodes = (
(60,1500,l),
(70,603,l),
(110,603,l),
(120,1500,l)
);
}
);
width = 180;
},
{
layerId = "10BC12B3-5274-42E3-B5BC-F74F362F0DF4";
shapes = (
{
closed = 1;
nodes = (
(60,1500,l),
(110,603,l),
(310,603,l),
(360,1500,l)
);
}
);
width = 420;
},
{
layerId = m003;
shapes = (
{
closed = 1;
nodes = (
(130,1500,l),
(14,603,l),
(54,603,l),
(190,1500,l)
);
}
);
width = 180;
},
{
layerId = m004;
shapes = (
{
closed = 1;
nodes = (
(130,1500,l),
(54,603,l),
(254,603,l),
(430,1500,l)
);
}
);
width = 420;
},
{
layerId = "9C66D268-F658-4B53-B779-04C5E9DBD6C3";
shapes = (
{
closed = 1;
nodes = (
(60,1500,l),
(83,603,l),
(177,603,l),
(200,1500,l)
);
}
);
width = 260;
},
{
layerId = "6AFC1D6D-393E-4CF1-A9CC-89EE1F1F13FA";
shapes = (
{
closed = 1;
nodes = (
(130,1500,l),
(27,603,l),
(121,603,l),
(270,1500,l)
);
}
);
width = 260;
}
);
unicode = 42891;
},
{
glyphname = Germandbls;
kernLeft = Germandbls;
kernRight = Germandbls;
lastChange = "2022-07-15 23:53:54 +0000";
layers = (
{
anchors = (
{
name = bottom;
pos = (623,0);
},
{
name = top;
pos = (623,1400);
}
);
hints = (
{
horizontal = 1;
origin = (0,37);
target = (0,19);
type = Stem;
},
{
horizontal = 1;
place = (594, 144);
place = (594, 144);
type = Stem;
},
{
horizontal = 1;
origin = (0,33);
target = (0,4);
type = Stem;
},
{
origin = (0,37);
target = (0,0);
type = Stem;
},
{
origin = (0,7);
target = (0,30);
type = Stem;
},
{
origin = (0,15);
target = (0,24);
type = Stem;
}
);
layerId = "10BC12B3-5274-42E3-B5BC-F74F362F0DF4";
shapes = (
{
closed = 1;
nodes = (
(420,0,l),
(420,950,ls),
(420,1058,o),
(508,1144,o),
(594,1144,cs),
(680,1144,o),
(758,1148,o),
(758,1074,cs),
(758,1040,o),
(590,858,o),
(590,704,cs),
(590,594,l),
(672,594,ls),
(776,594,o),
(920,556,o),
(920,424,cs),
(920,292,o),
(776,254,o),
(672,254,cs),
(590,254,l),
(650,0,l),
(704,0,ls),
(936,0,o),
(1186,150,o),
(1186,422,cs),
(1186,586,o),
(1010,770,o),
(832,734,c),
(974,906,o),
(1058,972,o),
(1058,1068,cs),
(1058,1248,o),
(858,1400,o),
(650,1400,cs),
(358,1400,o),
(120,1162,o),
(120,870,cs),
(120,0,l)
);
}
);
width = 1246;
},
{
anchors = (
{
name = bottom;
pos = (535,0);
},
{
name = top;
pos = (535,1400);
}
);
hints = (
{
horizontal = 1;
origin = (0,37);
target = (0,19);
type = Stem;
},
{
horizontal = 1;
origin = (0,11);
target = (0,27);
type = Stem;
},
{
horizontal = 1;
origin = (0,4);
target = (0,33);
type = Stem;
},
{
origin = (0,37);
target = (0,0);
type = Stem;
},
{
origin = (0,7);
target = (0,30);
type = Stem;
},
{
origin = (0,15);
target = (0,24);
type = Stem;
}
);
layerId = "9AF1F7D9-E035-453E-B2A8-46DE370997D0";
shapes = (
{
closed = 1;
nodes = (
(180,0,l),
(180,994,ls),
(180,1184,o),
(332,1338,o),
(522,1338,cs),
(672,1338,o),
(804,1282,o),
(806,1152,cs),
(808,1032,o),
(510,754,o),
(518,694,cs),
(522,662,l),
(588,662,ls),
(754,662,o),
(950,568,o),
(950,364,cs),
(950,156,o),
(756,60,o),
(590,60,cs),
(496,60,l),
(516,0,l),
(590,0,ls),
(788,0,o),
(1010,122,o),
(1010,362,cs),
(1010,588,o),
(802,740,o),
(602,720,c),
(800,992,o),
(876,1070,o),
(876,1152,cs),
(876,1320,o),
(716,1398,o),
(526,1398,cs),
(302,1398,o),
(120,1216,o),
(120,992,cs),
(120,0,l)
);
}
);
width = 1070;
},
{
anchors = (
{
name = bottom;
pos = (394,0);
},
{
name = top;
pos = (591,1400);
}
);
hints = (
{
horizontal = 1;
origin = (0,37);
target = (0,19);
type = Stem;
},
{
horizontal = 1;
origin = (0,11);
target = (0,27);
type = Stem;
},
{
horizontal = 1;
origin = (0,4);
target = (0,33);
type = Stem;
},
{
origin = (0,37);
target = (0,0);
type = Stem;
},
{
origin = (0,7);
target = (0,30);
type = Stem;
},
{
origin = (0,15);
target = (0,24);
type = Stem;
}
);
layerId = m003;
shapes = (
{
closed = 1;
nodes = (
(39,0,l),
(179,994,ls),
(206,1184,o),
(380,1338,o),
(570,1338,cs),
(720,1338,o),
(844,1282,o),
(827,1152,cs),
(812,1032,o),
(475,754,o),
(475,694,cs),
(474,662,l),
(540,662,ls),
(706,662,o),
(889,568,o),
(861,364,cs),
(831,156,o),
(624,60,o),
(458,60,cs),
(364,60,l),
(375,0,l),
(449,0,ls),
(647,0,o),
(887,122,o),
(920,362,cs),
(952,588,o),
(765,740,o),
(563,720,c),
(799,992,o),
(886,1070,o),
(897,1152,cs),
(921,1320,o),
(772,1398,o),
(582,1398,cs),
(358,1398,o),
(150,1216,o),
(119,992,cs),
(-21,0,l)
);
}
);
width = 1070;
},
{
anchors = (
{
name = bottom;
pos = (482,0);
},
{
name = top;
pos = (679,1400);
}
);
hints = (
{
horizontal = 1;
origin = (0,37);
target = (0,19);
type = Stem;
},
{
horizontal = 1;
place = (453, 3);
place = (453, 3);
type = Stem;
},
{
horizontal = 1;
origin = (0,33);
target = (0,4);
type = Stem;
},
{
origin = (0,37);
target = (0,0);
type = Stem;
},
{
origin = (0,7);
target = (0,30);
type = Stem;
},
{
origin = (0,15);
target = (0,24);
type = Stem;
}
);
layerId = m004;
shapes = (
{
closed = 1;
nodes = (
(279,0,l),
(413,950,ls),
(428,1058,o),
(528,1144,o),
(614,1144,cs),
(700,1144,o),
(779,1148,o),
(768,1074,cs),
(764,1040,o),
(570,858,o),
(548,704,cs),
(533,594,l),
(615,594,ls),
(719,594,o),
(858,556,o),
(839,424,cs),
(820,292,o),
(671,254,o),
(567,254,cs),
(485,254,l),
(509,0,l),
(563,0,ls),
(795,0,o),
(1067,150,o),
(1105,422,cs),
(1128,586,o),
(978,770,o),
(795,734,c),
(961,906,o),
(1054,972,o),
(1068,1068,cs),
(1093,1248,o),
(914,1400,o),
(706,1400,cs),
(414,1400,o),
(143,1162,o),
(102,870,cs),
(-21,0,l)
);
}
);
width = 1246;
},
{
anchors = (
{
name = bottom;
pos = (564,0);
},
{
name = top;
pos = (564,1400);
}
);
hints = (
{
horizontal = 1;
origin = (0,37);
target = (0,19);
type = Stem;
},
{
horizontal = 1;
origin = (0,11);
target = (0,27);
type = Stem;
},
{
horizontal = 1;
origin = (0,4);
target = (0,33);
type = Stem;
},
{
origin = (0,37);
target = (0,0);
type = Stem;
},
{
origin = (0,7);
target = (0,30);
type = Stem;
},
{
origin = (0,15);
target = (0,24);
type = Stem;
}
);
layerId = "9C66D268-F658-4B53-B779-04C5E9DBD6C3";
shapes = (
{
closed = 1;
nodes = (
(260,0,l),
(260,979,ls),
(260,1142,o),
(391,1273,o),
(546,1273,cs),
(675,1273,o),
(789,1237,o),
(790,1126,cs),
(791,1035,o),
(537,789,o),
(542,697,cs),
(545,639,l),
(616,639,ls),
(761,639,o),
(940,564,o),
(940,384,cs),
(940,201,o),
(763,125,o),
(617,125,cs),
(527,125,l),
(561,0,l),
(628,0,ls),
(837,0,o),
(1069,131,o),
(1069,382,cs),
(1069,587,o),
(871,750,o),
(679,725,c),
(858,963,o),
(937,1037,o),
(937,1124,cs),
(937,1296,o),
(763,1399,o),
(567,1399,cs),
(321,1399,o),
(120,1198,o),
(120,951,cs),
(120,0,l)
);
}
);
width = 1128.66667;
},
{
anchors = (
{
name = bottom;
pos = (423,0);
},
{
name = top;
pos = (620,1400);
}
);
hints = (
{
horizontal = 1;
origin = (0,37);
target = (0,19);
type = Stem;
},
{
horizontal = 1;
origin = (0,11);
target = (0,27);
type = Stem;
},
{
horizontal = 1;
origin = (0,4);
target = (0,33);
type = Stem;
},
{
origin = (0,37);
target = (0,0);
type = Stem;
},
{
origin = (0,7);
target = (0,30);
type = Stem;
},
{
origin = (0,15);
target = (0,24);
type = Stem;
}
);
layerId = "6AFC1D6D-393E-4CF1-A9CC-89EE1F1F13FA";
shapes = (
{
closed = 1;
nodes = (
(119,0,l),
(257,979,ls),
(280,1142,o),
(429,1273,o),
(585,1273,cs),
(713,1273,o),
(822,1237,o),
(807,1126,cs),
(796,1035,o),
(507,789,o),
(499,697,cs),
(494,639,l),
(565,639,ls),
(710,639,o),
(879,564,o),
(854,384,cs),
(827,201,o),
(640,125,o),
(494,125,cs),
(404,125,l),
(420,0,l),
(487,0,ls),
(696,0,o),
(947,131,o),
(982,382,cs),
(1011,587,o),
(836,750,o),
(640,725,c),
(853,963,o),
(942,1037,o),
(954,1124,cs),
(978,1296,o),
(819,1399,o),
(623,1399,cs),
(377,1399,o),
(148,1198,o),
(113,951,cs),
(-21,0,l)
);
}
);
width = 1128.66667;
}
);
unicode = 7838;
},
{
glyphname = T;
kernLeft = T;
kernRight = T;
lastChange = "2022-07-15 23:53:54 +0000";
layers = (
{
anchors = (
{
name = bottom;
pos = (630,0);
},
{
name = center;
pos = (630,700);
},
{
name = top;
pos = (630,1400);
}
);
hints = (
{
horizontal = 1;
origin = (0,3);
target = up;
type = BottomGhost;
},
{
horizontal = 1;
origin = (0,0);
target = (0,1);
type = Stem;
},
{
origin = (0,3);
target = (0,4);
type = Stem;
}
);
layerId = "10BC12B3-5274-42E3-B5BC-F74F362F0DF4";
shapes = (
{
closed = 1;
nodes = (
(80,1400,l),
(80,1100,l),
(480,1100,l),
(480,0,l),
(780,0,l),
(780,1100,l),
(1180,1100,l),
(1180,1400,l)
);
}
);
width = 1260;
},
{
anchors = (
{
name = bottom;
pos = (628,0);
},
{
name = center;
pos = (629,700);
},
{
name = top;
pos = (629,1400);
}
);
hints = (
{
horizontal = 1;
origin = (0,3);
target = up;
type = BottomGhost;
},
{
horizontal = 1;
origin = (0,0);
target = (0,1);
type = Stem;
},
{
origin = (0,3);
target = (0,4);
type = Stem;
}
);
layerId = "9AF1F7D9-E035-453E-B2A8-46DE370997D0";
shapes = (
{
closed = 1;
nodes = (
(80,1400,l),
(80,1340,l),
(598,1340,l),
(598,0,l),
(658,0,l),
(658,1340,l),
(1178,1340,l),
(1178,1400,l)
);
}
);
width = 1258;
},
{
anchors = (
{
name = bottom;
pos = (487,0);
},
{
name = center;
pos = (587,700);
},
{
name = top;
pos = (685,1400);
}
);
hints = (
{
horizontal = 1;
origin = (0,3);
target = up;
type = BottomGhost;
},
{
horizontal = 1;
origin = (0,0);
target = (0,1);
type = Stem;
},
{
origin = (0,3);
target = (0,4);
type = Stem;
}
);
layerId = m003;
shapes = (
{
closed = 1;
nodes = (
(136,1400,l),
(128,1340,l),
(646,1340,l),
(457,0,l),
(517,0,l),
(706,1340,l),
(1226,1340,l),
(1234,1400,l)
);
}
);
width = 1258;
},
{
anchors = (
{
name = bottom;
pos = (489,0);
},
{
name = center;
pos = (588,700);
},
{
name = top;
pos = (686,1400);
}
);
hints = (
{
horizontal = 1;
origin = (0,3);
target = up;
type = BottomGhost;
},
{
horizontal = 1;
origin = (0,0);
target = (0,1);
type = Stem;
},
{
origin = (0,3);
target = (0,4);
type = Stem;
}
);
layerId = m004;
shapes = (
{
closed = 1;
nodes = (
(136,1400,l),
(94,1100,l),
(494,1100,l),
(339,0,l),
(639,0,l),
(794,1100,l),
(1194,1100,l),
(1236,1400,l)
);
}
);
width = 1260;
},
{
anchors = (
{
name = bottom;
pos = (629,0);
},
{
name = center;
pos = (629,700);
},
{
name = top;
pos = (629,1400);
}
);
hints = (
{
horizontal = 1;
origin = (0,3);
target = up;
type = BottomGhost;
},
{
horizontal = 1;
origin = (0,0);
target = (0,1);
type = Stem;
},
{
origin = (0,3);
target = (0,4);
type = Stem;
}
);
layerId = "9C66D268-F658-4B53-B779-04C5E9DBD6C3";
shapes = (
{
closed = 1;
nodes = (
(80,1400,l),
(80,1260,l),
(559,1260,l),
(559,0,l),
(699,0,l),
(699,1260,l),
(1179,1260,l),
(1179,1400,l)
);
}
);
width = 1258.66667;
},
{
anchors = (
{
name = bottom;
pos = (488,0);
},
{
name = center;
pos = (587,700);
},
{
name = top;
pos = (685,1400);
}
);
hints = (
{
horizontal = 1;
origin = (0,3);
target = up;
type = BottomGhost;
},
{
horizontal = 1;
origin = (0,0);
target = (0,1);
type = Stem;
},
{
origin = (0,3);
target = (0,4);
type = Stem;
}
);
layerId = "6AFC1D6D-393E-4CF1-A9CC-89EE1F1F13FA";
shapes = (
{
closed = 1;
nodes = (
(136,1400,l),
(117,1260,l),
(595,1260,l),
(418,0,l),
(558,0,l),
(735,1260,l),
(1215,1260,l),
(1235,1400,l)
);
}
);
width = 1258.66667;
}
);
unicode = 84;
},
{
glyphname = U;
kernLeft = U;
kernRight = U;
lastChange = "2022-07-15 23:53:54 +0000";
layers = (
{
anchors = (
{
name = bottom;
pos = (689,0);
},
{
name = ogonek;
pos = (862,0);
},
{
name = top;
pos = (689,1400);
},
{
name = topright;
pos = (1358,1400);
}
);
hints = (
{
horizontal = 1;
origin = (0,17);
target = (0,8);
type = Stem;
},
{
horizontal = 1;
origin = (0,13);
target = down;
type = TopGhost;
},
{
origin = (0,14);
target = (0,11);
type = Stem;
},
{
origin = (0,5);
target = (0,2);
type = Stem;
}
);
layerId = "10BC12B3-5274-42E3-B5BC-F74F362F0DF4";
shapes = (
{
closed = 1;
nodes = (
(1026,-26,o),
(1258,246,o),
(1258,584,cs),
(1258,1400,l),
(958,1400,l),
(958,584,ls),
(958,412,o),
(862,274,o),
(690,274,cs),
(520,274,o),
(420,414,o),
(420,584,cs),
(420,1400,l),
(120,1400,l),
(120,584,ls),
(120,246,o),
(354,-26,o),
(690,-26,cs)
);
}
);
width = 1378;
},
{
anchors = (
{
name = bottom;
pos = (650,0);
},
{
name = ogonek;
pos = (739,-16);
},
{
name = top;
pos = (650,1400);
},
{
name = topright;
pos = (1280,1400);
}
);
hints = (
{
horizontal = 1;
origin = (0,17);
target = (0,8);
type = Stem;
},
{
horizontal = 1;
origin = (0,13);
target = down;
type = TopGhost;
},
{
origin = (0,14);
target = (0,11);
type = Stem;
},
{
origin = (0,5);
target = (0,2);
type = Stem;
}
);
layerId = "9AF1F7D9-E035-453E-B2A8-46DE370997D0";
shapes = (
{
closed = 1;
nodes = (
(986,-26,o),
(1180,246,o),
(1180,584,cs),
(1180,1400,l),
(1120,1400,l),
(1120,584,ls),
(1120,288,o),
(958,34,o),
(650,34,cs),
(346,34,o),
(180,284,o),
(180,584,cs),
(180,1400,l),
(120,1400,l),
(120,584,ls),
(120,246,o),
(314,-26,o),
(650,-26,cs)
);
}
);
width = 1300;
},
{
anchors = (
{
name = bottom;
pos = (509,0);
},
{
name = ogonek;
pos = (596,-16);
},
{
name = top;
pos = (706,1400);
},
{
name = topright;
pos = (1336,1400);
}
);
hints = (
{
horizontal = 1;
origin = (0,17);
target = (0,8);
type = Stem;
},
{
horizontal = 1;
origin = (0,13);
target = down;
type = TopGhost;
},
{
origin = (0,14);
target = (0,11);
type = Stem;
},
{
origin = (0,5);
target = (0,2);
type = Stem;
}
);
layerId = m003;
shapes = (
{
closed = 1;
nodes = (
(842,-26,o),
(1074,246,o),
(1122,584,cs),
(1236,1400,l),
(1176,1400,l),
(1062,584,ls),
(1020,288,o),
(822,34,o),
(514,34,cs),
(210,34,o),
(79,284,o),
(122,584,cs),
(236,1400,l),
(176,1400,l),
(62,584,ls),
(14,246,o),
(170,-26,o),
(506,-26,cs)
);
}
);
width = 1300;
},
{
anchors = (
{
name = bottom;
pos = (548,0);
},
{
name = ogonek;
pos = (721,0);
},
{
name = top;
pos = (745,1400);
},
{
name = topright;
pos = (1414,1400);
}
);
hints = (
{
horizontal = 1;
origin = (0,17);
target = (0,8);
type = Stem;
},
{
horizontal = 1;
origin = (0,13);
target = down;
type = TopGhost;
},
{
origin = (0,14);
target = (0,11);
type = Stem;
},
{
origin = (0,5);
target = (0,2);
type = Stem;
}
);
layerId = m004;
shapes = (
{
closed = 1;
nodes = (
(882,-26,o),
(1152,246,o),
(1200,584,cs),
(1314,1400,l),
(1014,1400,l),
(900,584,ls),
(875,412,o),
(760,274,o),
(588,274,cs),
(418,274,o),
(338,414,o),
(362,584,cs),
(476,1400,l),
(176,1400,l),
(62,584,ls),
(14,246,o),
(210,-26,o),
(546,-26,cs)
);
}
);
width = 1378;
},
{
anchors = (
{
name = bottom;
pos = (663,0);
},
{
name = ogonek;
pos = (780,-11);
},
{
name = top;
pos = (663,1400);
},
{
name = topright;
pos = (1306,1400);
}
);
hints = (
{
horizontal = 1;
origin = (0,17);
target = (0,8);
type = Stem;
},
{
horizontal = 1;
origin = (0,13);
target = down;
type = TopGhost;
},
{
origin = (0,14);
target = (0,11);
type = Stem;
},
{
origin = (0,5);
target = (0,2);
type = Stem;
}
);
layerId = "9C66D268-F658-4B53-B779-04C5E9DBD6C3";
shapes = (
{
closed = 1;
nodes = (
(999,-26,o),
(1206,246,o),
(1206,584,cs),
(1206,1400,l),
(1066,1400,l),
(1066,584,ls),
(1066,329,o),
(926,114,o),
(663,114,cs),
(404,114,o),
(260,327,o),
(260,584,cs),
(260,1400,l),
(120,1400,l),
(120,584,ls),
(120,246,o),
(327,-26,o),
(663,-26,cs)
);
}
);
width = 1326;
},
{
anchors = (
{
name = bottom;
pos = (522,0);
},
{
name = ogonek;
pos = (638,-11);
},
{
name = top;
pos = (719,1400);
},
{
name = topright;
pos = (1362,1400);
}
);
hints = (
{
horizontal = 1;
origin = (0,17);
target = (0,8);
type = Stem;
},
{
horizontal = 1;
origin = (0,13);
target = down;
type = TopGhost;
},
{
origin = (0,14);
target = (0,11);
type = Stem;
},
{
origin = (0,5);
target = (0,2);
type = Stem;
}
);
layerId = "6AFC1D6D-393E-4CF1-A9CC-89EE1F1F13FA";
shapes = (
{
closed = 1;
nodes = (
(855,-26,o),
(1100,246,o),
(1148,584,cs),
(1262,1400,l),
(1122,1400,l),
(1008,584,ls),
(972,329,o),
(801,114,o),
(539,114,cs),
(279,114,o),
(165,327,o),
(202,584,cs),
(316,1400,l),
(176,1400,l),
(62,584,ls),
(14,246,o),
(183,-26,o),
(519,-26,cs)
);
}
);
width = 1326;
}
);
unicode = 85;
},
{
glyphname = V;
kernLeft = W;
kernRight = W;
lastChange = "2022-07-15 23:53:54 +0000";
layers = (
{
anchors = (
{
name = bottom;
pos = (802,0);
},
{
name = top;
pos = (802,1400);
}
);
hints = (
{
horizontal = 1;
origin = (0,6);
target = up;
type = BottomGhost;
},
{
horizontal = 1;
origin = (0,5);
target = down;
type = TopGhost;
}
);
layerId = "10BC12B3-5274-42E3-B5BC-F74F362F0DF4";
shapes = (
{
closed = 1;
nodes = (
(996,0,l),
(1504,1400,l),
(1186,1400,l),
(802,344,l),
(418,1400,l),
(100,1400,l),
(608,0,l)
);
}
);
width = 1604;
},
{
anchors = (
{
name = bottom;
pos = (559,0);
},
{
name = top;
pos = (559,1400);
}
);
hints = (
{
horizontal = 1;
origin = (0,6);
target = up;
type = BottomGhost;
},
{
horizontal = 1;
origin = (0,5);
target = down;
type = TopGhost;
}
);
layerId = "9AF1F7D9-E035-453E-B2A8-46DE370997D0";
shapes = (
{
closed = 1;
nodes = (
(588,0,l),
(1098,1400,l),
(1034,1400,l),
(558,92,l),
(84,1400,l),
(20,1400,l),
(528,0,l)
);
}
);
width = 1118;
},
{
anchors = (
{
name = bottom;
pos = (418,0);
},
{
name = top;
pos = (615,1400);
}
);
hints = (
{
horizontal = 1;
origin = (0,6);
target = up;
type = BottomGhost;
},
{
horizontal = 1;
origin = (0,5);
target = down;
type = TopGhost;
}
);
layerId = m003;
shapes = (
{
closed = 1;
nodes = (
(447,0,l),
(1154,1400,l),
(1090,1400,l),
(430,92,l),
(140,1400,l),
(76,1400,l),
(387,0,l)
);
}
);
width = 1118;
},
{
anchors = (
{
name = bottom;
pos = (661,0);
},
{
name = top;
pos = (858,1400);
}
);
hints = (
{
horizontal = 1;
origin = (0,6);
target = up;
type = BottomGhost;
},
{
horizontal = 1;
origin = (0,5);
target = down;
type = TopGhost;
}
);
layerId = m004;
shapes = (
{
closed = 1;
nodes = (
(855,0,l),
(1560,1400,l),
(1242,1400,l),
(710,344,l),
(474,1400,l),
(156,1400,l),
(467,0,l)
);
}
);
width = 1604;
},
{
anchors = (
{
name = bottom;
pos = (640,0);
},
{
name = top;
pos = (640,1400);
}
);
hints = (
{
horizontal = 1;
origin = (0,6);
target = up;
type = BottomGhost;
},
{
horizontal = 1;
origin = (0,5);
target = down;
type = TopGhost;
}
);
layerId = "9C66D268-F658-4B53-B779-04C5E9DBD6C3";
shapes = (
{
closed = 1;
nodes = (
(724,0,l),
(1233,1400,l),
(1085,1400,l),
(639,176,l),
(195,1400,l),
(47,1400,l),
(555,0,l)
);
}
);
width = 1280;
},
{
anchors = (
{
name = bottom;
pos = (499,0);
},
{
name = top;
pos = (696,1400);
}
);
hints = (
{
horizontal = 1;
origin = (0,6);
target = up;
type = BottomGhost;
},
{
horizontal = 1;
origin = (0,5);
target = down;
type = TopGhost;
}
);
layerId = "6AFC1D6D-393E-4CF1-A9CC-89EE1F1F13FA";
shapes = (
{
closed = 1;
nodes = (
(583,0,l),
(1289,1400,l),
(1141,1400,l),
(523,176,l),
(251,1400,l),
(103,1400,l),
(414,0,l)
);
}
);
width = 1280;
}
);
metricLeft = W;
metricRight = W;
unicode = 86;
},
{
glyphname = W;
kernLeft = W;
kernRight = W;
lastChange = "2022-07-15 23:53:54 +0000";
layers = (
{
anchors = (
{
name = bottom;
pos = (980,0);
},
{
name = top;
pos = (980,1400);
}
);
hints = (
{
horizontal = 1;
origin = (0,12);
target = up;
type = BottomGhost;
},
{
horizontal = 1;
origin = (0,11);
target = down;
type = TopGhost;
}
);
layerId = "10BC12B3-5274-42E3-B5BC-F74F362F0DF4";
shapes = (
{
closed = 1;
nodes = (
(796,0,l),
(980,726,l),
(1166,0,l),
(1504,0,l),
(1860,1400,l),
(1550,1400,l),
(1334,552,l),
(1118,1400,l),
(842,1400,l),
(626,552,l),
(410,1400,l),
(100,1400,l),
(458,0,l)
);
}
);
width = 1960;
},
{
anchors = (
{
name = bottom;
pos = (776,0);
},
{
name = top;
pos = (776,1400);
}
);
hints = (
{
horizontal = 1;
origin = (0,12);
target = (0,9);
type = Stem;
},
{
horizontal = 1;
origin = (0,11);
target = down;
type = TopGhost;
}
);
layerId = "9AF1F7D9-E035-453E-B2A8-46DE370997D0";
shapes = (
{
closed = 1;
nodes = (
(456,0,l),
(776,1250,l),
(1096,0,l),
(1176,0,l),
(1532,1400,l),
(1470,1400,l),
(1136,86,l),
(800,1400,l),
(752,1400,l),
(418,86,l),
(82,1400,l),
(20,1400,l),
(378,0,l)
);
}
);
width = 1552;
},
{
anchors = (
{
name = bottom;
pos = (635,0);
},
{
name = top;
pos = (832,1400);
}
);
hints = (
{
horizontal = 1;
origin = (0,12);
target = (0,9);
type = Stem;
},
{
horizontal = 1;
origin = (0,11);
target = down;
type = TopGhost;
}
);
layerId = m003;
shapes = (
{
closed = 1;
nodes = (
(315,0,l),
(811,1250,l),
(955,0,l),
(1035,0,l),
(1588,1400,l),
(1526,1400,l),
(1008,86,l),
(856,1400,l),
(808,1400,l),
(290,86,l),
(138,1400,l),
(76,1400,l),
(237,0,l)
);
}
);
width = 1552;
},
{
anchors = (
{
name = bottom;
pos = (839,0);
},
{
name = top;
pos = (1036,1400);
}
);
hints = (
{
horizontal = 1;
origin = (0,12);
target = up;
type = BottomGhost;
},
{
horizontal = 1;
origin = (0,11);
target = down;
type = TopGhost;
}
);
layerId = m004;
shapes = (
{
closed = 1;
nodes = (
(655,0,l),
(941,726,l),
(1025,0,l),
(1363,0,l),
(1916,1400,l),
(1606,1400,l),
(1271,552,l),
(1174,1400,l),
(898,1400,l),
(563,552,l),
(466,1400,l),
(156,1400,l),
(317,0,l)
);
}
);
width = 1960;
},
{
anchors = (
{
name = bottom;
pos = (844,0);
},
{
name = top;
pos = (844,1400);
}
);
hints = (
{
horizontal = 1;
origin = (0,12);
target = (0,9);
type = Stem;
},
{
horizontal = 1;
origin = (0,11);
target = down;
type = TopGhost;
}
);
layerId = "9C66D268-F658-4B53-B779-04C5E9DBD6C3";
shapes = (
{
closed = 1;
nodes = (
(569,0,l),
(844,1075,l),
(1119,0,l),
(1285,0,l),
(1641,1400,l),
(1497,1400,l),
(1202,241,l),
(906,1400,l),
(782,1400,l),
(487,241,l),
(191,1400,l),
(47,1400,l),
(405,0,l)
);
}
);
width = 1688;
},
{
anchors = (
{
name = bottom;
pos = (703,0);
},
{
name = top;
pos = (900,1400);
}
);
hints = (
{
horizontal = 1;
origin = (0,12);
target = (0,9);
type = Stem;
},
{
horizontal = 1;
origin = (0,11);
target = down;
type = TopGhost;
}
);
layerId = "6AFC1D6D-393E-4CF1-A9CC-89EE1F1F13FA";
shapes = (
{
closed = 1;
nodes = (
(428,0,l),
(854,1075,l),
(978,0,l),
(1144,0,l),
(1697,1400,l),
(1553,1400,l),
(1096,241,l),
(962,1400,l),
(838,1400,l),
(381,241,l),
(247,1400,l),
(103,1400,l),
(264,0,l)
);
}
);
width = 1688;
}
);
unicode = 87;
},
{
glyphname = X;
kernLeft = X;
kernRight = X;
lastChange = "2022-07-15 23:53:54 +0000";
layers = (
{
anchors = (
{
name = bottom;
pos = (758,0);
},
{
name = top;
pos = (758,1400);
}
);
hints = (
{
horizontal = 1;
origin = (0,11);
target = up;
type = BottomGhost;
},
{
horizontal = 1;
origin = (0,9);
target = down;
type = TopGhost;
}
);
layerId = "10BC12B3-5274-42E3-B5BC-F74F362F0DF4";
shapes = (
{
closed = 1;
nodes = (
(432,0,l),
(758,448,l),
(1084,0,l),
(1456,0,l),
(944,704,l),
(1450,1400,l),
(1080,1400,l),
(758,958,l),
(436,1400,l),
(66,1400,l),
(572,704,l),
(60,0,l)
);
}
);
width = 1516;
},
{
anchors = (
{
name = bottom;
pos = (610,0);
},
{
name = top;
pos = (610,1400);
}
);
hints = (
{
horizontal = 1;
origin = (0,11);
target = up;
type = BottomGhost;
},
{
horizontal = 1;
origin = (0,9);
target = down;
type = TopGhost;
}
);
layerId = "9AF1F7D9-E035-453E-B2A8-46DE370997D0";
shapes = (
{
closed = 1;
nodes = (
(136,0,l),
(610,652,l),
(1086,0,l),
(1160,0,l),
(648,704,l),
(1154,1400,l),
(1080,1400,l),
(610,754,l),
(140,1400,l),
(66,1400,l),
(574,704,l),
(60,0,l)
);
}
);
width = 1220;
},
{
anchors = (
{
name = bottom;
pos = (469,0);
},
{
name = top;
pos = (666,1400);
}
);
hints = (
{
horizontal = 1;
origin = (0,11);
target = up;
type = BottomGhost;
},
{
horizontal = 1;
origin = (0,9);
target = down;
type = TopGhost;
}
);
layerId = m003;
shapes = (
{
closed = 1;
nodes = (
(-5,0,l),
(561,652,l),
(945,0,l),
(1019,0,l),
(606,704,l),
(1210,1400,l),
(1136,1400,l),
(575,754,l),
(196,1400,l),
(122,1400,l),
(532,704,l),
(-81,0,l)
);
}
);
width = 1220;
},
{
anchors = (
{
name = bottom;
pos = (617,0);
},
{
name = top;
pos = (814,1400);
}
);
hints = (
{
horizontal = 1;
origin = (0,11);
target = up;
type = BottomGhost;
},
{
horizontal = 1;
origin = (0,9);
target = down;
type = TopGhost;
}
);
layerId = m004;
shapes = (
{
closed = 1;
nodes = (
(291,0,l),
(680,448,l),
(943,0,l),
(1315,0,l),
(902,704,l),
(1506,1400,l),
(1136,1400,l),
(752,958,l),
(492,1400,l),
(122,1400,l),
(530,704,l),
(-81,0,l)
);
}
);
width = 1516;
},
{
anchors = (
{
name = bottom;
pos = (659,0);
},
{
name = top;
pos = (659,1400);
}
);
hints = (
{
horizontal = 1;
origin = (0,11);
target = up;
type = BottomGhost;
},
{
horizontal = 1;
origin = (0,9);
target = down;
type = TopGhost;
}
);
layerId = "9C66D268-F658-4B53-B779-04C5E9DBD6C3";
shapes = (
{
closed = 1;
nodes = (
(235,0,l),
(659,584,l),
(1085,0,l),
(1259,0,l),
(747,704,l),
(1253,1400,l),
(1080,1400,l),
(659,822,l),
(239,1400,l),
(66,1400,l),
(573,704,l),
(60,0,l)
);
}
);
width = 1318.66667;
},
{
anchors = (
{
name = bottom;
pos = (518,0);
},
{
name = top;
pos = (715,1400);
}
);
hints = (
{
horizontal = 1;
origin = (0,11);
target = up;
type = BottomGhost;
},
{
horizontal = 1;
origin = (0,9);
target = down;
type = TopGhost;
}
);
layerId = "6AFC1D6D-393E-4CF1-A9CC-89EE1F1F13FA";
shapes = (
{
closed = 1;
nodes = (
(94,0,l),
(601,584,l),
(944,0,l),
(1118,0,l),
(705,704,l),
(1309,1400,l),
(1136,1400,l),
(634,822,l),
(295,1400,l),
(122,1400,l),
(531,704,l),
(-81,0,l)
);
}
);
width = 1318.66667;
}
);
unicode = 88;
},
{
glyphname = Y;
kernLeft = Y;
kernRight = Y;
lastChange = "2022-07-15 23:53:54 +0000";
layers = (
{
anchors = (
{
name = bottom;
pos = (696,0);
},
{
name = top;
pos = (696,1400);
},
{
name = topleft;
pos = (20,1400);
}
);
hints = (
{
horizontal = 1;
origin = (0,4);
target = up;
type = BottomGhost;
},
{
horizontal = 1;
origin = (0,2);
target = down;
type = TopGhost;
},
{
origin = (0,4);
target = (0,5);
type = Stem;
}
);
layerId = "10BC12B3-5274-42E3-B5BC-F74F362F0DF4";
shapes = (
{
closed = 1;
nodes = (
(696,956,l),
(414,1400,l),
(60,1400,l),
(546,630,l),
(546,0,l),
(846,0,l),
(846,630,l),
(1332,1400,l),
(978,1400,l)
);
}
);
width = 1392;
},
{
anchors = (
{
name = bottom;
pos = (554,0);
},
{
name = top;
pos = (554,1400);
},
{
name = topleft;
pos = (20,1400);
}
);
hints = (
{
horizontal = 1;
origin = (0,4);
target = up;
type = BottomGhost;
},
{
horizontal = 1;
origin = (0,2);
target = down;
type = TopGhost;
},
{
origin = (0,4);
target = (0,5);
type = Stem;
}
);
layerId = "9AF1F7D9-E035-453E-B2A8-46DE370997D0";
shapes = (
{
closed = 1;
nodes = (
(554,702,l),
(130,1400,l),
(60,1400,l),
(524,636,l),
(524,0,l),
(584,0,l),
(584,636,l),
(1048,1400,l),
(978,1400,l)
);
}
);
width = 1108;
},
{
anchors = (
{
name = bottom;
pos = (413,0);
},
{
name = top;
pos = (610,1400);
},
{
name = topleft;
pos = (76,1400);
}
);
hints = (
{
horizontal = 1;
origin = (0,4);
target = up;
type = BottomGhost;
},
{
horizontal = 1;
origin = (0,2);
target = down;
type = TopGhost;
},
{
origin = (0,4);
target = (0,5);
type = Stem;
}
);
layerId = m003;
shapes = (
{
closed = 1;
nodes = (
(512,702,l),
(186,1400,l),
(116,1400,l),
(473,636,l),
(383,0,l),
(443,0,l),
(533,636,l),
(1104,1400,l),
(1034,1400,l)
);
}
);
width = 1108;
},
{
anchors = (
{
name = bottom;
pos = (555,0);
},
{
name = top;
pos = (752,1400);
},
{
name = topleft;
pos = (76,1400);
}
);
hints = (
{
horizontal = 1;
origin = (0,4);
target = up;
type = BottomGhost;
},
{
horizontal = 1;
origin = (0,2);
target = down;
type = TopGhost;
},
{
origin = (0,4);
target = (0,5);
type = Stem;
}
);
layerId = m004;
shapes = (
{
closed = 1;
nodes = (
(690,956,l),
(470,1400,l),
(116,1400,l),
(494,630,l),
(405,0,l),
(705,0,l),
(794,630,l),
(1388,1400,l),
(1034,1400,l)
);
}
);
width = 1392;
},
{
anchors = (
{
name = bottom;
pos = (601,0);
},
{
name = top;
pos = (601,1400);
},
{
name = topleft;
pos = (20,1400);
}
);
hints = (
{
horizontal = 1;
origin = (0,4);
target = up;
type = BottomGhost;
},
{
horizontal = 1;
origin = (0,2);
target = down;
type = TopGhost;
},
{
origin = (0,4);
target = (0,5);
type = Stem;
}
);
layerId = "9C66D268-F658-4B53-B779-04C5E9DBD6C3";
shapes = (
{
closed = 1;
nodes = (
(601,787,l),
(225,1400,l),
(60,1400,l),
(531,634,l),
(531,0,l),
(671,0,l),
(671,634,l),
(1143,1400,l),
(978,1400,l)
);
}
);
width = 1202.66667;
},
{
anchors = (
{
name = bottom;
pos = (460,0);
},
{
name = top;
pos = (657,1400);
},
{
name = topleft;
pos = (76,1400);
}
);
hints = (
{
horizontal = 1;
origin = (0,4);
target = up;
type = BottomGhost;
},
{
horizontal = 1;
origin = (0,2);
target = down;
type = TopGhost;
},
{
origin = (0,4);
target = (0,5);
type = Stem;
}
);
layerId = "6AFC1D6D-393E-4CF1-A9CC-89EE1F1F13FA";
shapes = (
{
closed = 1;
nodes = (
(571,787,l),
(281,1400,l),
(116,1400,l),
(480,634,l),
(390,0,l),
(530,0,l),
(620,634,l),
(1199,1400,l),
(1034,1400,l)
);
}
);
width = 1202.66667;
}
);
unicode = 89;
},
{
glyphname = Z;
kernLeft = Z;
kernRight = Z;
lastChange = "2022-07-15 23:53:54 +0000";
layers = (
{
anchors = (
{
name = bottom;
pos = (646,0);
},
{
name = center;
pos = (646,700);
},
{
name = top;
pos = (646,1400);
}
);
hints = (
{
horizontal = 1;
origin = (0,9);
target = (0,8);
type = Stem;
},
{
horizontal = 1;
origin = (0,5);
target = (0,6);
type = Stem;
}
);
layerId = "10BC12B3-5274-42E3-B5BC-F74F362F0DF4";
shapes = (
{
closed = 1;
nodes = (
(1212,0,l),
(1212,300,l),
(486,300,l),
(1212,1100,l),
(1212,1400,l),
(80,1400,l),
(80,1100,l),
(806,1100,l),
(80,300,l),
(80,0,l)
);
}
);
width = 1292;
},
{
anchors = (
{
name = bottom;
pos = (646,0);
},
{
name = center;
pos = (646,700);
},
{
name = top;
pos = (646,1400);
}
);
hints = (
{
horizontal = 1;
origin = (0,9);
target = (0,8);
type = Stem;
},
{
horizontal = 1;
origin = (0,5);
target = (0,6);
type = Stem;
}
);
layerId = "9AF1F7D9-E035-453E-B2A8-46DE370997D0";
shapes = (
{
closed = 1;
nodes = (
(1212,0,l),
(1212,60,l),
(158,60,l),
(1212,1340,l),
(1212,1400,l),
(80,1400,l),
(80,1340,l),
(1134,1340,l),
(80,60,l),
(80,0,l)
);
}
);
width = 1292;
},
{
anchors = (
{
name = bottom;
pos = (505,0);
},
{
name = center;
pos = (604,700);
},
{
name = top;
pos = (702,1400);
}
);
hints = (
{
horizontal = 1;
origin = (0,9);
target = (0,8);
type = Stem;
},
{
horizontal = 1;
origin = (0,5);
target = (0,6);
type = Stem;
}
);
layerId = m003;
shapes = (
{
closed = 1;
nodes = (
(1071,0,l),
(1080,60,l),
(26,60,l),
(1260,1340,l),
(1268,1400,l),
(136,1400,l),
(128,1340,l),
(1182,1340,l),
(-52,60,l),
(-61,0,l)
);
}
);
width = 1292;
},
{
anchors = (
{
name = bottom;
pos = (505,0);
},
{
name = center;
pos = (604,700);
},
{
name = top;
pos = (702,1400);
}
);
hints = (
{
horizontal = 1;
origin = (0,9);
target = (0,8);
type = Stem;
},
{
horizontal = 1;
origin = (0,5);
target = (0,6);
type = Stem;
}
);
layerId = m004;
shapes = (
{
closed = 1;
nodes = (
(1071,0,l),
(1114,300,l),
(388,300,l),
(1226,1100,l),
(1268,1400,l),
(136,1400,l),
(94,1100,l),
(820,1100,l),
(-18,300,l),
(-61,0,l)
);
}
);
width = 1292;
},
{
anchors = (
{
name = bottom;
pos = (646,0);
},
{
name = center;
pos = (646,700);
},
{
name = top;
pos = (646,1400);
}
);
hints = (
{
horizontal = 1;
origin = (0,9);
target = (0,8);
type = Stem;
},
{
horizontal = 1;
origin = (0,5);
target = (0,6);
type = Stem;
}
);
layerId = "9C66D268-F658-4B53-B779-04C5E9DBD6C3";
shapes = (
{
closed = 1;
nodes = (
(1212,0,l),
(1212,140,l),
(267,140,l),
(1212,1260,l),
(1212,1400,l),
(80,1400,l),
(80,1260,l),
(1025,1260,l),
(80,140,l),
(80,0,l)
);
}
);
width = 1292;
},
{
anchors = (
{
name = bottom;
pos = (505,0);
},
{
name = center;
pos = (604,700);
},
{
name = top;
pos = (702,1400);
}
);
hints = (
{
horizontal = 1;
origin = (0,9);
target = (0,8);
type = Stem;
},
{
horizontal = 1;
origin = (0,5);
target = (0,6);
type = Stem;
}
);
layerId = "6AFC1D6D-393E-4CF1-A9CC-89EE1F1F13FA";
shapes = (
{
closed = 1;
nodes = (
(1071,0,l),
(1091,140,l),
(147,140,l),
(1249,1260,l),
(1268,1400,l),
(136,1400,l),
(117,1260,l),
(1061,1260,l),
(-41,140,l),
(-61,0,l)
);
}
);
width = 1292;
}
);
unicode = 90;
},
{
glyphname = a;
kernLeft = o;
kernRight = n;
lastChange = "2022-07-15 23:54:02 +0000";
layers = (
{
anchors = (
{
name = bottom;
pos = (623,0);
},
{
name = ogonek;
pos = (1138,0);
},
{
name = top;
pos = (623,1000);
}
);
hints = (
{
horizontal = 1;
origin = (0,9);
target = (0,12);
type = Stem;
},
{
horizontal = 1;
origin = (0,16);
target = down;
type = TopGhost;
},
{
horizontal = 1;
origin = (0,3);
target = (0,0);
type = Stem;
},
{
horizontal = 1;
origin = (0,13);
target = up;
type = BottomGhost;
},
{
origin = (0,16);
target = (0,14);
type = Stem;
}
);
layerId = "10BC12B3-5274-42E3-B5BC-F74F362F0DF4";
shapes = (
{
closed = 1;
nodes = (
(852,904,l),
(778,974,o),
(685,1028,o),
(570,1028,cs),
(287,1028,o),
(59,798,o),
(60,514,cs),
(59,216,o),
(300,-26,o),
(598,-26,cs),
(698,-26,o),
(773,20,o),
(823,90,c),
(837,0,l),
(1138,0,l),
(1138,1000,l),
(838,1000,l)
);
},
{
closed = 1;
nodes = (
(468,262,o),
(368,368,o),
(368,500,cs),
(368,632,o),
(465,738,o),
(590,738,cs),
(714,738,o),
(814,632,o),
(814,500,cs),
(814,368,o),
(714,262,o),
(590,262,cs)
);
}
);
width = 1218;
},
{
anchors = (
{
name = bottom;
pos = (582,0);
},
{
name = ogonek;
pos = (1054,0);
},
{
name = top;
pos = (582,1000);
}
);
hints = (
{
horizontal = 1;
origin = (0,9);
target = (1,11);
type = Stem;
},
{
horizontal = 1;
origin = (0,16);
target = down;
type = TopGhost;
},
{
horizontal = 1;
origin = (0,3);
target = (1,5);
type = Stem;
},
{
horizontal = 1;
origin = (0,13);
target = up;
type = BottomGhost;
},
{
origin = (0,6);
target = (1,2);
type = Stem;
},
{
origin = (0,13);
target = (0,14);
type = Stem;
},
{
origin = (1,8);
target = (0,14);
type = Stem;
}
);
layerId = "9AF1F7D9-E035-453E-B2A8-46DE370997D0";
shapes = (
{
closed = 1;
nodes = (
(994,768,l),
(922,924,o),
(780,1028,o),
(586,1028,cs),
(296,1028,o),
(60,792,o),
(60,500,cs),
(60,210,o),
(296,-26,o),
(586,-26,cs),
(780,-26,o),
(922,78,o),
(994,234,c),
(994,0,l),
(1054,0,l),
(1054,1000,l),
(994,1000,l)
);
},
{
closed = 1;
nodes = (
(336,34,o),
(120,238,o),
(120,500,cs),
(120,758,o),
(328,968,o),
(586,968,cs),
(840,968,o),
(990,762,o),
(990,500,cs),
(990,244,o),
(844,34,o),
(586,34,cs)
);
}
);
width = 1134;
},
{
anchors = (
{
name = bottom;
pos = (441,0);
},
{
name = ogonek;
pos = (913,0);
},
{
name = top;
pos = (582,1000);
}
);
hints = (
{
horizontal = 1;
origin = (0,9);
target = (1,11);
type = Stem;
},
{
horizontal = 1;
origin = (0,16);
target = down;
type = TopGhost;
},
{
horizontal = 1;
origin = (0,3);
target = (1,5);
type = Stem;
},
{
horizontal = 1;
origin = (0,13);
target = up;
type = BottomGhost;
},
{
origin = (0,6);
target = (1,2);
type = Stem;
},
{
origin = (0,13);
target = (0,14);
type = Stem;
},
{
origin = (1,8);
target = (0,14);
type = Stem;
}
);
layerId = m003;
shapes = (
{
closed = 1;
nodes = (
(961,768,l),
(911,924,o),
(784,1028,o),
(590,1028,cs),
(300,1028,o),
(31,792,o),
(-10,500,cs),
(-51,210,o),
(152,-26,o),
(442,-26,cs),
(636,-26,o),
(792,78,o),
(886,234,c),
(853,0,l),
(913,0,l),
(1054,1000,l),
(994,1000,l)
);
},
{
closed = 1;
nodes = (
(200,34,o),
(13,238,o),
(50,500,cs),
(86,758,o),
(324,968,o),
(582,968,cs),
(836,968,o),
(957,762,o),
(920,500,cs),
(884,244,o),
(708,34,o),
(450,34,cs)
);
}
);
width = 1134;
},
{
anchors = (
{
name = bottom;
pos = (482,0);
},
{
name = ogonek;
pos = (997,0);
},
{
name = top;
pos = (623,1000);
}
);
hints = (
{
horizontal = 1;
origin = (0,9);
target = (0,12);
type = Stem;
},
{
horizontal = 1;
origin = (0,16);
target = down;
type = TopGhost;
},
{
horizontal = 1;
origin = (0,3);
target = (0,0);
type = Stem;
},
{
horizontal = 1;
origin = (0,13);
target = up;
type = BottomGhost;
},
{
origin = (0,16);
target = (0,14);
type = Stem;
}
);
layerId = m004;
shapes = (
{
closed = 1;
nodes = (
(839,904,l),
(774,974,o),
(689,1028,o),
(574,1028,cs),
(291,1028,o),
(31,798,o),
(-8,514,cs),
(-51,216,o),
(156,-26,o),
(454,-26,cs),
(554,-26,o),
(635,20,o),
(695,90,c),
(696,0,l),
(997,0,l),
(1138,1000,l),
(838,1000,l)
);
},
{
closed = 1;
nodes = (
(364,262,o),
(279,368,o),
(298,500,cs),
(316,632,o),
(428,738,o),
(553,738,cs),
(677,738,o),
(762,632,o),
(744,500,cs),
(725,368,o),
(610,262,o),
(486,262,cs)
);
}
);
width = 1219;
},
{
anchors = (
{
name = bottom;
pos = (596,0);
},
{
name = ogonek;
pos = (1082,0);
},
{
name = top;
pos = (596,1000);
}
);
hints = (
{
horizontal = 1;
origin = (0,9);
target = (1,11);
type = Stem;
},
{
horizontal = 1;
origin = (0,16);
target = down;
type = TopGhost;
},
{
horizontal = 1;
origin = (0,3);
target = (1,5);
type = Stem;
},
{
horizontal = 1;
origin = (0,13);
target = up;
type = BottomGhost;
},
{
origin = (0,6);
target = (1,2);
type = Stem;
},
{
origin = (0,13);
target = (0,14);
type = Stem;
},
{
origin = (1,8);
target = (0,14);
type = Stem;
}
);
layerId = "9C66D268-F658-4B53-B779-04C5E9DBD6C3";
shapes = (
{
closed = 1;
nodes = (
(947,813,l),
(874,941,o),
(748,1028,o),
(581,1028,cs),
(293,1028,o),
(60,794,o),
(60,505,cs),
(60,212,o),
(297,-26,o),
(590,-26,cs),
(753,-26,o),
(872,59,o),
(937,186,c),
(942,0,l),
(1082,0,l),
(1082,1000,l),
(942,1000,l)
);
},
{
closed = 1;
nodes = (
(380,110,o),
(203,281,o),
(203,500,cs),
(203,716,o),
(374,891,o),
(587,891,cs),
(798,891,o),
(931,719,o),
(931,500,cs),
(931,285,o),
(801,110,o),
(587,110,cs)
);
}
);
width = 1162;
},
{
anchors = (
{
name = bottom;
pos = (455,0);
},
{
name = ogonek;
pos = (941,0);
},
{
name = top;
pos = (596,1000);
}
);
hints = (
{
horizontal = 1;
origin = (0,9);
target = (1,11);
type = Stem;
},
{
horizontal = 1;
origin = (0,16);
target = down;
type = TopGhost;
},
{
horizontal = 1;
origin = (0,3);
target = (1,5);
type = Stem;
},
{
horizontal = 1;
origin = (0,13);
target = up;
type = BottomGhost;
},
{
origin = (0,6);
target = (1,2);
type = Stem;
},
{
origin = (0,13);
target = (0,14);
type = Stem;
},
{
origin = (1,8);
target = (0,14);
type = Stem;
}
);
layerId = "6AFC1D6D-393E-4CF1-A9CC-89EE1F1F13FA";
shapes = (
{
closed = 1;
nodes = (
(920,813,l),
(865,941,o),
(752,1028,o),
(585,1028,cs),
(297,1028,o),
(31,794,o),
(-9,505,cs),
(-51,212,o),
(153,-26,o),
(446,-26,cs),
(609,-26,o),
(740,59,o),
(822,186,c),
(801,0,l),
(941,0,l),
(1082,1000,l),
(942,1000,l)
);
},
{
closed = 1;
nodes = (
(255,110,o),
(102,281,o),
(133,500,cs),
(163,716,o),
(359,891,o),
(572,891,cs),
(783,891,o),
(892,719,o),
(861,500,cs),
(831,285,o),
(675,110,o),
(462,110,cs)
);
}
);
width = 1162;
}
);
metricLeft = o;
metricRight = n;
unicode = 97;
},
{
glyphname = ae;
kernLeft = ae;
kernRight = e;
lastChange = "2022-07-15 23:54:02 +0000";
layers = (
{
anchors = (
{
name = bottom;
pos = (774,2);
},
{
name = top;
pos = (807,1002);
}
);
hints = (
{
horizontal = 1;
place = (-26, 180);
place = (-26, 180);
type = Stem;
},
{
horizontal = 1;
place = (402, 220);
place = (402, 220);
type = Stem;
},
{
horizontal = 1;
place = (768, 0);
place = (768, 0);
type = Stem;
},
{
horizontal = 1;
place = (1028, -260);
place = (1028, -260);
type = Stem;
},
{
place = (80, 290);
place = (80, 290);
type = Stem;
}
);
layerId = "10BC12B3-5274-42E3-B5BC-F74F362F0DF4";
shapes = (
{
closed = 1;
nodes = (
(543,-26,o),
(702,61,o),
(774,145,c),
(866,40,o),
(997,-26,o),
(1143,-26,cs),
(1343,-26,o),
(1515,98,o),
(1596,276,c),
(1290,347,l),
(1254,303,o),
(1203,274,o),
(1146,274,cs),
(1051,274,o),
(995,329,o),
(967,401,c),
(1634,401,l),
(1692,718,o),
(1465,1028,o),
(1143,1028,cs),
(1014,1028,o),
(896,976,o),
(807,892,c),
(722,980,o),
(602,1028,o),
(476,1028,cs),
(368,1028,o),
(261,997,o),
(171,935,c),
(337,686,l),
(379,714,o),
(428,728,o),
(480,728,cs),
(555,728,o),
(609,682,o),
(631,621,c),
(370,621,ls),
(177,621,o),
(30,470,o),
(30,298,cs),
(30,126,o),
(174,-26,o),
(370,-26,cs)
);
},
{
closed = 1;
nodes = (
(326,234,o),
(290,277,o),
(290,321,cs),
(290,365,o),
(326,401,o),
(370,401,cs),
(630,401,l),
(611,364,o),
(587,331,o),
(558,305,cs),
(508,260,o),
(444,234,o),
(370,234,cs)
);
},
{
closed = 1;
nodes = (
(985,707,o),
(1058,768,o),
(1143,768,cs),
(1229,768,o),
(1302,707,o),
(1331,621,c),
(956,621,l)
);
}
);
width = 1703;
},
{
anchors = (
{
name = bottom;
pos = (788,0);
},
{
name = top;
pos = (801,1000);
}
);
hints = (
{
horizontal = 1;
place = (0, 60);
place = (0, 60);
type = Stem;
},
{
horizontal = 1;
place = (496, 60);
place = (496, 60);
type = Stem;
},
{
horizontal = 1;
place = (994, 60);
place = (994, 60);
type = Stem;
},
{
place = (70, 60);
place = (70, 60);
type = Stem;
},
{
place = (848, 60);
place = (848, 60);
type = Stem;
},
{
place = (1786, 60);
place = (1786, 60);
type = Stem;
},
{
place = (848, 60);
place = (848, 60);
type = Stem;
}
);
layerId = "9AF1F7D9-E035-453E-B2A8-46DE370997D0";
shapes = (
{
closed = 1;
nodes = (
(524,-24,o),
(705,114,o),
(788,321,c),
(857,118,o),
(1042,-26,o),
(1258,-26,cs),
(1458,-26,o),
(1630,98,o),
(1710,276,c),
(1650,290,l),
(1570,130,o),
(1428,34,o),
(1258,34,cs),
(1028,34,o),
(838,220,o),
(818,470,c),
(1756,470,l),
(1750,804,o),
(1544,1028,o),
(1258,1028,cs),
(1054,1028,o),
(878,899,o),
(801,714,c),
(724,900,o),
(554,1028,o),
(352,1028,cs),
(295,1028,o),
(235,1017,o),
(177,994,c),
(208,941,l),
(255,959,o),
(304,968,o),
(352,968,cs),
(608,968,o),
(767,768,o),
(759,531,c),
(307,531,ls),
(131,531,o),
(30,400,o),
(30,250,cs),
(30,83,o),
(151,-24,o),
(315,-24,cs)
);
},
{
closed = 1;
nodes = (
(165,36,o),
(90,138,o),
(90,250,cs),
(90,375,o),
(173,471,o),
(307,471,cs),
(757,471,l),
(754,417,o),
(742,364,o),
(721,314,cs),
(654,156,o),
(503,36,o),
(315,36,cs)
);
},
{
closed = 1;
nodes = (
(834,772,o),
(1020,968,o),
(1258,968,cs),
(1494,968,o),
(1688,764,o),
(1696,530,c),
(818,530,l)
);
}
);
width = 1816;
},
{
anchors = (
{
name = bottom;
pos = (647,0);
},
{
name = top;
pos = (801,1000);
}
);
hints = (
{
horizontal = 1;
place = (-141, -81);
place = (-141, -81);
type = Stem;
},
{
horizontal = 1;
place = (355, -81);
place = (355, -81);
type = Stem;
},
{
horizontal = 1;
place = (853, -81);
place = (853, -81);
type = Stem;
},
{
place = (-71, -81);
place = (-71, -81);
type = Stem;
},
{
place = (707, -81);
place = (707, -81);
type = Stem;
},
{
place = (1645, -81);
place = (1645, -81);
type = Stem;
},
{
place = (707, -81);
place = (707, -81);
type = Stem;
}
);
layerId = m003;
shapes = (
{
closed = 1;
nodes = (
(380,-24,o),
(580,114,o),
(693,321,c),
(733,118,o),
(898,-26,o),
(1114,-26,cs),
(1314,-26,o),
(1503,98,o),
(1608,276,c),
(1550,290,l),
(1448,130,o),
(1292,34,o),
(1122,34,cs),
(892,34,o),
(728,220,o),
(744,470,c),
(1682,470,l),
(1722,804,o),
(1548,1028,o),
(1262,1028,cs),
(1058,1028,o),
(864,899,o),
(761,714,c),
(710,900,o),
(558,1028,o),
(356,1028,cs),
(299,1028,o),
(237,1017,o),
(176,994,c),
(200,941,l),
(249,959,o),
(300,968,o),
(348,968,cs),
(604,968,o),
(734,768,o),
(693,531,c),
(241,531,ls),
(65,531,o),
(-54,400,o),
(-75,250,cs),
(-99,83,o),
(7,-24,o),
(171,-24,cs)
);
},
{
closed = 1;
nodes = (
(30,36,o),
(-31,138,o),
(-15,250,cs),
(2,375,o),
(99,471,o),
(233,471,cs),
(683,471,l),
(672,417,o),
(653,364,o),
(625,314,cs),
(535,156,o),
(368,36,o),
(180,36,cs)
);
},
{
closed = 1;
nodes = (
(802,772,o),
(1016,968,o),
(1254,968,cs),
(1490,968,o),
(1655,764,o),
(1630,530,c),
(752,530,l)
);
}
);
width = 1816;
},
{
anchors = (
{
name = bottom;
pos = (634,2);
},
{
name = top;
pos = (807,1002);
}
);
hints = (
{
horizontal = 1;
place = (-167, 39);
place = (-167, 39);
type = Stem;
},
{
horizontal = 1;
place = (261, 79);
place = (261, 79);
type = Stem;
},
{
horizontal = 1;
place = (627, -141);
place = (627, -141);
type = Stem;
},
{
horizontal = 1;
place = (887, -401);
place = (887, -401);
type = Stem;
},
{
place = (-61, 149);
place = (-61, 149);
type = Stem;
}
);
layerId = m004;
shapes = (
{
closed = 1;
nodes = (
(399,-26,o),
(570,61,o),
(654,145,c),
(731,40,o),
(853,-26,o),
(999,-26,cs),
(1199,-26,o),
(1388,98,o),
(1494,276,c),
(1198,347,l),
(1156,303,o),
(1101,274,o),
(1044,274,cs),
(949,274,o),
(901,329,o),
(883,401,c),
(1550,401,l),
(1652,718,o),
(1469,1028,o),
(1147,1028,cs),
(1018,1028,o),
(893,976,o),
(792,892,c),
(719,980,o),
(606,1028,o),
(480,1028,cs),
(372,1028,o),
(261,997,o),
(162,935,c),
(293,686,l),
(339,714,o),
(390,728,o),
(442,728,cs),
(517,728,o),
(564,682,o),
(578,621,c),
(317,621,ls),
(124,621,o),
(-44,470,o),
(-69,298,cs),
(-93,126,o),
(30,-26,o),
(226,-26,cs)
);
},
{
closed = 1;
nodes = (
(218,234,o),
(188,277,o),
(195,321,cs),
(201,365,o),
(242,401,o),
(286,401,cs),
(546,401,l),
(522,364,o),
(493,331,o),
(460,305,cs),
(404,260,o),
(336,234,o),
(262,234,cs)
);
},
{
closed = 1;
nodes = (
(944,707,o),
(1025,768,o),
(1110,768,cs),
(1196,768,o),
(1261,707,o),
(1278,621,c),
(903,621,l)
);
}
);
width = 1703;
},
{
anchors = (
{
name = bottom;
pos = (783,1);
},
{
name = top;
pos = (803,1001);
}
);
hints = (
{
horizontal = 1;
place = (134, 113);
place = (134, 113);
type = Stem;
},
{
horizontal = 1;
place = (587, 40);
place = (587, 40);
type = Stem;
},
{
horizontal = 1;
place = (1005, -47);
place = (1005, -47);
type = Stem;
},
{
place = (47, 40);
place = (47, 40);
type = Stem;
},
{
place = (565, 40);
place = (565, 40);
type = Stem;
},
{
place = (1182, 100);
place = (1182, 100);
type = Stem;
},
{
place = (592, 137);
place = (592, 137);
type = Stem;
}
);
layerId = "9C66D268-F658-4B53-B779-04C5E9DBD6C3";
shapes = (
{
closed = 1;
nodes = (
(530,-25,o),
(704,96,o),
(783,262,c),
(860,92,o),
(1027,-26,o),
(1220,-26,cs),
(1420,-26,o),
(1592,98,o),
(1672,276,c),
(1530,309,l),
(1465,188,o),
(1353,114,o),
(1221,114,cs),
(1036,114,o),
(890,256,o),
(868,447,c),
(1715,447,l),
(1731,775,o),
(1518,1028,o),
(1220,1028,cs),
(1041,1028,o),
(884,925,o),
(803,773,c),
(723,927,o),
(570,1028,o),
(393,1028,cs),
(319,1028,o),
(244,1010,o),
(175,974,c),
(251,856,l),
(296,877,o),
(345,888,o),
(395,888,cs),
(590,888,o),
(714,739,o),
(716,561,c),
(328,561,ls),
(146,561,o),
(30,423,o),
(30,266,cs),
(30,97,o),
(159,-25,o),
(333,-25,cs)
);
},
{
closed = 1;
nodes = (
(219,102,o),
(157,184,o),
(157,274,cs),
(157,372,o),
(224,448,o),
(328,448,cs),
(715,448,l),
(706,399,o),
(690,353,o),
(667,311,cs),
(605,191,o),
(483,102,o),
(333,102,cs)
);
},
{
closed = 1;
nodes = (
(884,750,o),
(1033,901,o),
(1220,901,cs),
(1406,901,o),
(1559,745,o),
(1574,560,c),
(864,560,l)
);
}
);
width = 1776;
},
{
anchors = (
{
name = bottom;
pos = (643,1);
},
{
name = top;
pos = (803,1001);
}
);
hints = (
{
horizontal = 1;
place = (-7, -28);
place = (-7, -28);
type = Stem;
},
{
horizontal = 1;
place = (446, -101);
place = (446, -101);
type = Stem;
},
{
horizontal = 1;
place = (864, -188);
place = (864, -188);
type = Stem;
},
{
place = (-47, -54);
place = (-47, -54);
type = Stem;
},
{
place = (471, -54);
place = (471, -54);
type = Stem;
},
{
place = (1041, -41);
place = (1041, -41);
type = Stem;
},
{
place = (451, -4);
place = (451, -4);
type = Stem;
}
);
layerId = "6AFC1D6D-393E-4CF1-A9CC-89EE1F1F13FA";
shapes = (
{
closed = 1;
nodes = (
(386,-25,o),
(577,96,o),
(680,262,c),
(732,92,o),
(883,-26,o),
(1076,-26,cs),
(1276,-26,o),
(1465,98,o),
(1570,276,c),
(1433,309,l),
(1351,188,o),
(1228,114,o),
(1096,114,cs),
(911,114,o),
(786,256,o),
(790,447,c),
(1638,447,l),
(1699,775,o),
(1522,1028,o),
(1224,1028,cs),
(1045,1028,o),
(874,925,o),
(771,773,c),
(713,927,o),
(574,1028,o),
(397,1028,cs),
(323,1028,o),
(245,1010,o),
(171,974,c),
(231,856,l),
(279,877,o),
(330,888,o),
(379,888,cs),
(575,888,o),
(677,739,o),
(655,561,c),
(266,561,ls),
(85,561,o),
(-51,423,o),
(-73,266,cs),
(-97,97,o),
(15,-25,o),
(189,-25,cs)
);
},
{
closed = 1;
nodes = (
(93,102,o),
(42,184,o),
(55,274,cs),
(68,372,o),
(147,448,o),
(251,448,cs),
(637,448,l),
(622,399,o),
(600,353,o),
(570,311,cs),
(491,191,o),
(357,102,o),
(207,102,cs)
);
},
{
closed = 1;
nodes = (
(849,750,o),
(1019,901,o),
(1206,901,cs),
(1392,901,o),
(1524,745,o),
(1513,560,c),
(802,560,l)
);
}
);
width = 1776;
}
);
metricRight = o;
unicode = 230;
},
{
glyphname = b;
kernLeft = H;
kernRight = o;
lastChange = "2022-07-15 23:53:54 +0000";
layers = (
{
anchors = (
{
name = bottom;
pos = (630,0);
},
{
name = center;
pos = (630,500);
},
{
name = top;
pos = (630,1900);
}
);
hints = (
{
horizontal = 1;
origin = (0,10);
target = (0,7);
type = Stem;
},
{
horizontal = 1;
origin = (0,16);
target = (0,2);
type = Stem;
},
{
horizontal = 1;
origin = (0,5);
target = up;
type = BottomGhost;
},
{
origin = (0,5);
target = (0,6);
type = Stem;
},
{
origin = (0,16);
target = (0,13);
type = Stem;
},
{
origin = (0,5);
target = (0,2);
type = Stem;
}
);
layerId = "10BC12B3-5274-42E3-B5BC-F74F362F0DF4";
shapes = (
{
closed = 1;
nodes = (
(566,1028,o),
(482,978,o),
(420,908,c),
(420,1500,l),
(120,1500,l),
(120,0,l),
(420,0,l),
(420,94,l),
(482,24,o),
(566,-26,o),
(672,-26,cs),
(964,-26,o),
(1200,210,o),
(1200,502,cs),
(1200,792,o),
(964,1028,o),
(672,1028,cs)
);
},
{
closed = 1;
nodes = (
(546,264,o),
(446,370,o),
(446,502,cs),
(446,632,o),
(546,740,o),
(668,740,cs),
(792,740,o),
(892,632,o),
(892,502,cs),
(892,370,o),
(792,264,o),
(668,264,cs)
);
}
);
width = 1260;
},
{
anchors = (
{
name = bottom;
pos = (587,0);
},
{
name = center;
pos = (587,500);
},
{
name = top;
pos = (587,1900);
}
);
hints = (
{
horizontal = 1;
origin = (0,10);
target = (1,11);
type = Stem;
},
{
horizontal = 1;
origin = (0,16);
target = (1,5);
type = Stem;
},
{
horizontal = 1;
origin = (0,5);
target = up;
type = BottomGhost;
},
{
origin = (0,5);
target = (0,6);
type = Stem;
},
{
origin = (1,8);
target = (0,13);
type = Stem;
},
{
origin = (0,5);
target = (1,2);
type = Stem;
}
);
layerId = "9AF1F7D9-E035-453E-B2A8-46DE370997D0";
shapes = (
{
closed = 1;
nodes = (
(394,1028,o),
(252,924,o),
(180,768,c),
(180,1500,l),
(120,1500,l),
(120,0,l),
(180,0,l),
(180,234,l),
(252,78,o),
(394,-26,o),
(588,-26,cs),
(878,-26,o),
(1114,210,o),
(1114,500,cs),
(1114,792,o),
(878,1028,o),
(588,1028,cs)
);
},
{
closed = 1;
nodes = (
(334,34,o),
(184,240,o),
(184,500,cs),
(184,756,o),
(330,968,o),
(588,968,cs),
(838,968,o),
(1054,764,o),
(1054,500,cs),
(1054,244,o),
(846,34,o),
(588,34,cs)
);
}
);
width = 1174;
},
{
anchors = (
{
name = bottom;
pos = (446,0);
},
{
name = center;
pos = (517,500);
},
{
name = top;
pos = (713,1900);
}
);
hints = (
{
horizontal = 1;
origin = (0,10);
target = (1,11);
type = Stem;
},
{
horizontal = 1;
origin = (0,16);
target = (1,5);
type = Stem;
},
{
horizontal = 1;
origin = (0,5);
target = up;
type = BottomGhost;
},
{
origin = (0,5);
target = (0,6);
type = Stem;
},
{
origin = (1,8);
target = (0,13);
type = Stem;
},
{
origin = (0,5);
target = (1,2);
type = Stem;
}
);
layerId = m003;
shapes = (
{
closed = 1;
nodes = (
(398,1028,o),
(241,924,o),
(147,768,c),
(250,1500,l),
(190,1500,l),
(-21,0,l),
(39,0,l),
(72,234,l),
(122,78,o),
(250,-26,o),
(444,-26,cs),
(734,-26,o),
(1003,210,o),
(1044,500,cs),
(1085,792,o),
(882,1028,o),
(592,1028,cs)
);
},
{
closed = 1;
nodes = (
(198,34,o),
(77,240,o),
(114,500,cs),
(150,756,o),
(326,968,o),
(584,968,cs),
(834,968,o),
(1021,764,o),
(984,500,cs),
(948,244,o),
(710,34,o),
(452,34,cs)
);
}
);
width = 1174;
},
{
anchors = (
{
name = bottom;
pos = (489,0);
},
{
name = center;
pos = (560,500);
},
{
name = top;
pos = (756,1900);
}
);
hints = (
{
horizontal = 1;
origin = (0,10);
target = (0,7);
type = Stem;
},
{
horizontal = 1;
origin = (0,16);
target = (0,2);
type = Stem;
},
{
horizontal = 1;
origin = (0,5);
target = up;
type = BottomGhost;
},
{
origin = (0,5);
target = (0,6);
type = Stem;
},
{
origin = (0,16);
target = (0,13);
type = Stem;
},
{
origin = (0,5);
target = (0,2);
type = Stem;
}
);
layerId = m004;
shapes = (
{
closed = 1;
nodes = (
(570,1028,o),
(479,978,o),
(407,908,c),
(490,1500,l),
(190,1500,l),
(-21,0,l),
(279,0,l),
(293,94,l),
(345,24,o),
(422,-26,o),
(528,-26,cs),
(820,-26,o),
(1089,210,o),
(1130,502,cs),
(1171,792,o),
(968,1028,o),
(676,1028,cs)
);
},
{
closed = 1;
nodes = (
(443,264,o),
(357,370,o),
(376,502,cs),
(394,632,o),
(509,740,o),
(631,740,cs),
(755,740,o),
(840,632,o),
(822,502,cs),
(803,370,o),
(689,264,o),
(565,264,cs)
);
}
);
width = 1260;
},
{
anchors = (
{
name = bottom;
pos = (601,0);
},
{
name = center;
pos = (601,500);
},
{
name = top;
pos = (601,1900);
}
);
hints = (
{
horizontal = 1;
origin = (0,10);
target = (1,11);
type = Stem;
},
{
horizontal = 1;
origin = (0,16);
target = (1,5);
type = Stem;
},
{
horizontal = 1;
origin = (0,5);
target = up;
type = BottomGhost;
},
{
origin = (0,5);
target = (0,6);
type = Stem;
},
{
origin = (1,8);
target = (0,13);
type = Stem;
},
{
origin = (0,5);
target = (1,2);
type = Stem;
}
);
layerId = "9C66D268-F658-4B53-B779-04C5E9DBD6C3";
shapes = (
{
closed = 1;
nodes = (
(451,1028,o),
(329,942,o),
(260,815,c),
(260,1500,l),
(120,1500,l),
(120,0,l),
(260,0,l),
(260,187,l),
(329,60,o),
(451,-26,o),
(616,-26,cs),
(907,-26,o),
(1143,210,o),
(1143,501,cs),
(1143,792,o),
(907,1028,o),
(616,1028,cs)
);
},
{
closed = 1;
nodes = (
(405,111,o),
(271,283,o),
(271,501,cs),
(271,715,o),
(402,892,o),
(615,892,cs),
(823,892,o),
(1000,720,o),
(1000,501,cs),
(1000,286,o),
(828,111,o),
(615,111,cs)
);
}
);
width = 1202.66667;
},
{
anchors = (
{
name = bottom;
pos = (460,0);
},
{
name = center;
pos = (531,500);
},
{
name = top;
pos = (727,1900);
}
);
hints = (
{
horizontal = 1;
origin = (0,10);
target = (1,11);
type = Stem;
},
{
horizontal = 1;
origin = (0,16);
target = (1,5);
type = Stem;
},
{
horizontal = 1;
origin = (0,5);
target = up;
type = BottomGhost;
},
{
origin = (0,5);
target = (0,6);
type = Stem;
},
{
origin = (1,8);
target = (0,13);
type = Stem;
},
{
origin = (0,5);
target = (1,2);
type = Stem;
}
);
layerId = "6AFC1D6D-393E-4CF1-A9CC-89EE1F1F13FA";
shapes = (
{
closed = 1;
nodes = (
(455,1028,o),
(320,942,o),
(234,815,c),
(330,1500,l),
(190,1500,l),
(-21,0,l),
(119,0,l),
(146,187,l),
(196,60,o),
(307,-26,o),
(472,-26,cs),
(763,-26,o),
(1032,210,o),
(1073,501,cs),
(1114,792,o),
(911,1028,o),
(620,1028,cs)
);
},
{
closed = 1;
nodes = (
(280,111,o),
(170,283,o),
(201,501,cs),
(231,715,o),
(387,892,o),
(600,892,cs),
(808,892,o),
(961,720,o),
(930,501,cs),
(900,286,o),
(703,111,o),
(490,111,cs)
);
}
);
width = 1202.66667;
}
);
metricLeft = H;
metricRight = o;
unicode = 98;
},
{
glyphname = c;
kernLeft = o;
kernRight = c;
lastChange = "2022-07-15 23:53:54 +0000";
layers = (
{
anchors = (
{
name = bottom;
pos = (560,0);
},
{
name = top;
pos = (560,1000);
}
);
hints = (
{
horizontal = 1;
origin = (0,21);
target = (0,2);
type = Stem;
},
{
horizontal = 1;
origin = (0,15);
target = (0,8);
type = Stem;
},
{
origin = (0,18);
target = (0,5);
type = Stem;
}
);
layerId = "10BC12B3-5274-42E3-B5BC-F74F362F0DF4";
shapes = (
{
closed = 1;
nodes = (
(654,294,o),
(608,274,o),
(560,274,cs),
(446,274,o),
(360,382,o),
(360,500,cs),
(360,620,o),
(446,728,o),
(560,728,cs),
(608,728,o),
(654,708,o),
(690,672,c),
(960,818,l),
(868,946,o),
(724,1028,o),
(560,1028,cs),
(284,1028,o),
(60,792,o),
(60,500,cs),
(60,210,o),
(284,-26,o),
(560,-26,cs),
(724,-26,o),
(868,56,o),
(960,182,c),
(690,328,l)
);
}
);
width = 1020;
},
{
anchors = (
{
name = bottom;
pos = (560,0);
},
{
name = top;
pos = (560,1000);
}
);
hints = (
{
horizontal = 1;
origin = (0,21);
target = (0,2);
type = Stem;
},
{
horizontal = 1;
origin = (0,15);
target = (0,8);
type = Stem;
},
{
origin = (0,18);
target = (0,5);
type = Stem;
}
);
layerId = "9AF1F7D9-E035-453E-B2A8-46DE370997D0";
shapes = (
{
closed = 1;
nodes = (
(828,108,o),
(700,34,o),
(560,34,cs),
(318,34,o),
(120,242,o),
(120,500,cs),
(120,754,o),
(312,968,o),
(560,968,cs),
(688,968,o),
(820,904,o),
(906,790,c),
(958,818,l),
(868,946,o),
(722,1028,o),
(560,1028,cs),
(284,1028,o),
(60,792,o),
(60,500,cs),
(60,210,o),
(284,-26,o),
(560,-26,cs),
(722,-26,o),
(868,56,o),
(958,184,c),
(906,212,l)
);
}
);
width = 1018;
},
{
anchors = (
{
name = bottom;
pos = (419,0);
},
{
name = top;
pos = (560,1000);
}
);
hints = (
{
horizontal = 1;
origin = (0,21);
target = (0,2);
type = Stem;
},
{
horizontal = 1;
origin = (0,15);
target = (0,8);
type = Stem;
},
{
origin = (0,18);
target = (0,5);
type = Stem;
}
);
layerId = m003;
shapes = (
{
closed = 1;
nodes = (
(703,108,o),
(564,34,o),
(424,34,cs),
(182,34,o),
(13,242,o),
(50,500,cs),
(85,754,o),
(308,968,o),
(556,968,cs),
(684,968,o),
(807,904,o),
(876,790,c),
(932,818,l),
(860,946,o),
(726,1028,o),
(564,1028,cs),
(288,1028,o),
(31,792,o),
(-10,500,cs),
(-51,210,o),
(140,-26,o),
(416,-26,cs),
(578,-26,o),
(735,56,o),
(843,184,c),
(795,212,l)
);
}
);
width = 1018;
},
{
anchors = (
{
name = bottom;
pos = (419,0);
},
{
name = top;
pos = (560,1000);
}
);
hints = (
{
horizontal = 1;
origin = (0,21);
target = (0,2);
type = Stem;
},
{
horizontal = 1;
origin = (0,15);
target = (0,8);
type = Stem;
},
{
origin = (0,18);
target = (0,5);
type = Stem;
}
);
layerId = m004;
shapes = (
{
closed = 1;
nodes = (
(555,294,o),
(506,274,o),
(458,274,cs),
(344,274,o),
(273,382,o),
(290,500,cs),
(307,620,o),
(408,728,o),
(522,728,cs),
(570,728,o),
(613,708,o),
(644,672,c),
(934,818,l),
(860,946,o),
(728,1028,o),
(564,1028,cs),
(288,1028,o),
(31,792,o),
(-10,500,cs),
(-51,210,o),
(140,-26,o),
(416,-26,cs),
(580,-26,o),
(735,56,o),
(845,182,c),
(596,328,l)
);
}
);
width = 1020;
},
{
anchors = (
{
name = bottom;
pos = (560,0);
},
{
name = top;
pos = (560,1000);
}
);
hints = (
{
horizontal = 1;
origin = (0,21);
target = (0,2);
type = Stem;
},
{
horizontal = 1;
origin = (0,15);
target = (0,8);
type = Stem;
},
{
origin = (0,18);
target = (0,5);
type = Stem;
}
);
layerId = "9C66D268-F658-4B53-B779-04C5E9DBD6C3";
shapes = (
{
closed = 1;
nodes = (
(770,170,o),
(669,114,o),
(560,114,cs),
(361,114,o),
(200,289,o),
(200,500,cs),
(200,709,o),
(357,888,o),
(560,888,cs),
(661,888,o),
(765,839,o),
(834,751,c),
(959,818,l),
(868,946,o),
(723,1028,o),
(560,1028,cs),
(284,1028,o),
(60,792,o),
(60,500,cs),
(60,210,o),
(284,-26,o),
(560,-26,cs),
(723,-26,o),
(868,56,o),
(959,183,c),
(834,251,l)
);
}
);
width = 1018.66667;
},
{
anchors = (
{
name = bottom;
pos = (419,0);
},
{
name = top;
pos = (560,1000);
}
);
hints = (
{
horizontal = 1;
origin = (0,21);
target = (0,2);
type = Stem;
},
{
horizontal = 1;
origin = (0,15);
target = (0,8);
type = Stem;
},
{
origin = (0,18);
target = (0,5);
type = Stem;
}
);
layerId = "6AFC1D6D-393E-4CF1-A9CC-89EE1F1F13FA";
shapes = (
{
closed = 1;
nodes = (
(654,170,o),
(545,114,o),
(435,114,cs),
(236,114,o),
(100,289,o),
(130,500,cs),
(159,709,o),
(341,888,o),
(545,888,cs),
(646,888,o),
(742,839,o),
(799,751,c),
(933,818,l),
(860,946,o),
(727,1028,o),
(564,1028,cs),
(288,1028,o),
(31,792,o),
(-10,500,cs),
(-51,210,o),
(140,-26,o),
(416,-26,cs),
(579,-26,o),
(735,56,o),
(844,183,c),
(729,251,l)
);
}
);
width = 1018.66667;
}
);
metricLeft = o;
unicode = 99;
},
{
glyphname = d;
kernLeft = o;
kernRight = H;
lastChange = "2022-07-15 23:54:02 +0000";
layers = (
{
anchors = (
{
name = bottom;
pos = (620,0);
},
{
name = center;
pos = (620,500);
},
{
name = top;
pos = (620,1900);
},
{
name = topright;
pos = (1260,1102);
}
);
hints = (
{
horizontal = 1;
origin = (0,9);
target = (1,11);
type = Stem;
},
{
horizontal = 1;
origin = (0,3);
target = (1,5);
type = Stem;
},
{
horizontal = 1;
origin = (0,13);
target = up;
type = BottomGhost;
},
{
origin = (0,6);
target = (1,2);
type = Stem;
},
{
origin = (0,13);
target = (0,14);
type = Stem;
},
{
origin = (1,8);
target = (0,14);
type = Stem;
}
);
layerId = "10BC12B3-5274-42E3-B5BC-F74F362F0DF4";
shapes = (
{
closed = 1;
nodes = (
(840,908,l),
(778,978,o),
(694,1026,o),
(586,1026,cs),
(296,1026,o),
(60,790,o),
(60,500,cs),
(60,210,o),
(296,-26,o),
(586,-26,cs),
(694,-26,o),
(778,22,o),
(840,92,c),
(840,0,l),
(1140,0,l),
(1140,1500,l),
(840,1500,l)
);
},
{
closed = 1;
nodes = (
(468,262,o),
(368,368,o),
(368,500,cs),
(368,632,o),
(465,738,o),
(590,738,cs),
(714,738,o),
(814,632,o),
(814,500,cs),
(814,368,o),
(714,262,o),
(590,262,cs)
);
}
);
width = 1260;
},
{
anchors = (
{
name = bottom;
pos = (602,0);
},
{
name = center;
pos = (602,500);
},
{
name = top;
pos = (602,1900);
},
{
name = topright;
pos = (1174,1102);
}
);
hints = (
{
horizontal = 1;
origin = (0,9);
target = (1,11);
type = Stem;
},
{
horizontal = 1;
origin = (0,3);
target = (1,5);
type = Stem;
},
{
horizontal = 1;
origin = (0,13);
target = up;
type = BottomGhost;
},
{
origin = (0,6);
target = (1,2);
type = Stem;
},
{
origin = (0,13);
target = (0,14);
type = Stem;
},
{
origin = (1,8);
target = (0,14);
type = Stem;
}
);
layerId = "9AF1F7D9-E035-453E-B2A8-46DE370997D0";
shapes = (
{
closed = 1;
nodes = (
(994,768,l),
(922,924,o),
(780,1028,o),
(586,1028,cs),
(296,1028,o),
(60,792,o),
(60,500,cs),
(60,210,o),
(296,-26,o),
(586,-26,cs),
(780,-26,o),
(922,78,o),
(994,234,c),
(994,0,l),
(1054,0,l),
(1054,1500,l),
(994,1500,l)
);
},
{
closed = 1;
nodes = (
(336,34,o),
(120,238,o),
(120,500,cs),
(120,758,o),
(330,968,o),
(586,968,cs),
(840,968,o),
(990,762,o),
(990,500,cs),
(990,244,o),
(844,34,o),
(586,34,cs)
);
}
);
width = 1174;
},
{
anchors = (
{
name = bottom;
pos = (461,0);
},
{
name = center;
pos = (532,500);
},
{
name = top;
pos = (728,1900);
},
{
name = topright;
pos = (1188,1102);
}
);
hints = (
{
horizontal = 1;
origin = (0,9);
target = (1,11);
type = Stem;
},
{
horizontal = 1;
origin = (0,3);
target = (1,5);
type = Stem;
},
{
horizontal = 1;
origin = (0,13);
target = up;
type = BottomGhost;
},
{
origin = (0,6);
target = (1,2);
type = Stem;
},
{
origin = (0,13);
target = (0,14);
type = Stem;
},
{
origin = (1,8);
target = (0,14);
type = Stem;
}
);
layerId = m003;
shapes = (
{
closed = 1;
nodes = (
(961,768,l),
(911,924,o),
(784,1028,o),
(590,1028,cs),
(300,1028,o),
(31,792,o),
(-10,500,cs),
(-51,210,o),
(152,-26,o),
(442,-26,cs),
(636,-26,o),
(792,78,o),
(886,234,c),
(853,0,l),
(913,0,l),
(1124,1500,l),
(1064,1500,l)
);
},
{
closed = 1;
nodes = (
(200,34,o),
(13,238,o),
(50,500,cs),
(86,758,o),
(326,968,o),
(582,968,cs),
(836,968,o),
(957,762,o),
(920,500,cs),
(884,244,o),
(708,34,o),
(450,34,cs)
);
}
);
width = 1173;
},
{
anchors = (
{
name = bottom;
pos = (479,0);
},
{
name = center;
pos = (550,500);
},
{
name = top;
pos = (746,1900);
},
{
name = topright;
pos = (1274,1102);
}
);
hints = (
{
horizontal = 1;
origin = (0,9);
target = (1,11);
type = Stem;
},
{
horizontal = 1;
origin = (0,3);
target = (1,5);
type = Stem;
},
{
horizontal = 1;
origin = (0,13);
target = up;
type = BottomGhost;
},
{
origin = (0,6);
target = (1,2);
type = Stem;
},
{
origin = (0,13);
target = (0,14);
type = Stem;
},
{
origin = (1,8);
target = (0,14);
type = Stem;
}
);
layerId = m004;
shapes = (
{
closed = 1;
nodes = (
(827,908,l),
(775,978,o),
(698,1026,o),
(590,1026,cs),
(300,1026,o),
(30,790,o),
(-10,500,cs),
(-51,210,o),
(152,-26,o),
(442,-26,cs),
(550,-26,o),
(641,22,o),
(712,92,c),
(699,0,l),
(999,0,l),
(1210,1500,l),
(910,1500,l)
);
},
{
closed = 1;
nodes = (
(364,262,o),
(279,368,o),
(298,500,cs),
(316,632,o),
(428,738,o),
(553,738,cs),
(677,738,o),
(762,632,o),
(744,500,cs),
(725,368,o),
(610,262,o),
(486,262,cs)
);
}
);
width = 1259;
},
{
anchors = (
{
name = bottom;
pos = (608,0);
},
{
name = center;
pos = (608,500);
},
{
name = top;
pos = (608,1900);
},
{
name = topright;
pos = (1203,1102);
}
);
hints = (
{
horizontal = 1;
origin = (0,9);
target = (1,11);
type = Stem;
},
{
horizontal = 1;
origin = (0,3);
target = (1,5);
type = Stem;
},
{
horizontal = 1;
origin = (0,13);
target = up;
type = BottomGhost;
},
{
origin = (0,6);
target = (1,2);
type = Stem;
},
{
origin = (0,13);
target = (0,14);
type = Stem;
},
{
origin = (1,8);
target = (0,14);
type = Stem;
}
);
layerId = "9C66D268-F658-4B53-B779-04C5E9DBD6C3";
shapes = (
{
closed = 1;
nodes = (
(943,815,l),
(874,942,o),
(751,1027,o),
(586,1027,cs),
(296,1027,o),
(60,791,o),
(60,500,cs),
(60,210,o),
(296,-26,o),
(586,-26,cs),
(751,-26,o),
(874,59,o),
(943,187,c),
(943,0,l),
(1083,0,l),
(1083,1500,l),
(943,1500,l)
);
},
{
closed = 1;
nodes = (
(380,110,o),
(203,281,o),
(203,500,cs),
(203,716,o),
(375,891,o),
(587,891,cs),
(798,891,o),
(931,719,o),
(931,500,cs),
(931,285,o),
(801,110,o),
(587,110,cs)
);
}
);
width = 1202.66667;
},
{
anchors = (
{
name = bottom;
pos = (467,0);
},
{
name = center;
pos = (538,500);
},
{
name = top;
pos = (734,1900);
},
{
name = topright;
pos = (1217,1102);
}
);
hints = (
{
horizontal = 1;
origin = (0,9);
target = (1,11);
type = Stem;
},
{
horizontal = 1;
origin = (0,3);
target = (1,5);
type = Stem;
},
{
horizontal = 1;
origin = (0,13);
target = up;
type = BottomGhost;
},
{
origin = (0,6);
target = (1,2);
type = Stem;
},
{
origin = (0,13);
target = (0,14);
type = Stem;
},
{
origin = (1,8);
target = (0,14);
type = Stem;
}
);
layerId = "6AFC1D6D-393E-4CF1-A9CC-89EE1F1F13FA";
shapes = (
{
closed = 1;
nodes = (
(916,815,l),
(866,942,o),
(755,1027,o),
(590,1027,cs),
(300,1027,o),
(31,791,o),
(-10,500,cs),
(-51,210,o),
(152,-26,o),
(442,-26,cs),
(607,-26,o),
(742,59,o),
(828,187,c),
(802,0,l),
(942,0,l),
(1153,1500,l),
(1013,1500,l)
);
},
{
closed = 1;
nodes = (
(255,110,o),
(102,281,o),
(133,500,cs),
(163,716,o),
(360,891,o),
(572,891,cs),
(783,891,o),
(892,719,o),
(861,500,cs),
(831,285,o),
(675,110,o),
(462,110,cs)
);
}
);
width = 1202;
}
);
metricLeft = o;
metricRight = H;
unicode = 100;
},
{
glyphname = eth;
kernLeft = o;
kernRight = eth;
lastChange = "2022-07-15 23:53:54 +0000";
layers = (
{
anchors = (
{
name = bottom;
pos = (563,0);
},
{
name = top;
pos = (563,1900);
}
);
hints = (
{
horizontal = 1;
origin = (0,3);
target = (0,1);
type = Stem;
},
{
origin = (0,2);
target = (0,0);
type = Stem;
}
);
layerId = "10BC12B3-5274-42E3-B5BC-F74F362F0DF4";
shapes = (
{
closed = 1;
nodes = (
(876,1450,l),
(736,1592,l),
(298,1160,l),
(440,1018,l)
);
},
{
ref = partialdiff;
}
);
width = 1126;
},
{
anchors = (
{
name = bottom;
pos = (562,0);
},
{
name = top;
pos = (562,1900);
}
);
layerId = "9AF1F7D9-E035-453E-B2A8-46DE370997D0";
shapes = (
{
closed = 1;
nodes = (
(866,1500,l),
(824,1542,l),
(384,1114,l),
(428,1070,l)
);
},
{
ref = partialdiff;
}
);
width = 1124;
},
{
anchors = (
{
name = bottom;
pos = (421,0);
},
{
name = top;
pos = (688,1900);
}
);
layerId = m003;
shapes = (
{
closed = 1;
nodes = (
(936,1500,l),
(900,1542,l),
(400,1114,l),
(438,1070,l)
);
},
{
ref = partialdiff;
}
);
width = 1124;
},
{
anchors = (
{
name = bottom;
pos = (422,0);
},
{
name = top;
pos = (689,1900);
}
);
hints = (
{
horizontal = 1;
origin = (0,3);
target = (0,1);
type = Stem;
},
{
origin = (0,2);
target = (0,0);
type = Stem;
}
);
layerId = m004;
shapes = (
{
closed = 1;
nodes = (
(939,1450,l),
(819,1592,l),
(320,1160,l),
(443,1018,l)
);
},
{
ref = partialdiff;
}
);
width = 1126;
},
{
anchors = (
{
name = bottom;
pos = (562,0);
},
{
name = top;
pos = (562,1900);
}
);
hints = (
{
horizontal = 1;
origin = (0,3);
target = (0,1);
type = Stem;
},
{
origin = (0,2);
target = (0,0);
type = Stem;
}
);
layerId = "9C66D268-F658-4B53-B779-04C5E9DBD6C3";
shapes = (
{
closed = 1;
nodes = (
(869,1483,l),
(795,1559,l),
(355,1129,l),
(432,1053,l)
);
},
{
alignment = -1;
ref = partialdiff;
}
);
width = 1124.66667;
},
{
anchors = (
{
name = bottom;
pos = (421,0);
},
{
name = top;
pos = (688,1900);
}
);
hints = (
{
horizontal = 1;
origin = (0,3);
target = (0,1);
type = Stem;
},
{
origin = (0,2);
target = (0,0);
type = Stem;
}
);
layerId = "6AFC1D6D-393E-4CF1-A9CC-89EE1F1F13FA";
shapes = (
{
closed = 1;
nodes = (
(937,1483,l),
(873,1559,l),
(373,1129,l),
(440,1053,l)
);
},
{
alignment = -1;
ref = partialdiff;
}
);
width = 1124.66667;
}
);
unicode = 240;
},
{
glyphname = dcroat;
kernLeft = o;
lastChange = "2022-07-15 23:53:54 +0000";
layers = (
{
layerId = "9AF1F7D9-E035-453E-B2A8-46DE370997D0";
shapes = (
{
ref = d;
},
{
closed = 1;
nodes = (
(712,1202,l),
(1197,1202,l),
(1197,1262,l),
(712,1262,l)
);
}
);
width = 1217;
},
{
layerId = "10BC12B3-5274-42E3-B5BC-F74F362F0DF4";
shapes = (
{
ref = d;
},
{
closed = 1;
nodes = (
(625,1042,l),
(1240,1042,l),
(1240,1342,l),
(625,1342,l)
);
}
);
width = 1260;
},
{
layerId = m003;
shapes = (
{
ref = d;
},
{
closed = 1;
nodes = (
(740,1202,l),
(1225,1202,l),
(1234,1262,l),
(749,1262,l)
);
}
);
width = 1217;
},
{
layerId = m004;
shapes = (
{
ref = d;
},
{
closed = 1;
nodes = (
(631,1042,l),
(1246,1042,l),
(1288,1342,l),
(673,1342,l)
);
}
);
width = 1260;
},
{
layerId = "9C66D268-F658-4B53-B779-04C5E9DBD6C3";
shapes = (
{
alignment = -1;
ref = d;
},
{
closed = 1;
nodes = (
(683,1149,l),
(1211,1149,l),
(1211,1289,l),
(683,1289,l)
);
}
);
width = 1231.33333;
},
{
layerId = "6AFC1D6D-393E-4CF1-A9CC-89EE1F1F13FA";
shapes = (
{
alignment = -1;
ref = d;
},
{
closed = 1;
nodes = (
(704,1149,l),
(1232,1149,l),
(1252,1289,l),
(724,1289,l)
);
}
);
width = 1231.33333;
}
);
metricLeft = o;
metricRight = "=H-100";
unicode = 273;
},
{
glyphname = e;
kernLeft = o;
kernRight = o;
lastChange = "2022-07-15 23:54:02 +0000";
layers = (
{
anchors = (
{
name = bottom;
pos = (560,0);
},
{
name = ogonek;
pos = (715,0);
},
{
name = top;
pos = (560,1000);
}
);
hints = (
{
horizontal = 1;
origin = (0,19);
target = (0,6);
type = Stem;
},
{
horizontal = 1;
origin = (0,9);
target = (1,6);
type = Stem;
},
{
horizontal = 1;
origin = (0,13);
target = (1,2);
type = Stem;
}
);
layerId = "10BC12B3-5274-42E3-B5BC-F74F362F0DF4";
shapes = (
{
closed = 1;
nodes = (
(760,-26,o),
(932,98,o),
(1013,276,c),
(707,347,l),
(670,302,o),
(618,273,o),
(560,274,cs),
(467,276,o),
(412,330,o),
(384,401,c),
(1051,401,l),
(1111,719,o),
(879,1028,o),
(560,1028,cs),
(284,1028,o),
(60,792,o),
(60,501,cs),
(60,210,o),
(284,-26,o),
(560,-26,cs)
);
},
{
closed = 1;
nodes = (
(402,707,o),
(475,768,o),
(560,768,cs),
(646,768,o),
(719,707,o),
(748,621,c),
(373,621,l)
);
}
);
width = 1120;
},
{
anchors = (
{
name = bottom;
pos = (559,0);
},
{
name = ogonek;
pos = (716,0);
},
{
name = top;
pos = (559,1000);
}
);
hints = (
{
horizontal = 1;
origin = (0,19);
target = (0,6);
type = Stem;
},
{
horizontal = 1;
origin = (0,9);
target = (1,6);
type = Stem;
},
{
horizontal = 1;
origin = (0,13);
target = (1,2);
type = Stem;
},
{
origin = (0,16);
target = (0,9);
type = Stem;
},
{
origin = (1,5);
target = (0,10);
type = Stem;
}
);
layerId = "9AF1F7D9-E035-453E-B2A8-46DE370997D0";
shapes = (
{
closed = 1;
nodes = (
(760,-26,o),
(932,98,o),
(1012,276,c),
(952,290,l),
(872,130,o),
(730,34,o),
(560,34,cs),
(330,34,o),
(140,220,o),
(120,470,c),
(1058,470,l),
(1052,804,o),
(846,1028,o),
(560,1028,cs),
(284,1028,o),
(60,792,o),
(60,500,cs),
(60,210,o),
(284,-26,o),
(560,-26,cs)
);
},
{
closed = 1;
nodes = (
(136,772,o),
(322,968,o),
(560,968,cs),
(796,968,o),
(990,764,o),
(998,530,c),
(120,530,l)
);
}
);
width = 1118;
},
{
anchors = (
{
name = bottom;
pos = (418,0);
},
{
name = ogonek;
pos = (575,0);
},
{
name = top;
pos = (559,1000);
}
);
hints = (
{
horizontal = 1;
origin = (0,19);
target = (0,6);
type = Stem;
},
{
horizontal = 1;
origin = (0,9);
target = (1,6);
type = Stem;
},
{
horizontal = 1;
origin = (0,13);
target = (1,2);
type = Stem;
},
{
origin = (0,16);
target = (0,9);
type = Stem;
},
{
origin = (1,5);
target = (0,10);
type = Stem;
}
);
layerId = m003;
shapes = (
{
closed = 1;
nodes = (
(616,-26,o),
(805,98,o),
(910,276,c),
(852,290,l),
(750,130,o),
(594,34,o),
(424,34,cs),
(194,34,o),
(30,220,o),
(46,470,c),
(984,470,l),
(1024,804,o),
(850,1028,o),
(564,1028,cs),
(288,1028,o),
(31,792,o),
(-10,500,cs),
(-51,210,o),
(140,-26,o),
(416,-26,cs)
);
},
{
closed = 1;
nodes = (
(104,772,o),
(318,968,o),
(556,968,cs),
(792,968,o),
(957,764,o),
(932,530,c),
(54,530,l)
);
}
);
width = 1118;
},
{
anchors = (
{
name = bottom;
pos = (419,0);
},
{
name = ogonek;
pos = (574,0);
},
{
name = top;
pos = (560,1000);
}
);
hints = (
{
horizontal = 1;
origin = (0,19);
target = (0,6);
type = Stem;
},
{
horizontal = 1;
origin = (0,9);
target = (1,6);
type = Stem;
},
{
horizontal = 1;
origin = (0,13);
target = (1,2);
type = Stem;
}
);
layerId = m004;
shapes = (
{
closed = 1;
nodes = (
(616,-26,o),
(805,98,o),
(911,276,c),
(615,347,l),
(572,302,o),
(516,273,o),
(458,274,cs),
(365,276,o),
(318,330,o),
(300,401,c),
(967,401,l),
(1072,719,o),
(883,1028,o),
(564,1028,cs),
(288,1028,o),
(31,792,o),
(-10,501,cs),
(-51,210,o),
(140,-26,o),
(416,-26,cs)
);
},
{
closed = 1;
nodes = (
(361,707,o),
(442,768,o),
(527,768,cs),
(613,768,o),
(678,707,o),
(695,621,c),
(320,621,l)
);
}
);
width = 1120;
},
{
anchors = (
{
name = bottom;
pos = (559,0);
},
{
name = ogonek;
pos = (716,0);
},
{
name = top;
pos = (559,1000);
}
);
hints = (
{
horizontal = 1;
origin = (0,19);
target = (0,6);
type = Stem;
},
{
horizontal = 1;
origin = (0,9);
target = (1,6);
type = Stem;
},
{
horizontal = 1;
origin = (0,13);
target = (1,2);
type = Stem;
},
{
origin = (0,16);
target = (0,9);
type = Stem;
},
{
origin = (1,5);
target = (0,10);
type = Stem;
}
);
layerId = "9C66D268-F658-4B53-B779-04C5E9DBD6C3";
shapes = (
{
closed = 1;
nodes = (
(760,-26,o),
(932,98,o),
(1012,276,c),
(870,309,l),
(805,187,o),
(693,114,o),
(560,114,cs),
(376,115,o),
(231,257,o),
(208,447,c),
(1056,447,l),
(1072,776,o),
(857,1028,o),
(560,1028,cs),
(284,1028,o),
(60,792,o),
(60,500,cs),
(60,210,o),
(284,-26,o),
(560,-26,cs)
);
},
{
closed = 1;
nodes = (
(225,750,o),
(373,901,o),
(560,901,cs),
(746,901,o),
(900,745,o),
(915,560,c),
(204,560,l)
);
}
);
width = 1117;
},
{
anchors = (
{
name = bottom;
pos = (418,0);
},
{
name = ogonek;
pos = (575,0);
},
{
name = top;
pos = (559,1000);
}
);
hints = (
{
horizontal = 1;
origin = (0,19);
target = (0,6);
type = Stem;
},
{
horizontal = 1;
origin = (0,9);
target = (1,6);
type = Stem;
},
{
horizontal = 1;
origin = (0,13);
target = (1,2);
type = Stem;
},
{
origin = (0,16);
target = (0,9);
type = Stem;
},
{
origin = (1,5);
target = (0,10);
type = Stem;
}
);
layerId = "6AFC1D6D-393E-4CF1-A9CC-89EE1F1F13FA";
shapes = (
{
closed = 1;
nodes = (
(616,-26,o),
(805,98,o),
(910,276,c),
(773,309,l),
(691,187,o),
(568,114,o),
(435,114,cs),
(251,115,o),
(126,257,o),
(131,447,c),
(978,447,l),
(1040,776,o),
(861,1028,o),
(564,1028,cs),
(288,1028,o),
(31,792,o),
(-10,500,cs),
(-51,210,o),
(140,-26,o),
(416,-26,cs)
);
},
{
closed = 1;
nodes = (
(190,750,o),
(359,901,o),
(546,901,cs),
(732,901,o),
(864,745,o),
(853,560,c),
(143,560,l)
);
}
);
width = 1116;
}
);
metricLeft = o;
metricRight = o;
unicode = 101;
},
